<?xml version="1.0" encoding="UTF-8" standalone="no"?>
<!DOCTYPE svg PUBLIC "-//W3C//DTD SVG 1.1//EN"
 "http://www.w3.org/Graphics/SVG/1.1/DTD/svg11.dtd">
<!-- Generated by graphviz version 2.40.1 (0)
 -->
<!-- Title: %3 Pages: 1 -->
<svg width="616pt" height="345pt"
 viewBox="0.00 0.00 616.45 344.97" xmlns="http://www.w3.org/2000/svg" xmlns:xlink="http://www.w3.org/1999/xlink">
<g id="graph0" class="graph" transform="scale(1 1) rotate(0) translate(4 340.9727)">
<title>%3</title>
<polygon fill="#ffffff" stroke="transparent" points="-4,4 -4,-340.9727 612.4508,-340.9727 612.4508,4 -4,4"/>
<!-- 0 -->
<g id="node1" class="node">
<title>0</title>
<ellipse fill="#add8e6" stroke="#000000" cx="269.2254" cy="-278.2828" rx="89.191" ry="58.8803"/>
<text text-anchor="middle" x="269.2254" y="-304.5828" font-family="Times,serif" font-size="14.00" fill="#000000">(1/1)</text>
<text text-anchor="middle" x="269.2254" y="-289.5828" font-family="Times,serif" font-size="14.00" fill="#000000">p : Prop</text>
<text text-anchor="middle" x="269.2254" y="-274.5828" font-family="Times,serif" font-size="14.00" fill="#000000">hp : p</text>
<text text-anchor="middle" x="269.2254" y="-259.5828" font-family="Times,serif" font-size="14.00" fill="#000000">⊢ True → ∃ x, p</text>
<text text-anchor="middle" x="269.2254" y="-244.5828" font-family="Times,serif" font-size="14.00" fill="#000000">$0.00$</text>
</g>
<!-- 1 -->
<g id="node2" class="node">
<title>1</title>
<ellipse fill="none" stroke="#000000" cx="62.2254" cy="-69.2965" rx="62.4516" ry="69.0935"/>
<text text-anchor="middle" x="62.2254" y="-103.0965" font-family="Times,serif" font-size="14.00" fill="#000000">(1/1)</text>
<text text-anchor="middle" x="62.2254" y="-88.0965" font-family="Times,serif" font-size="14.00" fill="#000000">case intro</text>
<text text-anchor="middle" x="62.2254" y="-73.0965" font-family="Times,serif" font-size="14.00" fill="#000000">p : Prop</text>
<text text-anchor="middle" x="62.2254" y="-58.0965" font-family="Times,serif" font-size="14.00" fill="#000000">hp : p</text>
<text text-anchor="middle" x="62.2254" y="-43.0965" font-family="Times,serif" font-size="14.00" fill="#000000">⊢ ∃ x, p</text>
<text text-anchor="middle" x="62.2254" y="-28.0965" font-family="Times,serif" font-size="14.00" fill="#000000">$0.75$</text>
</g>
<!-- 0&#45;&gt;1 -->
<g id="edge1" class="edge">
<title>0&#45;&gt;1</title>
<path fill="none" stroke="#000000" d="M184.5624,-259.7604C150.9601,-248.3164 114.7829,-230.1423 91.2254,-201.5929 78.8639,-186.612 71.4604,-167.5252 67.1023,-148.5417"/>
<polygon fill="#000000" stroke="#000000" points="70.5127,-147.7486 65.0907,-138.6463 63.653,-149.1431 70.5127,-147.7486"/>
<text text-anchor="middle" x="137.7254" y="-182.8929" font-family="Times,serif" font-size="14.00" fill="#000000">rintro ⟨k, hk⟩</text>
<text text-anchor="middle" x="137.7254" y="-167.8929" font-family="Times,serif" font-size="14.00" fill="#000000">$0.75$</text>
</g>
<!-- 2 -->
<g id="node3" class="node">
<title>2</title>
<ellipse fill="none" stroke="#000000" cx="194.2254" cy="-69.2965" rx="51.7379" ry="69.0935"/>
<text text-anchor="middle" x="194.2254" y="-103.0965" font-family="Times,serif" font-size="14.00" fill="#000000">(1/1)</text>
<text text-anchor="middle" x="194.2254" y="-88.0965" font-family="Times,serif" font-size="14.00" fill="#000000">p : Prop</text>
<text text-anchor="middle" x="194.2254" y="-73.0965" font-family="Times,serif" font-size="14.00" fill="#000000">hp : p</text>
<text text-anchor="middle" x="194.2254" y="-58.0965" font-family="Times,serif" font-size="14.00" fill="#000000">h : True</text>
<text text-anchor="middle" x="194.2254" y="-43.0965" font-family="Times,serif" font-size="14.00" fill="#000000">⊢ ∃ x, p</text>
<text text-anchor="middle" x="194.2254" y="-28.0965" font-family="Times,serif" font-size="14.00" fill="#000000">$0.60$</text>
</g>
<!-- 0&#45;&gt;2 -->
<g id="edge2" class="edge">
<title>0&#45;&gt;2</title>
<path fill="none" stroke="#000000" d="M215.5878,-231.3983C208.1536,-222.2941 201.5812,-212.2419 197.2254,-201.5929 190.4004,-184.9074 187.4776,-166.0209 186.7059,-147.8505"/>
<polygon fill="#000000" stroke="#000000" points="190.205,-147.7692 186.4874,-137.848 183.2067,-147.9221 190.205,-147.7692"/>
<text text-anchor="middle" x="222.2254" y="-182.8929" font-family="Times,serif" font-size="14.00" fill="#000000">intro h</text>
<text text-anchor="middle" x="222.2254" y="-167.8929" font-family="Times,serif" font-size="14.00" fill="#000000">$0.60$</text>
</g>
<!-- 3 -->
<g id="node4" class="node">
<title>3</title>
<ellipse fill="#add8e6" stroke="#000000" cx="365.2254" cy="-69.2965" rx="101.2327" ry="26.7407"/>
<text text-anchor="middle" x="365.2254" y="-73.0965" font-family="Times,serif" font-size="14.00" fill="#000000">not in proof mode</text>
<text text-anchor="middle" x="365.2254" y="-58.0965" font-family="Times,serif" font-size="14.00" fill="#000000">$&#45;100.00$</text>
</g>
<!-- 0&#45;&gt;3 -->
<g id="edge3" class="edge">
<title>0&#45;&gt;3</title>
<path fill="none" stroke="#ff0000" stroke-width="2" d="M260.3452,-219.6111C259.6021,-198.9223 261.6077,-175.9985 270.2254,-156.5929 280.1587,-134.225 298.9191,-115.048 317.1619,-100.4129"/>
<polygon fill="#ff0000" stroke="#ff0000" stroke-width="2" points="319.6855,-102.8871 325.4737,-94.0131 315.415,-97.3407 319.6855,-102.8871"/>
<text text-anchor="middle" x="306.7254" y="-190.3929" font-family="Times,serif" font-size="14.00" fill="#000000">simpa</text>
<text text-anchor="middle" x="306.7254" y="-175.3929" font-family="Times,serif" font-size="14.00" fill="#000000">done</text>
<text text-anchor="middle" x="306.7254" y="-160.3929" font-family="Times,serif" font-size="14.00" fill="#000000">$&#45;100.00$</text>
</g>
<!-- 0&#45;&gt;3 -->
<g id="edge4" class="edge">
<title>0&#45;&gt;3</title>
<path fill="none" stroke="#ff0000" stroke-width="2" d="M323.0531,-230.995C330.8443,-221.9374 337.9863,-212.0054 343.2254,-201.5929 358.212,-171.8075 363.3161,-133.9472 364.9044,-106.3666"/>
<polygon fill="#ff0000" stroke="#ff0000" stroke-width="2" points="368.4025,-106.4844 365.3543,-96.3376 361.4096,-106.1707 368.4025,-106.4844"/>
<text text-anchor="middle" x="395.7254" y="-190.3929" font-family="Times,serif" font-size="14.00" fill="#000000">simp [hp]</text>
<text text-anchor="middle" x="395.7254" y="-175.3929" font-family="Times,serif" font-size="14.00" fill="#000000">done</text>
<text text-anchor="middle" x="395.7254" y="-160.3929" font-family="Times,serif" font-size="14.00" fill="#000000">$&#45;100.00$</text>
</g>
<!-- 4 -->
<g id="node5" class="node">
<title>4</title>
<ellipse fill="none" stroke="#000000" cx="546.2254" cy="-69.2965" rx="62.4516" ry="69.0935"/>
<text text-anchor="middle" x="546.2254" y="-103.0965" font-family="Times,serif" font-size="14.00" fill="#000000">(1/1)</text>
<text text-anchor="middle" x="546.2254" y="-88.0965" font-family="Times,serif" font-size="14.00" fill="#000000">case intro</text>
<text text-anchor="middle" x="546.2254" y="-73.0965" font-family="Times,serif" font-size="14.00" fill="#000000">p : Prop</text>
<text text-anchor="middle" x="546.2254" y="-58.0965" font-family="Times,serif" font-size="14.00" fill="#000000">hp : p</text>
<text text-anchor="middle" x="546.2254" y="-43.0965" font-family="Times,serif" font-size="14.00" fill="#000000">⊢ p</text>
<text text-anchor="middle" x="546.2254" y="-28.0965" font-family="Times,serif" font-size="14.00" fill="#000000">$0.60$</text>
</g>
<!-- 0&#45;&gt;4 -->
<g id="edge5" class="edge">
<title>0&#45;&gt;4</title>
<path fill="none" stroke="#000000" d="M348.08,-250.6237C377.3885,-238.2149 409.8883,-221.7741 436.2254,-201.5929 461.2551,-182.4136 484.3472,-156.5554 502.8434,-132.7881"/>
<polygon fill="#000000" stroke="#000000" points="505.6418,-134.8904 508.936,-124.8207 500.0812,-130.6383 505.6418,-134.8904"/>
<text text-anchor="middle" x="505.2254" y="-182.8929" font-family="Times,serif" font-size="14.00" fill="#000000">simp</text>
<text text-anchor="middle" x="505.2254" y="-167.8929" font-family="Times,serif" font-size="14.00" fill="#000000">$0.60$</text>
</g>
</g>
</svg>
