<?xml version="1.0" encoding="UTF-8" standalone="no"?>
<!DOCTYPE svg PUBLIC "-//W3C//DTD SVG 1.1//EN"
 "http://www.w3.org/Graphics/SVG/1.1/DTD/svg11.dtd">
<!-- Generated by graphviz version 2.40.1 (0)
 -->
<!-- Title: %3 Pages: 1 -->
<svg width="838pt" height="366pt"
 viewBox="0.00 0.00 837.53 366.19" xmlns="http://www.w3.org/2000/svg" xmlns:xlink="http://www.w3.org/1999/xlink">
<g id="graph0" class="graph" transform="scale(1 1) rotate(0) translate(4 362.1859)">
<title>%3</title>
<polygon fill="#ffffff" stroke="transparent" points="-4,4 -4,-362.1859 833.5341,-362.1859 833.5341,4 -4,4"/>
<!-- 0 -->
<g id="node1" class="node">
<title>0</title>
<ellipse fill="none" stroke="#000000" cx="385.4178" cy="-288.8894" rx="71.3357" ry="69.0935"/>
<text text-anchor="middle" x="385.4178" y="-322.6894" font-family="Times,serif" font-size="14.00" fill="#000000">(1/1)</text>
<text text-anchor="middle" x="385.4178" y="-307.6894" font-family="Times,serif" font-size="14.00" fill="#000000">a b c : Nat</text>
<text text-anchor="middle" x="385.4178" y="-292.6894" font-family="Times,serif" font-size="14.00" fill="#000000">hab : a = b</text>
<text text-anchor="middle" x="385.4178" y="-277.6894" font-family="Times,serif" font-size="14.00" fill="#000000">hbc : b = c</text>
<text text-anchor="middle" x="385.4178" y="-262.6894" font-family="Times,serif" font-size="14.00" fill="#000000">⊢ a + 0 = c</text>
<text text-anchor="middle" x="385.4178" y="-247.6894" font-family="Times,serif" font-size="14.00" fill="#000000">$0.00$</text>
</g>
<!-- 1 -->
<g id="node2" class="node">
<title>1</title>
<ellipse fill="none" stroke="#000000" cx="71.4178" cy="-69.2965" rx="71.3357" ry="58.8803"/>
<text text-anchor="middle" x="71.4178" y="-95.5965" font-family="Times,serif" font-size="14.00" fill="#000000">(1/1)</text>
<text text-anchor="middle" x="71.4178" y="-80.5965" font-family="Times,serif" font-size="14.00" fill="#000000">b c : Nat</text>
<text text-anchor="middle" x="71.4178" y="-65.5965" font-family="Times,serif" font-size="14.00" fill="#000000">hbc : b = c</text>
<text text-anchor="middle" x="71.4178" y="-50.5965" font-family="Times,serif" font-size="14.00" fill="#000000">⊢ b + 0 = c</text>
<text text-anchor="middle" x="71.4178" y="-35.5965" font-family="Times,serif" font-size="14.00" fill="#000000">$0.75$</text>
</g>
<!-- 0&#45;&gt;1 -->
<g id="edge1" class="edge">
<title>0&#45;&gt;1</title>
<path fill="none" stroke="#000000" d="M320.7492,-258.5379C289.9983,-243.0445 253.2975,-222.9729 222.4178,-201.5929 188.1049,-177.836 152.8549,-147.359 125.0516,-121.6462"/>
<polygon fill="#000000" stroke="#000000" points="127.1163,-118.7862 117.4141,-114.5297 122.3443,-123.9075 127.1163,-118.7862"/>
<text text-anchor="middle" x="248.4178" y="-182.8929" font-family="Times,serif" font-size="14.00" fill="#000000">subst a</text>
<text text-anchor="middle" x="248.4178" y="-167.8929" font-family="Times,serif" font-size="14.00" fill="#000000">$0.75$</text>
</g>
<!-- 2 -->
<g id="node3" class="node">
<title>2</title>
<ellipse fill="none" stroke="#000000" cx="228.4178" cy="-69.2965" rx="67.3507" ry="69.0935"/>
<text text-anchor="middle" x="228.4178" y="-103.0965" font-family="Times,serif" font-size="14.00" fill="#000000">(1/1)</text>
<text text-anchor="middle" x="228.4178" y="-88.0965" font-family="Times,serif" font-size="14.00" fill="#000000">a b c : Nat</text>
<text text-anchor="middle" x="228.4178" y="-73.0965" font-family="Times,serif" font-size="14.00" fill="#000000">hab : a = b</text>
<text text-anchor="middle" x="228.4178" y="-58.0965" font-family="Times,serif" font-size="14.00" fill="#000000">hbc : b = c</text>
<text text-anchor="middle" x="228.4178" y="-43.0965" font-family="Times,serif" font-size="14.00" fill="#000000">⊢ b = c</text>
<text text-anchor="middle" x="228.4178" y="-28.0965" font-family="Times,serif" font-size="14.00" fill="#000000">$0.62$</text>
</g>
<!-- 0&#45;&gt;2 -->
<g id="edge2" class="edge">
<title>0&#45;&gt;2</title>
<path fill="none" stroke="#000000" d="M335.699,-238.303C325.207,-226.6447 314.5565,-214.0104 305.4178,-201.5929 291.1523,-182.2094 277.3436,-159.9837 265.4539,-139.3525"/>
<polygon fill="#000000" stroke="#000000" points="268.471,-137.5778 260.4801,-130.6211 262.3887,-141.0427 268.471,-137.5778"/>
<text text-anchor="middle" x="343.4178" y="-182.8929" font-family="Times,serif" font-size="14.00" fill="#000000">simp [hab]</text>
<text text-anchor="middle" x="343.4178" y="-167.8929" font-family="Times,serif" font-size="14.00" fill="#000000">$0.62$</text>
</g>
<!-- 3 -->
<g id="node4" class="node">
<title>3</title>
<ellipse fill="none" stroke="#000000" cx="385.4178" cy="-69.2965" rx="71.3357" ry="58.8803"/>
<text text-anchor="middle" x="385.4178" y="-95.5965" font-family="Times,serif" font-size="14.00" fill="#000000">(1/1)</text>
<text text-anchor="middle" x="385.4178" y="-80.5965" font-family="Times,serif" font-size="14.00" fill="#000000">a b : Nat</text>
<text text-anchor="middle" x="385.4178" y="-65.5965" font-family="Times,serif" font-size="14.00" fill="#000000">hab : a = b</text>
<text text-anchor="middle" x="385.4178" y="-50.5965" font-family="Times,serif" font-size="14.00" fill="#000000">⊢ a + 0 = b</text>
<text text-anchor="middle" x="385.4178" y="-35.5965" font-family="Times,serif" font-size="14.00" fill="#000000">$0.66$</text>
</g>
<!-- 0&#45;&gt;3 -->
<g id="edge3" class="edge">
<title>0&#45;&gt;3</title>
<path fill="none" stroke="#000000" d="M385.4178,-219.4088C385.4178,-193.4518 385.4178,-164.0039 385.4178,-138.1075"/>
<polygon fill="#000000" stroke="#000000" points="388.9179,-137.999 385.4178,-127.9991 381.9179,-137.9991 388.9179,-137.999"/>
<text text-anchor="middle" x="420.4178" y="-182.8929" font-family="Times,serif" font-size="14.00" fill="#000000">subst hbc</text>
<text text-anchor="middle" x="420.4178" y="-167.8929" font-family="Times,serif" font-size="14.00" fill="#000000">$0.66$</text>
</g>
<!-- 4 -->
<g id="node5" class="node">
<title>4</title>
<ellipse fill="none" stroke="#000000" cx="542.4178" cy="-69.2965" rx="67.3507" ry="69.0935"/>
<text text-anchor="middle" x="542.4178" y="-103.0965" font-family="Times,serif" font-size="14.00" fill="#000000">(1/1)</text>
<text text-anchor="middle" x="542.4178" y="-88.0965" font-family="Times,serif" font-size="14.00" fill="#000000">a b c : Nat</text>
<text text-anchor="middle" x="542.4178" y="-73.0965" font-family="Times,serif" font-size="14.00" fill="#000000">hab : a = b</text>
<text text-anchor="middle" x="542.4178" y="-58.0965" font-family="Times,serif" font-size="14.00" fill="#000000">hbc : b = c</text>
<text text-anchor="middle" x="542.4178" y="-43.0965" font-family="Times,serif" font-size="14.00" fill="#000000">⊢ a = c</text>
<text text-anchor="middle" x="542.4178" y="-28.0965" font-family="Times,serif" font-size="14.00" fill="#000000">$0.63$</text>
</g>
<!-- 0&#45;&gt;4 -->
<g id="edge4" class="edge">
<title>0&#45;&gt;4</title>
<path fill="none" stroke="#000000" d="M432.0575,-236.316C441.4206,-225.0932 450.97,-213.1372 459.4178,-201.5929 474.2648,-181.3036 489.2455,-158.3557 502.3152,-137.337"/>
<polygon fill="#000000" stroke="#000000" points="505.3284,-139.1189 507.6032,-128.7711 499.3719,-135.4418 505.3284,-139.1189"/>
<text text-anchor="middle" x="514.4178" y="-182.8929" font-family="Times,serif" font-size="14.00" fill="#000000">simp</text>
<text text-anchor="middle" x="514.4178" y="-167.8929" font-family="Times,serif" font-size="14.00" fill="#000000">$0.63$</text>
</g>
<!-- 5 -->
<g id="node6" class="node">
<title>5</title>
<ellipse fill="none" stroke="#000000" cx="728.4178" cy="-69.2965" rx="101.2327" ry="26.7407"/>
<text text-anchor="middle" x="728.4178" y="-73.0965" font-family="Times,serif" font-size="14.00" fill="#000000">not in proof mode</text>
<text text-anchor="middle" x="728.4178" y="-58.0965" font-family="Times,serif" font-size="14.00" fill="#000000">$&#45;100.00$</text>
</g>
<!-- 0&#45;&gt;5 -->
<g id="edge5" class="edge">
<title>0&#45;&gt;5</title>
<path fill="none" stroke="#000000" d="M448.671,-256.1142C477.9565,-240.3908 512.9363,-220.8217 543.4178,-201.5929 594.3359,-169.4721 650.2249,-128.6846 687.1021,-100.9476"/>
<polygon fill="#000000" stroke="#000000" points="689.2586,-103.7051 695.1326,-94.8877 685.0421,-98.1175 689.2586,-103.7051"/>
<text text-anchor="middle" x="644.4178" y="-190.3929" font-family="Times,serif" font-size="14.00" fill="#000000">simp [hbc]</text>
<text text-anchor="middle" x="644.4178" y="-175.3929" font-family="Times,serif" font-size="14.00" fill="#000000">done</text>
<text text-anchor="middle" x="644.4178" y="-160.3929" font-family="Times,serif" font-size="14.00" fill="#000000">$&#45;100.00$</text>
</g>
</g>
</svg>
