<?xml version="1.0" encoding="UTF-8" standalone="no"?>
<!DOCTYPE svg PUBLIC "-//W3C//DTD SVG 1.1//EN"
 "http://www.w3.org/Graphics/SVG/1.1/DTD/svg11.dtd">
<!-- Generated by graphviz version 2.40.1 (0)
 -->
<!-- Title: %3 Pages: 1 -->
<svg width="856pt" height="324pt"
 viewBox="0.00 0.00 855.73 323.76" xmlns="http://www.w3.org/2000/svg" xmlns:xlink="http://www.w3.org/1999/xlink">
<g id="graph0" class="graph" transform="scale(1 1) rotate(0) translate(4 319.7595)">
<title>%3</title>
<polygon fill="#ffffff" stroke="transparent" points="-4,4 -4,-319.7595 851.73,-319.7595 851.73,4 -4,4"/>
<!-- 0 -->
<g id="node1" class="node">
<title>0</title>
<ellipse fill="#add8e6" stroke="#000000" cx="392.6137" cy="-257.0696" rx="150.7276" ry="58.8803"/>
<text text-anchor="middle" x="392.6137" y="-283.3696" font-family="Times,serif" font-size="14.00" fill="#000000">(1/1)</text>
<text text-anchor="middle" x="392.6137" y="-268.3696" font-family="Times,serif" font-size="14.00" fill="#000000">σ : ℝ ≃ ℝ</text>
<text text-anchor="middle" x="392.6137" y="-253.3696" font-family="Times,serif" font-size="14.00" fill="#000000">h : σ.to_fun 2 = σ.inv_fun 2</text>
<text text-anchor="middle" x="392.6137" y="-238.3696" font-family="Times,serif" font-size="14.00" fill="#000000">⊢ σ.to_fun (σ.to_fun 2) = 2</text>
<text text-anchor="middle" x="392.6137" y="-223.3696" font-family="Times,serif" font-size="14.00" fill="#000000">$0.00$</text>
</g>
<!-- 1 -->
<g id="node2" class="node">
<title>1</title>
<ellipse fill="none" stroke="#000000" cx="150.6137" cy="-58.6899" rx="150.7276" ry="58.8803"/>
<text text-anchor="middle" x="150.6137" y="-84.9899" font-family="Times,serif" font-size="14.00" fill="#000000">(1/1)</text>
<text text-anchor="middle" x="150.6137" y="-69.9899" font-family="Times,serif" font-size="14.00" fill="#000000">σ : ℝ ≃ ℝ</text>
<text text-anchor="middle" x="150.6137" y="-54.9899" font-family="Times,serif" font-size="14.00" fill="#000000">h : σ.to_fun 2 = σ.inv_fun 2</text>
<text text-anchor="middle" x="150.6137" y="-39.9899" font-family="Times,serif" font-size="14.00" fill="#000000">⊢ ⇑σ (⇑σ 2) = 2</text>
<text text-anchor="middle" x="150.6137" y="-24.9899" font-family="Times,serif" font-size="14.00" fill="#000000">$0.61$</text>
</g>
<!-- 0&#45;&gt;1 -->
<g id="edge1" class="edge">
<title>0&#45;&gt;1</title>
<path fill="none" stroke="#000000" d="M317.9612,-205.8295C306.6217,-197.5409 295.186,-188.8834 284.6137,-180.3797 261.2854,-161.616 236.7626,-139.9651 215.1649,-120.1746"/>
<polygon fill="#000000" stroke="#000000" points="217.3818,-117.4581 207.6543,-113.2598 212.6405,-122.608 217.3818,-117.4581"/>
<text text-anchor="middle" x="309.6137" y="-161.6797" font-family="Times,serif" font-size="14.00" fill="#000000">dsimp</text>
<text text-anchor="middle" x="309.6137" y="-146.6797" font-family="Times,serif" font-size="14.00" fill="#000000">$0.71$</text>
</g>
<!-- 0&#45;&gt;1 -->
<g id="edge2" class="edge">
<title>0&#45;&gt;1</title>
<path fill="none" stroke="#000000" d="M374.8517,-198.6155C365.7435,-176.5058 352.6723,-152.5594 334.6137,-135.3797 323.8568,-125.1463 299.6415,-113.1579 272.1974,-101.7403"/>
<polygon fill="#000000" stroke="#000000" points="273.3622,-98.4355 262.7813,-97.8936 270.7149,-104.9156 273.3622,-98.4355"/>
<text text-anchor="middle" x="391.6137" y="-161.6797" font-family="Times,serif" font-size="14.00" fill="#000000">simp</text>
<text text-anchor="middle" x="391.6137" y="-146.6797" font-family="Times,serif" font-size="14.00" fill="#000000">$0.61$</text>
</g>
<!-- 2 -->
<g id="node3" class="node">
<title>2</title>
<ellipse fill="none" stroke="#000000" cx="473.6137" cy="-58.6899" rx="154.2987" ry="58.8803"/>
<text text-anchor="middle" x="473.6137" y="-84.9899" font-family="Times,serif" font-size="14.00" fill="#000000">(1/1)</text>
<text text-anchor="middle" x="473.6137" y="-69.9899" font-family="Times,serif" font-size="14.00" fill="#000000">σ : ℝ ≃ ℝ</text>
<text text-anchor="middle" x="473.6137" y="-54.9899" font-family="Times,serif" font-size="14.00" fill="#000000">h : σ.to_fun 2 = σ.inv_fun 2</text>
<text text-anchor="middle" x="473.6137" y="-39.9899" font-family="Times,serif" font-size="14.00" fill="#000000">⊢ σ.to_fun (σ.inv_fun 2) = 2</text>
<text text-anchor="middle" x="473.6137" y="-24.9899" font-family="Times,serif" font-size="14.00" fill="#000000">$0.61$</text>
</g>
<!-- 0&#45;&gt;2 -->
<g id="edge3" class="edge">
<title>0&#45;&gt;2</title>
<path fill="none" stroke="#000000" d="M416.3691,-198.8895C425.6415,-176.1802 436.3352,-149.9899 445.9518,-126.4376"/>
<polygon fill="#000000" stroke="#000000" points="449.3189,-127.4499 449.8588,-116.8689 442.8383,-124.8038 449.3189,-127.4499"/>
<text text-anchor="middle" x="465.6137" y="-161.6797" font-family="Times,serif" font-size="14.00" fill="#000000">rw [h]</text>
<text text-anchor="middle" x="465.6137" y="-146.6797" font-family="Times,serif" font-size="14.00" fill="#000000">$0.61$</text>
</g>
<!-- 3 -->
<g id="node4" class="node">
<title>3</title>
<ellipse fill="#add8e6" stroke="#000000" cx="746.6137" cy="-58.6899" rx="101.2327" ry="26.7407"/>
<text text-anchor="middle" x="746.6137" y="-62.4899" font-family="Times,serif" font-size="14.00" fill="#000000">not in proof mode</text>
<text text-anchor="middle" x="746.6137" y="-47.4899" font-family="Times,serif" font-size="14.00" fill="#000000">$&#45;100.00$</text>
</g>
<!-- 0&#45;&gt;3 -->
<g id="edge4" class="edge">
<title>0&#45;&gt;3</title>
<path fill="none" stroke="#ff0000" stroke-width="2" d="M478.7592,-208.7941C546.1693,-171.0179 637.7009,-119.724 694.4202,-87.9388"/>
<polygon fill="#ff0000" stroke="#ff0000" stroke-width="2" points="696.2028,-90.952 703.2154,-83.0101 692.7807,-84.8455 696.2028,-90.952"/>
<text text-anchor="middle" x="638.1137" y="-169.1797" font-family="Times,serif" font-size="14.00" fill="#000000">simp [h]</text>
<text text-anchor="middle" x="638.1137" y="-154.1797" font-family="Times,serif" font-size="14.00" fill="#000000">end</text>
<text text-anchor="middle" x="638.1137" y="-139.1797" font-family="Times,serif" font-size="14.00" fill="#000000">$&#45;100.00$</text>
</g>
</g>
</svg>
