<?xml version="1.0" encoding="UTF-8" standalone="no"?>
<!DOCTYPE svg PUBLIC "-//W3C//DTD SVG 1.1//EN"
 "http://www.w3.org/Graphics/SVG/1.1/DTD/svg11.dtd">
<!-- Generated by graphviz version 2.40.1 (0)
 -->
<!-- Title: %3 Pages: 1 -->
<svg width="1029pt" height="239pt"
 viewBox="0.00 0.00 1029.32 238.91" xmlns="http://www.w3.org/2000/svg" xmlns:xlink="http://www.w3.org/1999/xlink">
<g id="graph0" class="graph" transform="scale(1 1) rotate(0) translate(4 234.9066)">
<title>%3</title>
<polygon fill="#ffffff" stroke="transparent" points="-4,4 -4,-234.9066 1025.3169,-234.9066 1025.3169,4 -4,4"/>
<!-- 0 -->
<g id="node1" class="node">
<title>0</title>
<ellipse fill="none" stroke="#000000" cx="286.3169" cy="-182.8234" rx="205.122" ry="48.1667"/>
<text text-anchor="middle" x="286.3169" y="-201.6234" font-family="Times,serif" font-size="14.00" fill="#000000">(1/1)</text>
<text text-anchor="middle" x="286.3169" y="-186.6234" font-family="Times,serif" font-size="14.00" fill="#000000">xs ys zs : List Nat</text>
<text text-anchor="middle" x="286.3169" y="-171.6234" font-family="Times,serif" font-size="14.00" fill="#000000">⊢ xs ++ ys ++ zs = xs ++ (ys ++ zs)</text>
<text text-anchor="middle" x="286.3169" y="-156.6234" font-family="Times,serif" font-size="14.00" fill="#000000">$0.00$</text>
</g>
<!-- 1 -->
<g id="node2" class="node">
<title>1</title>
<ellipse fill="none" stroke="#000000" cx="286.3169" cy="-26.8701" rx="101.2327" ry="26.7407"/>
<text text-anchor="middle" x="286.3169" y="-30.6701" font-family="Times,serif" font-size="14.00" fill="#000000">not in proof mode</text>
<text text-anchor="middle" x="286.3169" y="-15.6701" font-family="Times,serif" font-size="14.00" fill="#000000">$&#45;100.00$</text>
</g>
<!-- 0&#45;&gt;1 -->
<g id="edge1" class="edge">
<title>0&#45;&gt;1</title>
<path fill="none" stroke="#000000" d="M102.4848,-161.5137C30.5989,-145.6525 -26.2595,-118.3522 13.3169,-71.7401 24.4882,-58.5828 109.1809,-46.0549 181.3113,-37.5976"/>
<polygon fill="#000000" stroke="#000000" points="181.8651,-41.0569 191.3969,-36.4316 181.0611,-34.1033 181.8651,-41.0569"/>
<text text-anchor="middle" x="90.8169" y="-105.5401" font-family="Times,serif" font-size="14.00" fill="#000000">simp [Nat.add_assoc]</text>
<text text-anchor="middle" x="90.8169" y="-90.5401" font-family="Times,serif" font-size="14.00" fill="#000000">done</text>
<text text-anchor="middle" x="90.8169" y="-75.5401" font-family="Times,serif" font-size="14.00" fill="#000000">$&#45;100.00$</text>
</g>
<!-- 0&#45;&gt;1 -->
<g id="edge2" class="edge">
<title>0&#45;&gt;1</title>
<path fill="none" stroke="#000000" d="M207.1942,-138.0448C200.9039,-131.6688 195.4109,-124.575 191.3169,-116.7401 182.0545,-99.0142 180.6125,-88.6344 191.3169,-71.7401 196.0883,-64.2096 202.5006,-57.919 209.7532,-52.6694"/>
<polygon fill="#000000" stroke="#000000" points="212.0899,-55.3278 218.6052,-46.973 208.3019,-49.4413 212.0899,-55.3278"/>
<text text-anchor="middle" x="227.8169" y="-105.5401" font-family="Times,serif" font-size="14.00" fill="#000000">simp</text>
<text text-anchor="middle" x="227.8169" y="-90.5401" font-family="Times,serif" font-size="14.00" fill="#000000">done</text>
<text text-anchor="middle" x="227.8169" y="-75.5401" font-family="Times,serif" font-size="14.00" fill="#000000">$&#45;100.00$</text>
</g>
<!-- 0&#45;&gt;1 -->
<g id="edge3" class="edge">
<title>0&#45;&gt;1</title>
<path fill="none" stroke="#000000" d="M286.3169,-134.3336C286.3169,-111.6921 286.3169,-85.1608 286.3169,-64.1253"/>
<polygon fill="#000000" stroke="#000000" points="289.817,-63.9793 286.3169,-53.9794 282.817,-63.9794 289.817,-63.9793"/>
<text text-anchor="middle" x="322.8169" y="-105.5401" font-family="Times,serif" font-size="14.00" fill="#000000">simp [*]</text>
<text text-anchor="middle" x="322.8169" y="-90.5401" font-family="Times,serif" font-size="14.00" fill="#000000">done</text>
<text text-anchor="middle" x="322.8169" y="-75.5401" font-family="Times,serif" font-size="14.00" fill="#000000">$&#45;100.00$</text>
</g>
<!-- 0&#45;&gt;1 -->
<g id="edge4" class="edge">
<title>0&#45;&gt;1</title>
<path fill="none" stroke="#000000" d="M347.8066,-136.5656C352.8096,-130.4437 357.1498,-123.8145 360.3169,-116.7401 368.489,-98.4859 370.1303,-89.167 360.3169,-71.7401 356.9983,-65.8469 352.5587,-60.6388 347.4949,-56.0572"/>
<polygon fill="#000000" stroke="#000000" points="349.6755,-53.3194 339.6872,-49.7859 345.2919,-58.7769 349.6755,-53.3194"/>
<text text-anchor="middle" x="514.3169" y="-105.5401" font-family="Times,serif" font-size="14.00" fill="#000000">induction xs generalizing ys &lt;;&gt; simp [*]</text>
<text text-anchor="middle" x="514.3169" y="-90.5401" font-family="Times,serif" font-size="14.00" fill="#000000">done</text>
<text text-anchor="middle" x="514.3169" y="-75.5401" font-family="Times,serif" font-size="14.00" fill="#000000">$&#45;100.00$</text>
</g>
<!-- 0&#45;&gt;1 -->
<g id="edge5" class="edge">
<title>0&#45;&gt;1</title>
<path fill="none" stroke="#000000" d="M485.4665,-171.2543C564.2187,-162.142 641.8291,-145.854 666.3169,-116.7401 679.1906,-101.4344 679.604,-86.6885 666.3169,-71.7401 648.4937,-51.6885 501.8569,-39.0764 396.0691,-32.4989"/>
<polygon fill="#000000" stroke="#000000" points="396.1597,-28.998 385.9648,-31.8812 395.7325,-35.985 396.1597,-28.998"/>
<text text-anchor="middle" x="848.3169" y="-105.5401" font-family="Times,serif" font-size="14.00" fill="#000000">induction xs generalizing ys &lt;;&gt; simp [*, *, *, *]</text>
<text text-anchor="middle" x="848.3169" y="-90.5401" font-family="Times,serif" font-size="14.00" fill="#000000">done</text>
<text text-anchor="middle" x="848.3169" y="-75.5401" font-family="Times,serif" font-size="14.00" fill="#000000">$&#45;100.00$</text>
</g>
</g>
</svg>
