<?xml version="1.0" encoding="UTF-8" standalone="no"?>
<!DOCTYPE svg PUBLIC "-//W3C//DTD SVG 1.1//EN"
 "http://www.w3.org/Graphics/SVG/1.1/DTD/svg11.dtd">
<!-- Generated by graphviz version 2.40.1 (0)
 -->
<!-- Title: %3 Pages: 1 -->
<svg width="1062pt" height="351pt"
 viewBox="0.00 0.00 1061.97 351.19" xmlns="http://www.w3.org/2000/svg" xmlns:xlink="http://www.w3.org/1999/xlink">
<g id="graph0" class="graph" transform="scale(1 1) rotate(0) translate(4 347.1859)">
<title>%3</title>
<polygon fill="#ffffff" stroke="transparent" points="-4,4 -4,-347.1859 1057.9655,-347.1859 1057.9655,4 -4,4"/>
<!-- 0 -->
<g id="node1" class="node">
<title>0</title>
<ellipse fill="none" stroke="#000000" cx="535.9655" cy="-273.8894" rx="115.931" ry="69.0935"/>
<text text-anchor="middle" x="535.9655" y="-307.6894" font-family="Times,serif" font-size="14.00" fill="#000000">(1/1)</text>
<text text-anchor="middle" x="535.9655" y="-292.6894" font-family="Times,serif" font-size="14.00" fill="#000000">σ : ℝ ≃ ℝ</text>
<text text-anchor="middle" x="535.9655" y="-277.6894" font-family="Times,serif" font-size="14.00" fill="#000000">h₀ : σ.inv_fun 2 = 10</text>
<text text-anchor="middle" x="535.9655" y="-262.6894" font-family="Times,serif" font-size="14.00" fill="#000000">h₁ : σ.inv_fun 10 = 1</text>
<text text-anchor="middle" x="535.9655" y="-247.6894" font-family="Times,serif" font-size="14.00" fill="#000000">h₂ : σ.inv_fun ...</text>
<text text-anchor="middle" x="535.9655" y="-232.6894" font-family="Times,serif" font-size="14.00" fill="#000000">$0.00$</text>
</g>
<!-- 1 -->
<g id="node2" class="node">
<title>1</title>
<ellipse fill="none" stroke="#000000" cx="115.9655" cy="-69.2965" rx="115.931" ry="69.0935"/>
<text text-anchor="middle" x="115.9655" y="-103.0965" font-family="Times,serif" font-size="14.00" fill="#000000">(1/1)</text>
<text text-anchor="middle" x="115.9655" y="-88.0965" font-family="Times,serif" font-size="14.00" fill="#000000">σ : ℝ ≃ ℝ</text>
<text text-anchor="middle" x="115.9655" y="-73.0965" font-family="Times,serif" font-size="14.00" fill="#000000">h₀ : σ.inv_fun 2 = 10</text>
<text text-anchor="middle" x="115.9655" y="-58.0965" font-family="Times,serif" font-size="14.00" fill="#000000">h₁ : σ.inv_fun 10 = 1</text>
<text text-anchor="middle" x="115.9655" y="-43.0965" font-family="Times,serif" font-size="14.00" fill="#000000">h₂ : σ.inv_fun ...</text>
<text text-anchor="middle" x="115.9655" y="-28.0965" font-family="Times,serif" font-size="14.00" fill="#000000">$0.50$</text>
</g>
<!-- 0&#45;&gt;1 -->
<g id="edge1" class="edge">
<title>0&#45;&gt;1</title>
<path fill="none" stroke="#000000" d="M426.7797,-250.0532C373.8583,-235.9321 310.5384,-215.1323 257.9655,-186.5929 232.1989,-172.6054 206.6737,-153.5907 184.5225,-134.9442"/>
<polygon fill="#000000" stroke="#000000" points="186.7091,-132.209 176.8331,-128.373 182.1614,-137.5305 186.7091,-132.209"/>
<text text-anchor="middle" x="310.9655" y="-175.3929" font-family="Times,serif" font-size="14.00" fill="#000000">simp [← h₀, h₂]</text>
<text text-anchor="middle" x="310.9655" y="-160.3929" font-family="Times,serif" font-size="14.00" fill="#000000">$0.50$</text>
</g>
<!-- 2 -->
<g id="node3" class="node">
<title>2</title>
<ellipse fill="none" stroke="#000000" cx="365.9655" cy="-69.2965" rx="115.931" ry="69.0935"/>
<text text-anchor="middle" x="365.9655" y="-103.0965" font-family="Times,serif" font-size="14.00" fill="#000000">(1/1)</text>
<text text-anchor="middle" x="365.9655" y="-88.0965" font-family="Times,serif" font-size="14.00" fill="#000000">σ : ℝ ≃ ℝ</text>
<text text-anchor="middle" x="365.9655" y="-73.0965" font-family="Times,serif" font-size="14.00" fill="#000000">h₀ : σ.inv_fun 2 = 10</text>
<text text-anchor="middle" x="365.9655" y="-58.0965" font-family="Times,serif" font-size="14.00" fill="#000000">h₁ : σ.inv_fun 10 = 1</text>
<text text-anchor="middle" x="365.9655" y="-43.0965" font-family="Times,serif" font-size="14.00" fill="#000000">h₂ : σ.inv_fun ...</text>
<text text-anchor="middle" x="365.9655" y="-28.0965" font-family="Times,serif" font-size="14.00" fill="#000000">$0.51$</text>
</g>
<!-- 0&#45;&gt;2 -->
<g id="edge2" class="edge">
<title>0&#45;&gt;2</title>
<path fill="none" stroke="#000000" d="M437.3433,-237.0385C415.2099,-224.3015 394.1182,-207.7438 379.9655,-186.5929 372.513,-175.4553 367.9528,-162.3613 365.294,-149.0353"/>
<polygon fill="#000000" stroke="#000000" points="368.6918,-148.1274 363.6151,-138.8281 361.7846,-149.2636 368.6918,-148.1274"/>
<text text-anchor="middle" x="453.4655" y="-175.3929" font-family="Times,serif" font-size="14.00" fill="#000000">rw [← h₁, ← h₂, ← h₁]</text>
<text text-anchor="middle" x="453.4655" y="-160.3929" font-family="Times,serif" font-size="14.00" fill="#000000">$0.51$</text>
</g>
<!-- 3 -->
<g id="node4" class="node">
<title>3</title>
<ellipse fill="none" stroke="#000000" cx="615.9655" cy="-69.2965" rx="115.931" ry="69.0935"/>
<text text-anchor="middle" x="615.9655" y="-103.0965" font-family="Times,serif" font-size="14.00" fill="#000000">(1/1)</text>
<text text-anchor="middle" x="615.9655" y="-88.0965" font-family="Times,serif" font-size="14.00" fill="#000000">σ : ℝ ≃ ℝ</text>
<text text-anchor="middle" x="615.9655" y="-73.0965" font-family="Times,serif" font-size="14.00" fill="#000000">h₀ : σ.inv_fun 2 = 10</text>
<text text-anchor="middle" x="615.9655" y="-58.0965" font-family="Times,serif" font-size="14.00" fill="#000000">h₁ : σ.inv_fun 10 = 1</text>
<text text-anchor="middle" x="615.9655" y="-43.0965" font-family="Times,serif" font-size="14.00" fill="#000000">h₂ : σ.inv_fun ...</text>
<text text-anchor="middle" x="615.9655" y="-28.0965" font-family="Times,serif" font-size="14.00" fill="#000000">$0.39$</text>
</g>
<!-- 0&#45;&gt;3 -->
<g id="edge3" class="edge">
<title>0&#45;&gt;3</title>
<path fill="none" stroke="#000000" d="M528.3514,-204.7033C528.7832,-188.488 531.1172,-171.5804 536.9655,-156.5929 539.6985,-149.5891 543.2769,-142.7958 547.4014,-136.2971"/>
<polygon fill="#000000" stroke="#000000" points="550.5765,-137.8548 553.3362,-127.6257 544.7999,-133.9012 550.5765,-137.8548"/>
<text text-anchor="middle" x="581.4655" y="-175.3929" font-family="Times,serif" font-size="14.00" fill="#000000">simp [h₁, h₂]</text>
<text text-anchor="middle" x="581.4655" y="-160.3929" font-family="Times,serif" font-size="14.00" fill="#000000">$0.41$</text>
</g>
<!-- 0&#45;&gt;3 -->
<g id="edge4" class="edge">
<title>0&#45;&gt;3</title>
<path fill="none" stroke="#000000" d="M605.8013,-218.3631C613.9861,-208.6855 621.1301,-198.0195 625.9655,-186.5929 631.0432,-174.594 632.9718,-161.2972 633.0049,-148.093"/>
<polygon fill="#000000" stroke="#000000" points="636.5012,-147.9191 632.6814,-138.0368 629.5048,-148.1442 636.5012,-147.9191"/>
<text text-anchor="middle" x="665.4655" y="-175.3929" font-family="Times,serif" font-size="14.00" fill="#000000">simp [h₁]</text>
<text text-anchor="middle" x="665.4655" y="-160.3929" font-family="Times,serif" font-size="14.00" fill="#000000">$0.39$</text>
</g>
<!-- 4 -->
<g id="node5" class="node">
<title>4</title>
<ellipse fill="none" stroke="#000000" cx="865.9655" cy="-69.2965" rx="115.931" ry="69.0935"/>
<text text-anchor="middle" x="865.9655" y="-103.0965" font-family="Times,serif" font-size="14.00" fill="#000000">(1/1)</text>
<text text-anchor="middle" x="865.9655" y="-88.0965" font-family="Times,serif" font-size="14.00" fill="#000000">σ : ℝ ≃ ℝ</text>
<text text-anchor="middle" x="865.9655" y="-73.0965" font-family="Times,serif" font-size="14.00" fill="#000000">h₀ : σ.inv_fun 2 = 10</text>
<text text-anchor="middle" x="865.9655" y="-58.0965" font-family="Times,serif" font-size="14.00" fill="#000000">h₁ : σ.inv_fun 10 = 1</text>
<text text-anchor="middle" x="865.9655" y="-43.0965" font-family="Times,serif" font-size="14.00" fill="#000000">h₂ : σ.inv_fun ...</text>
<text text-anchor="middle" x="865.9655" y="-28.0965" font-family="Times,serif" font-size="14.00" fill="#000000">$0.63$</text>
</g>
<!-- 0&#45;&gt;4 -->
<g id="edge5" class="edge">
<title>0&#45;&gt;4</title>
<path fill="none" stroke="#000000" d="M625.5231,-229.6507C650.6468,-216.4754 677.7133,-201.5458 701.9655,-186.5929 729.928,-169.3525 759.4277,-148.9898 785.5802,-130.1107"/>
<polygon fill="#000000" stroke="#000000" points="787.9094,-132.745 793.9474,-124.0391 783.7982,-127.0794 787.9094,-132.745"/>
<text text-anchor="middle" x="898.9655" y="-175.3929" font-family="Times,serif" font-size="14.00" fill="#000000">have h₂1 : σ.inv_fun 1 = 1 := by norm_num</text>
<text text-anchor="middle" x="898.9655" y="-160.3929" font-family="Times,serif" font-size="14.00" fill="#000000">$0.63$</text>
</g>
</g>
</svg>
