<?xml version="1.0" encoding="UTF-8" standalone="no"?>
<!DOCTYPE svg PUBLIC "-//W3C//DTD SVG 1.1//EN"
 "http://www.w3.org/Graphics/SVG/1.1/DTD/svg11.dtd">
<!-- Generated by graphviz version 2.40.1 (0)
 -->
<!-- Title: %3 Pages: 1 -->
<svg width="1151pt" height="303pt"
 viewBox="0.00 0.00 1151.30 302.55" xmlns="http://www.w3.org/2000/svg" xmlns:xlink="http://www.w3.org/1999/xlink">
<g id="graph0" class="graph" transform="scale(1 1) rotate(0) translate(4 298.5462)">
<title>%3</title>
<polygon fill="#ffffff" stroke="transparent" points="-4,4 -4,-298.5462 1147.304,-298.5462 1147.304,4 -4,4"/>
<!-- 0 -->
<g id="node1" class="node">
<title>0</title>
<ellipse fill="#add8e6" stroke="#000000" cx="620.907" cy="-246.463" rx="89.6056" ry="48.1667"/>
<text text-anchor="middle" x="620.907" y="-265.263" font-family="Times,serif" font-size="14.00" fill="#000000">(1/1)</text>
<text text-anchor="middle" x="620.907" y="-250.263" font-family="Times,serif" font-size="14.00" fill="#000000">n : Nat</text>
<text text-anchor="middle" x="620.907" y="-235.263" font-family="Times,serif" font-size="14.00" fill="#000000">⊢ True → n = n</text>
<text text-anchor="middle" x="620.907" y="-220.263" font-family="Times,serif" font-size="14.00" fill="#000000">$0.00$</text>
</g>
<!-- 1 -->
<g id="node2" class="node">
<title>1</title>
<ellipse fill="#add8e6" stroke="#000000" cx="497.907" cy="-58.6899" rx="101.2327" ry="26.7407"/>
<text text-anchor="middle" x="497.907" y="-62.4899" font-family="Times,serif" font-size="14.00" fill="#000000">not in proof mode</text>
<text text-anchor="middle" x="497.907" y="-47.4899" font-family="Times,serif" font-size="14.00" fill="#000000">$&#45;100.00$</text>
</g>
<!-- 0&#45;&gt;1 -->
<g id="edge1" class="edge">
<title>0&#45;&gt;1</title>
<path fill="none" stroke="#ff0000" stroke-width="2" d="M531.2225,-243.2571C369.8501,-236.5597 44.0736,-218.4409 9.907,-180.3797 -3.4532,-165.4967 -3.0911,-150.58 9.907,-135.3797 34.4274,-106.705 255.8188,-81.2155 391.8417,-68.0811"/>
<polygon fill="#ff0000" stroke="#ff0000" stroke-width="2" points="392.2683,-71.5563 401.8889,-67.1184 391.6006,-64.5882 392.2683,-71.5563"/>
<text text-anchor="middle" x="146.907" y="-169.1797" font-family="Times,serif" font-size="14.00" fill="#000000">simpa using n.eq_one_of_nat_eq_nat _</text>
<text text-anchor="middle" x="146.907" y="-154.1797" font-family="Times,serif" font-size="14.00" fill="#000000">done</text>
<text text-anchor="middle" x="146.907" y="-139.1797" font-family="Times,serif" font-size="14.00" fill="#000000">$&#45;100.00$</text>
</g>
<!-- 0&#45;&gt;1 -->
<g id="edge2" class="edge">
<title>0&#45;&gt;1</title>
<path fill="none" stroke="#ff0000" stroke-width="2" d="M531.8463,-240.0022C449.1822,-231.9331 334.8129,-214.7699 306.907,-180.3797 269.0081,-133.6745 344.6062,-99.3346 411.5908,-79.2596"/>
<polygon fill="#ff0000" stroke="#ff0000" stroke-width="2" points="412.7757,-82.5599 421.3968,-76.4014 410.8169,-75.8396 412.7757,-82.5599"/>
<text text-anchor="middle" x="343.407" y="-169.1797" font-family="Times,serif" font-size="14.00" fill="#000000">simp_all</text>
<text text-anchor="middle" x="343.407" y="-154.1797" font-family="Times,serif" font-size="14.00" fill="#000000">done</text>
<text text-anchor="middle" x="343.407" y="-139.1797" font-family="Times,serif" font-size="14.00" fill="#000000">$&#45;100.00$</text>
</g>
<!-- 0&#45;&gt;1 -->
<g id="edge3" class="edge">
<title>0&#45;&gt;1</title>
<path fill="none" stroke="#ff0000" stroke-width="2" d="M535.601,-231.3793C481.6932,-219.9136 419.2235,-202.3755 402.907,-180.3797 379.5748,-148.9263 413.8262,-113.7342 447.5283,-89.3182"/>
<polygon fill="#ff0000" stroke="#ff0000" stroke-width="2" points="449.8654,-91.9546 456.0495,-83.3518 445.8504,-86.2205 449.8654,-91.9546"/>
<text text-anchor="middle" x="439.407" y="-169.1797" font-family="Times,serif" font-size="14.00" fill="#000000">simp</text>
<text text-anchor="middle" x="439.407" y="-154.1797" font-family="Times,serif" font-size="14.00" fill="#000000">done</text>
<text text-anchor="middle" x="439.407" y="-139.1797" font-family="Times,serif" font-size="14.00" fill="#000000">$&#45;100.00$</text>
</g>
<!-- 0&#45;&gt;1 -->
<g id="edge4" class="edge">
<title>0&#45;&gt;1</title>
<path fill="none" stroke="#ff0000" stroke-width="2" d="M544.4462,-220.8865C526.4505,-211.108 509.4566,-197.9276 498.907,-180.3797 483.7901,-155.2349 484.7793,-121.5622 488.8492,-96.0125"/>
<polygon fill="#ff0000" stroke="#ff0000" stroke-width="2" points="492.3319,-96.4222 490.6728,-85.958 485.4443,-95.1729 492.3319,-96.4222"/>
<text text-anchor="middle" x="610.407" y="-169.1797" font-family="Times,serif" font-size="14.00" fill="#000000">simp [Nat.ne_zero_iff_eq_zero]</text>
<text text-anchor="middle" x="610.407" y="-154.1797" font-family="Times,serif" font-size="14.00" fill="#000000">done</text>
<text text-anchor="middle" x="610.407" y="-139.1797" font-family="Times,serif" font-size="14.00" fill="#000000">$&#45;100.00$</text>
</g>
<!-- 0&#45;&gt;1 -->
<g id="edge5" class="edge">
<title>0&#45;&gt;1</title>
<path fill="none" stroke="#ff0000" stroke-width="2" d="M689.2526,-215.1711C702.3531,-205.9035 714.332,-194.3883 721.907,-180.3797 731.42,-162.7871 733.5353,-151.6518 721.907,-135.3797 705.477,-112.3884 642.0798,-91.9716 586.9059,-77.9959"/>
<polygon fill="#ff0000" stroke="#ff0000" stroke-width="2" points="587.6178,-74.5664 577.0687,-75.5491 585.9281,-81.3595 587.6178,-74.5664"/>
<text text-anchor="middle" x="766.407" y="-169.1797" font-family="Times,serif" font-size="14.00" fill="#000000">cases n</text>
<text text-anchor="middle" x="766.407" y="-154.1797" font-family="Times,serif" font-size="14.00" fill="#000000">done</text>
<text text-anchor="middle" x="766.407" y="-139.1797" font-family="Times,serif" font-size="14.00" fill="#000000">$&#45;100.00$</text>
</g>
<!-- 0&#45;&gt;1 -->
<g id="edge6" class="edge">
<title>0&#45;&gt;1</title>
<path fill="none" stroke="#ff0000" stroke-width="2" d="M704.5427,-228.914C769.2376,-211.4322 842.3026,-180.634 806.907,-135.3797 781.5167,-102.9176 680.8579,-82.2523 601.235,-70.6552"/>
<polygon fill="#ff0000" stroke="#ff0000" stroke-width="2" points="601.5355,-67.1628 591.1416,-69.2168 600.5478,-74.0927 601.5355,-67.1628"/>
<text text-anchor="middle" x="853.407" y="-169.1797" font-family="Times,serif" font-size="14.00" fill="#000000">intro h</text>
<text text-anchor="middle" x="853.407" y="-154.1797" font-family="Times,serif" font-size="14.00" fill="#000000">done</text>
<text text-anchor="middle" x="853.407" y="-139.1797" font-family="Times,serif" font-size="14.00" fill="#000000">$&#45;100.00$</text>
</g>
<!-- 0&#45;&gt;1 -->
<g id="edge7" class="edge">
<title>0&#45;&gt;1</title>
<path fill="none" stroke="#ff0000" stroke-width="2" d="M710.0629,-240.1342C809.4845,-229.6869 949.5054,-202.7784 893.907,-135.3797 858.2206,-92.1192 712.179,-72.9713 607.8388,-64.6976"/>
<polygon fill="#ff0000" stroke="#ff0000" stroke-width="2" points="607.7987,-61.1843 597.5596,-63.9068 607.2616,-68.1637 607.7987,-61.1843"/>
<text text-anchor="middle" x="968.407" y="-169.1797" font-family="Times,serif" font-size="14.00" fill="#000000">simp [Nat.not_le]</text>
<text text-anchor="middle" x="968.407" y="-154.1797" font-family="Times,serif" font-size="14.00" fill="#000000">done</text>
<text text-anchor="middle" x="968.407" y="-139.1797" font-family="Times,serif" font-size="14.00" fill="#000000">$&#45;100.00$</text>
</g>
<!-- 2 -->
<g id="node3" class="node">
<title>2</title>
<ellipse fill="none" stroke="#000000" cx="1083.907" cy="-58.6899" rx="59.2941" ry="58.8803"/>
<text text-anchor="middle" x="1083.907" y="-84.9899" font-family="Times,serif" font-size="14.00" fill="#000000">(1/1)</text>
<text text-anchor="middle" x="1083.907" y="-69.9899" font-family="Times,serif" font-size="14.00" fill="#000000">n : Nat</text>
<text text-anchor="middle" x="1083.907" y="-54.9899" font-family="Times,serif" font-size="14.00" fill="#000000">a✝ : True</text>
<text text-anchor="middle" x="1083.907" y="-39.9899" font-family="Times,serif" font-size="14.00" fill="#000000">⊢ n = n</text>
<text text-anchor="middle" x="1083.907" y="-24.9899" font-family="Times,serif" font-size="14.00" fill="#000000">$0.75$</text>
</g>
<!-- 0&#45;&gt;2 -->
<g id="edge8" class="edge">
<title>0&#45;&gt;2</title>
<path fill="none" stroke="#000000" d="M710.4978,-242.3347C816.891,-235.725 986.1083,-219.2908 1034.907,-180.3797 1051.8937,-166.8349 1063.0246,-146.4876 1070.3053,-126.2882"/>
<polygon fill="#000000" stroke="#000000" points="1073.6494,-127.3235 1073.4827,-116.7299 1067.0068,-125.1153 1073.6494,-127.3235"/>
<text text-anchor="middle" x="1089.907" y="-161.6797" font-family="Times,serif" font-size="14.00" fill="#000000">intro</text>
<text text-anchor="middle" x="1089.907" y="-146.6797" font-family="Times,serif" font-size="14.00" fill="#000000">$0.75$</text>
</g>
</g>
</svg>
