<?xml version="1.0" encoding="UTF-8" standalone="no"?>
<!DOCTYPE svg PUBLIC "-//W3C//DTD SVG 1.1//EN"
 "http://www.w3.org/Graphics/SVG/1.1/DTD/svg11.dtd">
<!-- Generated by graphviz version 2.40.1 (0)
 -->
<!-- Title: %3 Pages: 1 -->
<svg width="1120pt" height="281pt"
 viewBox="0.00 0.00 1120.29 281.33" xmlns="http://www.w3.org/2000/svg" xmlns:xlink="http://www.w3.org/1999/xlink">
<g id="graph0" class="graph" transform="scale(1 1) rotate(0) translate(4 277.333)">
<title>%3</title>
<polygon fill="#ffffff" stroke="transparent" points="-4,4 -4,-277.333 1116.2878,-277.333 1116.2878,4 -4,4"/>
<!-- 0 -->
<g id="node1" class="node">
<title>0</title>
<ellipse fill="#add8e6" stroke="#000000" cx="404.2878" cy="-225.2498" rx="52.1524" ry="48.1667"/>
<text text-anchor="middle" x="404.2878" y="-244.0498" font-family="Times,serif" font-size="14.00" fill="#000000">(1/1)</text>
<text text-anchor="middle" x="404.2878" y="-229.0498" font-family="Times,serif" font-size="14.00" fill="#000000">u : Unit</text>
<text text-anchor="middle" x="404.2878" y="-214.0498" font-family="Times,serif" font-size="14.00" fill="#000000">⊢ u = ()</text>
<text text-anchor="middle" x="404.2878" y="-199.0498" font-family="Times,serif" font-size="14.00" fill="#000000">$0.00$</text>
</g>
<!-- 1 -->
<g id="node2" class="node">
<title>1</title>
<ellipse fill="none" stroke="#000000" cx="98.2878" cy="-48.0833" rx="98.0761" ry="48.1667"/>
<text text-anchor="middle" x="98.2878" y="-66.8833" font-family="Times,serif" font-size="14.00" fill="#000000">(1/1)</text>
<text text-anchor="middle" x="98.2878" y="-51.8833" font-family="Times,serif" font-size="14.00" fill="#000000">case unit</text>
<text text-anchor="middle" x="98.2878" y="-36.8833" font-family="Times,serif" font-size="14.00" fill="#000000">⊢ PUnit.unit = ()</text>
<text text-anchor="middle" x="98.2878" y="-21.8833" font-family="Times,serif" font-size="14.00" fill="#000000">$0.47$</text>
</g>
<!-- 0&#45;&gt;1 -->
<g id="edge1" class="edge">
<title>0&#45;&gt;1</title>
<path fill="none" stroke="#000000" d="M351.8784,-223.0237C265.1058,-218.1175 97.5357,-203.0646 61.2878,-159.1665 47.9919,-143.0645 51.3254,-121.9974 60.0828,-102.5432"/>
<polygon fill="#000000" stroke="#000000" points="63.2871,-103.9599 64.6072,-93.4477 57.0197,-100.8423 63.2871,-103.9599"/>
<text text-anchor="middle" x="88.2878" y="-140.4665" font-family="Times,serif" font-size="14.00" fill="#000000">cases u</text>
<text text-anchor="middle" x="88.2878" y="-125.4665" font-family="Times,serif" font-size="14.00" fill="#000000">$0.47$</text>
</g>
<!-- 0&#45;&gt;1 -->
<g id="edge2" class="edge">
<title>0&#45;&gt;1</title>
<path fill="none" stroke="#000000" d="M352.2803,-218.2301C284.0897,-208.056 169.4585,-187.3058 138.2878,-159.1665 129.6344,-151.3546 120.7736,-128.5533 113.5983,-105.6255"/>
<polygon fill="#000000" stroke="#000000" points="116.8813,-104.3904 110.6319,-95.8349 110.182,-106.4202 116.8813,-104.3904"/>
<text text-anchor="middle" x="212.2878" y="-140.4665" font-family="Times,serif" font-size="14.00" fill="#000000">obtain ⟨a, b, hb⟩ := u</text>
<text text-anchor="middle" x="212.2878" y="-125.4665" font-family="Times,serif" font-size="14.00" fill="#000000">$0.68$</text>
</g>
<!-- 2 -->
<g id="node3" class="node">
<title>2</title>
<ellipse fill="#add8e6" stroke="#000000" cx="758.2878" cy="-48.0833" rx="101.2327" ry="26.7407"/>
<text text-anchor="middle" x="758.2878" y="-51.8833" font-family="Times,serif" font-size="14.00" fill="#000000">not in proof mode</text>
<text text-anchor="middle" x="758.2878" y="-36.8833" font-family="Times,serif" font-size="14.00" fill="#000000">$&#45;100.00$</text>
</g>
<!-- 0&#45;&gt;2 -->
<g id="edge3" class="edge">
<title>0&#45;&gt;2</title>
<path fill="none" stroke="#ff0000" stroke-width="2" d="M356.8213,-204.3969C338.502,-193.7092 319.5228,-178.7537 309.2878,-159.1665 300.0255,-141.4406 296.2158,-129.3033 309.2878,-114.1665 331.3652,-88.602 525.3302,-67.6349 650.9997,-56.5767"/>
<polygon fill="#ff0000" stroke="#ff0000" stroke-width="2" points="651.3963,-60.0555 661.0545,-55.7002 650.7883,-53.082 651.3963,-60.0555"/>
<text text-anchor="middle" x="345.7878" y="-147.9665" font-family="Times,serif" font-size="14.00" fill="#000000">ext</text>
<text text-anchor="middle" x="345.7878" y="-132.9665" font-family="Times,serif" font-size="14.00" fill="#000000">done</text>
<text text-anchor="middle" x="345.7878" y="-117.9665" font-family="Times,serif" font-size="14.00" fill="#000000">$&#45;100.00$</text>
</g>
<!-- 0&#45;&gt;2 -->
<g id="edge4" class="edge">
<title>0&#45;&gt;2</title>
<path fill="none" stroke="#ff0000" stroke-width="2" d="M392.1055,-178.4201C389.3186,-156.575 390.6729,-131.611 405.2878,-114.1665 436.0184,-77.4864 556.805,-61.0349 648.6057,-53.741"/>
<polygon fill="#ff0000" stroke="#ff0000" stroke-width="2" points="649.0984,-57.2136 658.8013,-52.9587 648.5628,-50.2341 649.0984,-57.2136"/>
<text text-anchor="middle" x="570.7878" y="-147.9665" font-family="Times,serif" font-size="14.00" fill="#000000">simpa only [Unit.unit_iff] usingunit_unit_inv u</text>
<text text-anchor="middle" x="570.7878" y="-132.9665" font-family="Times,serif" font-size="14.00" fill="#000000">done</text>
<text text-anchor="middle" x="570.7878" y="-117.9665" font-family="Times,serif" font-size="14.00" fill="#000000">$&#45;100.00$</text>
</g>
<!-- 0&#45;&gt;2 -->
<g id="edge5" class="edge">
<title>0&#45;&gt;2</title>
<path fill="none" stroke="#ff0000" stroke-width="2" d="M456.5171,-221.802C539.9022,-215.1969 697.6589,-197.8325 736.2878,-159.1665 755.2908,-140.1453 760.2688,-109.7445 760.7834,-85.5513"/>
<polygon fill="#ff0000" stroke="#ff0000" stroke-width="2" points="764.2826,-85.264 760.7496,-75.2756 757.2826,-85.287 764.2826,-85.264"/>
<text text-anchor="middle" x="793.7878" y="-147.9665" font-family="Times,serif" font-size="14.00" fill="#000000">ext b</text>
<text text-anchor="middle" x="793.7878" y="-132.9665" font-family="Times,serif" font-size="14.00" fill="#000000">done</text>
<text text-anchor="middle" x="793.7878" y="-117.9665" font-family="Times,serif" font-size="14.00" fill="#000000">$&#45;100.00$</text>
</g>
<!-- 0&#45;&gt;2 -->
<g id="edge6" class="edge">
<title>0&#45;&gt;2</title>
<path fill="none" stroke="#ff0000" stroke-width="2" d="M456.5108,-220.9613C565.2787,-211.5001 808.0623,-187.4196 832.2878,-159.1665 853.6357,-134.2696 828.7618,-102.9495 802.2486,-79.9178"/>
<polygon fill="#ff0000" stroke="#ff0000" stroke-width="2" points="804.3102,-77.0794 794.392,-73.3537 799.822,-82.4513 804.3102,-77.0794"/>
<text text-anchor="middle" x="914.2878" y="-147.9665" font-family="Times,serif" font-size="14.00" fill="#000000">cases u &lt;;&gt; simp [*]</text>
<text text-anchor="middle" x="914.2878" y="-132.9665" font-family="Times,serif" font-size="14.00" fill="#000000">done</text>
<text text-anchor="middle" x="914.2878" y="-117.9665" font-family="Times,serif" font-size="14.00" fill="#000000">$&#45;100.00$</text>
</g>
<!-- 0&#45;&gt;2 -->
<g id="edge7" class="edge">
<title>0&#45;&gt;2</title>
<path fill="none" stroke="#ff0000" stroke-width="2" d="M456.7738,-223.2696C594.2767,-217.5457 956.8588,-198.8004 992.2878,-159.1665 1039.0154,-106.8933 942.0306,-77.0892 859.0521,-61.7746"/>
<polygon fill="#ff0000" stroke="#ff0000" stroke-width="2" points="859.473,-58.2944 849.0128,-59.9782 858.24,-65.1849 859.473,-58.2944"/>
<text text-anchor="middle" x="1058.2878" y="-147.9665" font-family="Times,serif" font-size="14.00" fill="#000000">cases u &lt;;&gt; rfl</text>
<text text-anchor="middle" x="1058.2878" y="-132.9665" font-family="Times,serif" font-size="14.00" fill="#000000">done</text>
<text text-anchor="middle" x="1058.2878" y="-117.9665" font-family="Times,serif" font-size="14.00" fill="#000000">$&#45;100.00$</text>
</g>
</g>
</svg>
