<?xml version="1.0" encoding="UTF-8" standalone="no"?>
<!DOCTYPE svg PUBLIC "-//W3C//DTD SVG 1.1//EN"
 "http://www.w3.org/Graphics/SVG/1.1/DTD/svg11.dtd">
<!-- Generated by graphviz version 2.40.1 (0)
 -->
<!-- Title: %3 Pages: 1 -->
<svg width="1183pt" height="387pt"
 viewBox="0.00 0.00 1182.76 387.40" xmlns="http://www.w3.org/2000/svg" xmlns:xlink="http://www.w3.org/1999/xlink">
<g id="graph0" class="graph" transform="scale(1 1) rotate(0) translate(4 383.3991)">
<title>%3</title>
<polygon fill="#ffffff" stroke="transparent" points="-4,4 -4,-383.3991 1178.7595,-383.3991 1178.7595,4 -4,4"/>
<!-- 0 -->
<g id="node1" class="node">
<title>0</title>
<ellipse fill="#add8e6" stroke="#000000" cx="493.6812" cy="-331.3158" rx="86.0347" ry="48.1667"/>
<text text-anchor="middle" x="493.6812" y="-350.1158" font-family="Times,serif" font-size="14.00" fill="#000000">(1/1)</text>
<text text-anchor="middle" x="493.6812" y="-335.1158" font-family="Times,serif" font-size="14.00" fill="#000000">a b : Nat</text>
<text text-anchor="middle" x="493.6812" y="-320.1158" font-family="Times,serif" font-size="14.00" fill="#000000">⊢ (a, b).fst = a</text>
<text text-anchor="middle" x="493.6812" y="-305.1158" font-family="Times,serif" font-size="14.00" fill="#000000">$0.00$</text>
</g>
<!-- 1 -->
<g id="node2" class="node">
<title>1</title>
<ellipse fill="none" stroke="#000000" cx="87.6812" cy="-101.1163" rx="87.8629" ry="101.2327"/>
<text text-anchor="middle" x="87.6812" y="-157.4163" font-family="Times,serif" font-size="14.00" fill="#000000">(1/2)</text>
<text text-anchor="middle" x="87.6812" y="-142.4163" font-family="Times,serif" font-size="14.00" fill="#000000">case zero</text>
<text text-anchor="middle" x="87.6812" y="-127.4163" font-family="Times,serif" font-size="14.00" fill="#000000">b : Nat</text>
<text text-anchor="middle" x="87.6812" y="-112.4163" font-family="Times,serif" font-size="14.00" fill="#000000">⊢ (0, b).fst = 0</text>
<text text-anchor="middle" x="87.6812" y="-97.4163" font-family="Times,serif" font-size="14.00" fill="#000000">(2/2)</text>
<text text-anchor="middle" x="87.6812" y="-82.4163" font-family="Times,serif" font-size="14.00" fill="#000000">case succ</text>
<text text-anchor="middle" x="87.6812" y="-67.4163" font-family="Times,serif" font-size="14.00" fill="#000000">b n✝ : Nat</text>
<text text-anchor="middle" x="87.6812" y="-52.4163" font-family="Times,serif" font-size="14.00" fill="#000000">⊢ (n✝ +...</text>
<text text-anchor="middle" x="87.6812" y="-37.4163" font-family="Times,serif" font-size="14.00" fill="#000000">$0.48$</text>
</g>
<!-- 0&#45;&gt;1 -->
<g id="edge1" class="edge">
<title>0&#45;&gt;1</title>
<path fill="none" stroke="#000000" d="M407.4232,-328.976C303.8118,-324.1901 138.881,-309.6157 98.6812,-265.2325 85.2336,-250.3855 78.3298,-231.3524 75.3933,-211.5421"/>
<polygon fill="#000000" stroke="#000000" points="78.8525,-210.9855 74.2323,-201.4512 71.8983,-211.7857 78.8525,-210.9855"/>
<text text-anchor="middle" x="125.1812" y="-246.5325" font-family="Times,serif" font-size="14.00" fill="#000000">cases a</text>
<text text-anchor="middle" x="125.1812" y="-231.5325" font-family="Times,serif" font-size="14.00" fill="#000000">$0.48$</text>
</g>
<!-- 2 -->
<g id="node3" class="node">
<title>2</title>
<ellipse fill="#add8e6" stroke="#000000" cx="493.6812" cy="-101.1163" rx="101.2327" ry="26.7407"/>
<text text-anchor="middle" x="493.6812" y="-104.9163" font-family="Times,serif" font-size="14.00" fill="#000000">not in proof mode</text>
<text text-anchor="middle" x="493.6812" y="-89.9163" font-family="Times,serif" font-size="14.00" fill="#000000">$&#45;100.00$</text>
</g>
<!-- 0&#45;&gt;2 -->
<g id="edge2" class="edge">
<title>0&#45;&gt;2</title>
<path fill="none" stroke="#ff0000" stroke-width="2" d="M407.6817,-326.0985C320.6903,-318.8137 194.8608,-302.0767 164.6812,-265.2325 152.0079,-249.7605 153.1959,-236.6059 164.6812,-220.2325 179.7165,-198.7986 323.7069,-152.2126 416.1483,-124.0716"/>
<polygon fill="#ff0000" stroke="#ff0000" stroke-width="2" points="417.2078,-127.4077 425.7609,-121.1551 415.1755,-120.7092 417.2078,-127.4077"/>
<text text-anchor="middle" x="218.1812" y="-254.0325" font-family="Times,serif" font-size="14.00" fill="#000000">cases a &lt;;&gt; rfl</text>
<text text-anchor="middle" x="218.1812" y="-239.0325" font-family="Times,serif" font-size="14.00" fill="#000000">done</text>
<text text-anchor="middle" x="218.1812" y="-224.0325" font-family="Times,serif" font-size="14.00" fill="#000000">$&#45;100.00$</text>
</g>
<!-- 0&#45;&gt;2 -->
<g id="edge3" class="edge">
<title>0&#45;&gt;2</title>
<path fill="none" stroke="#ff0000" stroke-width="2" d="M412.7776,-314.5343C364.2216,-302.6382 309.1402,-285.2694 294.6812,-265.2325 251.3572,-205.1953 346.9881,-154.2554 420.1664,-125.7022"/>
<polygon fill="#ff0000" stroke="#ff0000" stroke-width="2" points="421.781,-128.8321 429.8726,-121.9929 419.282,-122.2933 421.781,-128.8321"/>
<text text-anchor="middle" x="331.1812" y="-254.0325" font-family="Times,serif" font-size="14.00" fill="#000000">rfl</text>
<text text-anchor="middle" x="331.1812" y="-239.0325" font-family="Times,serif" font-size="14.00" fill="#000000">done</text>
<text text-anchor="middle" x="331.1812" y="-224.0325" font-family="Times,serif" font-size="14.00" fill="#000000">$&#45;100.00$</text>
</g>
<!-- 0&#45;&gt;2 -->
<g id="edge4" class="edge">
<title>0&#45;&gt;2</title>
<path fill="none" stroke="#ff0000" stroke-width="2" d="M425.863,-301.5292C411.7842,-292.0428 398.7816,-280.0539 390.6812,-265.2325 381.0896,-247.6826 383.7016,-238.9751 390.6812,-220.2325 403.3796,-186.1331 430.7152,-155.2934 454.0356,-133.5409"/>
<polygon fill="#ff0000" stroke="#ff0000" stroke-width="2" points="456.3989,-136.1226 461.4424,-126.8051 451.6893,-130.9438 456.3989,-136.1226"/>
<text text-anchor="middle" x="483.6812" y="-254.0325" font-family="Times,serif" font-size="14.00" fill="#000000">simp only [Nat.fst_eq_fst]</text>
<text text-anchor="middle" x="483.6812" y="-239.0325" font-family="Times,serif" font-size="14.00" fill="#000000">done</text>
<text text-anchor="middle" x="483.6812" y="-224.0325" font-family="Times,serif" font-size="14.00" fill="#000000">$&#45;100.00$</text>
</g>
<!-- 0&#45;&gt;2 -->
<g id="edge5" class="edge">
<title>0&#45;&gt;2</title>
<path fill="none" stroke="#ff0000" stroke-width="2" d="M552.591,-295.7466C562.3397,-287.0506 571.0824,-276.8469 576.6812,-265.2325 585.366,-247.2166 582.6735,-239.3138 576.6812,-220.2325 566.6598,-188.3211 544.7252,-157.486 525.9211,-135.1863"/>
<polygon fill="#ff0000" stroke="#ff0000" stroke-width="2" points="528.3512,-132.6455 519.1628,-127.3706 523.0562,-137.2241 528.3512,-132.6455"/>
<text text-anchor="middle" x="619.1812" y="-254.0325" font-family="Times,serif" font-size="14.00" fill="#000000">simp [*]</text>
<text text-anchor="middle" x="619.1812" y="-239.0325" font-family="Times,serif" font-size="14.00" fill="#000000">done</text>
<text text-anchor="middle" x="619.1812" y="-224.0325" font-family="Times,serif" font-size="14.00" fill="#000000">$&#45;100.00$</text>
</g>
<!-- 0&#45;&gt;2 -->
<g id="edge6" class="edge">
<title>0&#45;&gt;2</title>
<path fill="none" stroke="#ff0000" stroke-width="2" d="M577.1213,-318.3928C608.3944,-309.0513 640.877,-292.9579 659.6812,-265.2325 696.897,-210.361 618.7501,-158.5963 557.4906,-128.3775"/>
<polygon fill="#ff0000" stroke="#ff0000" stroke-width="2" points="558.7349,-125.0918 548.2077,-123.8965 555.6919,-131.3957 558.7349,-125.0918"/>
<text text-anchor="middle" x="725.6812" y="-254.0325" font-family="Times,serif" font-size="14.00" fill="#000000">rw [fst, Nat.fst]</text>
<text text-anchor="middle" x="725.6812" y="-239.0325" font-family="Times,serif" font-size="14.00" fill="#000000">done</text>
<text text-anchor="middle" x="725.6812" y="-224.0325" font-family="Times,serif" font-size="14.00" fill="#000000">$&#45;100.00$</text>
</g>
<!-- 0&#45;&gt;2 -->
<g id="edge7" class="edge">
<title>0&#45;&gt;2</title>
<path fill="none" stroke="#ff0000" stroke-width="2" d="M579.1204,-323.6549C655.826,-314.798 760.1721,-297.1598 785.6812,-265.2325 847.8101,-187.472 696.3384,-140.3298 589.1131,-117.6233"/>
<polygon fill="#ff0000" stroke="#ff0000" stroke-width="2" points="589.7107,-114.1728 579.2081,-115.568 588.2884,-121.0268 589.7107,-114.1728"/>
<text text-anchor="middle" x="887.1812" y="-254.0325" font-family="Times,serif" font-size="14.00" fill="#000000">induction a &lt;;&gt; simp [*]</text>
<text text-anchor="middle" x="887.1812" y="-239.0325" font-family="Times,serif" font-size="14.00" fill="#000000">done</text>
<text text-anchor="middle" x="887.1812" y="-224.0325" font-family="Times,serif" font-size="14.00" fill="#000000">$&#45;100.00$</text>
</g>
<!-- 3 -->
<g id="node4" class="node">
<title>3</title>
<ellipse fill="none" stroke="#000000" cx="1027.6812" cy="-101.1163" rx="147.1565" ry="58.8803"/>
<text text-anchor="middle" x="1027.6812" y="-127.4163" font-family="Times,serif" font-size="14.00" fill="#000000">(1/1)</text>
<text text-anchor="middle" x="1027.6812" y="-112.4163" font-family="Times,serif" font-size="14.00" fill="#000000">case succ</text>
<text text-anchor="middle" x="1027.6812" y="-97.4163" font-family="Times,serif" font-size="14.00" fill="#000000">b n✝ : Nat</text>
<text text-anchor="middle" x="1027.6812" y="-82.4163" font-family="Times,serif" font-size="14.00" fill="#000000">⊢ (n✝ + 1, b).fst = n✝ + 1</text>
<text text-anchor="middle" x="1027.6812" y="-67.4163" font-family="Times,serif" font-size="14.00" fill="#000000">$0.46$</text>
</g>
<!-- 0&#45;&gt;3 -->
<g id="edge8" class="edge">
<title>0&#45;&gt;3</title>
<path fill="none" stroke="#000000" d="M579.3461,-324.6738C710.457,-313.7651 948.926,-290.7066 978.6812,-265.2325 1006.0093,-241.8364 1018.4511,-203.8993 1023.9734,-170.3907"/>
<polygon fill="#000000" stroke="#000000" points="1027.4864,-170.5566 1025.4739,-160.1547 1020.5604,-169.5413 1027.4864,-170.5566"/>
<text text-anchor="middle" x="1034.6812" y="-246.5325" font-family="Times,serif" font-size="14.00" fill="#000000">simp</text>
<text text-anchor="middle" x="1034.6812" y="-231.5325" font-family="Times,serif" font-size="14.00" fill="#000000">$0.46$</text>
</g>
</g>
</svg>
