<?xml version="1.0" encoding="UTF-8" standalone="no"?>
<!DOCTYPE svg PUBLIC "-//W3C//DTD SVG 1.1//EN"
 "http://www.w3.org/Graphics/SVG/1.1/DTD/svg11.dtd">
<!-- Generated by graphviz version 2.40.1 (0)
 -->
<!-- Title: %3 Pages: 1 -->
<svg width="930pt" height="218pt"
 viewBox="0.00 0.00 929.81 217.69" xmlns="http://www.w3.org/2000/svg" xmlns:xlink="http://www.w3.org/1999/xlink">
<g id="graph0" class="graph" transform="scale(1 1) rotate(0) translate(4 213.6934)">
<title>%3</title>
<polygon fill="#ffffff" stroke="transparent" points="-4,4 -4,-213.6934 925.8138,-213.6934 925.8138,4 -4,4"/>
<!-- 0 -->
<g id="node1" class="node">
<title>0</title>
<ellipse fill="#add8e6" stroke="#000000" cx="348.8138" cy="-172.2168" rx="296.0556" ry="37.4533"/>
<text text-anchor="middle" x="348.8138" y="-183.5168" font-family="Times,serif" font-size="14.00" fill="#000000">(1/1)</text>
<text text-anchor="middle" x="348.8138" y="-168.5168" font-family="Times,serif" font-size="14.00" fill="#000000">⊢ (2 ^ 2014 + 2 ^ 2012) / (2 ^ 2014 &#45; 2 ^ 2012) = 5 / 3</text>
<text text-anchor="middle" x="348.8138" y="-153.5168" font-family="Times,serif" font-size="14.00" fill="#000000">$0.00$</text>
</g>
<!-- 1 -->
<g id="node2" class="node">
<title>1</title>
<ellipse fill="#add8e6" stroke="#000000" cx="348.8138" cy="-26.8701" rx="101.2327" ry="26.7407"/>
<text text-anchor="middle" x="348.8138" y="-30.6701" font-family="Times,serif" font-size="14.00" fill="#000000">not in proof mode</text>
<text text-anchor="middle" x="348.8138" y="-15.6701" font-family="Times,serif" font-size="14.00" fill="#000000">$&#45;100.00$</text>
</g>
<!-- 0&#45;&gt;1 -->
<g id="edge1" class="edge">
<title>0&#45;&gt;1</title>
<path fill="none" stroke="#ff0000" stroke-width="2" d="M128.396,-147.1449C69.3308,-138.2306 19.1055,-127.6759 9.8138,-116.7401 -3.1361,-101.4987 -3.3679,-86.7815 9.8138,-71.7401 25.0328,-54.374 146.9618,-41.5434 240.2762,-34.1496"/>
<polygon fill="#ff0000" stroke="#ff0000" stroke-width="2" points="240.6586,-37.6305 250.356,-33.3631 240.114,-30.6517 240.6586,-37.6305"/>
<text text-anchor="middle" x="120.3138" y="-105.5401" font-family="Times,serif" font-size="14.00" fill="#000000">norm_num [pow_div_two_pow]</text>
<text text-anchor="middle" x="120.3138" y="-90.5401" font-family="Times,serif" font-size="14.00" fill="#000000">end</text>
<text text-anchor="middle" x="120.3138" y="-75.5401" font-family="Times,serif" font-size="14.00" fill="#000000">$&#45;100.00$</text>
</g>
<!-- 0&#45;&gt;1 -->
<g id="edge2" class="edge">
<title>0&#45;&gt;1</title>
<path fill="none" stroke="#ff0000" stroke-width="2" d="M269.876,-136.0878C263.5497,-130.45 257.9977,-124.0283 253.8138,-116.7401 243.8567,-99.3949 243.1094,-88.6344 253.8138,-71.7401 258.5853,-64.2096 264.9975,-57.919 272.2501,-52.6694"/>
<polygon fill="#ff0000" stroke="#ff0000" stroke-width="2" points="274.5869,-55.3278 281.1022,-46.973 270.7988,-49.4413 274.5869,-55.3278"/>
<text text-anchor="middle" x="290.3138" y="-105.5401" font-family="Times,serif" font-size="14.00" fill="#000000">ring</text>
<text text-anchor="middle" x="290.3138" y="-90.5401" font-family="Times,serif" font-size="14.00" fill="#000000">end</text>
<text text-anchor="middle" x="290.3138" y="-75.5401" font-family="Times,serif" font-size="14.00" fill="#000000">$&#45;100.00$</text>
</g>
<!-- 0&#45;&gt;1 -->
<g id="edge3" class="edge">
<title>0&#45;&gt;1</title>
<path fill="none" stroke="#ff0000" stroke-width="2" d="M348.8138,-134.4081C348.8138,-112.7228 348.8138,-85.6098 348.8138,-64.0336"/>
<polygon fill="#ff0000" stroke="#ff0000" stroke-width="2" points="352.3139,-63.9344 348.8138,-53.9344 345.3139,-63.9345 352.3139,-63.9344"/>
<text text-anchor="middle" x="387.3138" y="-105.5401" font-family="Times,serif" font-size="14.00" fill="#000000">norm_num</text>
<text text-anchor="middle" x="387.3138" y="-90.5401" font-family="Times,serif" font-size="14.00" fill="#000000">end</text>
<text text-anchor="middle" x="387.3138" y="-75.5401" font-family="Times,serif" font-size="14.00" fill="#000000">$&#45;100.00$</text>
</g>
<!-- 0&#45;&gt;1 -->
<g id="edge4" class="edge">
<title>0&#45;&gt;1</title>
<path fill="none" stroke="#ff0000" stroke-width="2" d="M412.7318,-135.5422C418.3379,-129.9433 423.233,-123.6811 426.8138,-116.7401 435.9834,-98.966 436.8274,-89.0528 426.8138,-71.7401 423.2928,-65.6525 418.5982,-60.3185 413.2518,-55.6611"/>
<polygon fill="#ff0000" stroke="#ff0000" stroke-width="2" points="415.0704,-52.644 405.0128,-49.3128 410.7979,-58.1889 415.0704,-52.644"/>
<text text-anchor="middle" x="627.8138" y="-105.5401" font-family="Times,serif" font-size="14.00" fill="#000000">rw [← mul_div_assoc, ← div_div_self (two_ne_zero&#39; ℝ)]</text>
<text text-anchor="middle" x="627.8138" y="-90.5401" font-family="Times,serif" font-size="14.00" fill="#000000">end</text>
<text text-anchor="middle" x="627.8138" y="-75.5401" font-family="Times,serif" font-size="14.00" fill="#000000">$&#45;100.00$</text>
</g>
<!-- 0&#45;&gt;1 -->
<g id="edge5" class="edge">
<title>0&#45;&gt;1</title>
<path fill="none" stroke="#ff0000" stroke-width="2" d="M616.0596,-155.9423C716.4235,-147.0575 810.238,-134.2324 825.8138,-116.7401 839.114,-101.8034 839.2775,-86.5297 825.8138,-71.7401 801.6486,-45.195 593.174,-34.0469 459.9479,-29.6011"/>
<polygon fill="#ff0000" stroke="#ff0000" stroke-width="2" points="459.8019,-26.0946 449.6932,-29.2671 459.574,-33.0908 459.8019,-26.0946"/>
<text text-anchor="middle" x="878.8138" y="-105.5401" font-family="Times,serif" font-size="14.00" fill="#000000">norm_num1</text>
<text text-anchor="middle" x="878.8138" y="-90.5401" font-family="Times,serif" font-size="14.00" fill="#000000">end</text>
<text text-anchor="middle" x="878.8138" y="-75.5401" font-family="Times,serif" font-size="14.00" fill="#000000">$&#45;100.00$</text>
</g>
</g>
</svg>
