<?xml version="1.0" encoding="UTF-8" standalone="no"?>
<!DOCTYPE svg PUBLIC "-//W3C//DTD SVG 1.1//EN"
 "http://www.w3.org/Graphics/SVG/1.1/DTD/svg11.dtd">
<!-- Generated by graphviz version 2.40.1 (0)
 -->
<!-- Title: %3 Pages: 1 -->
<svg width="1243pt" height="387pt"
 viewBox="0.00 0.00 1242.64 387.40" xmlns="http://www.w3.org/2000/svg" xmlns:xlink="http://www.w3.org/1999/xlink">
<g id="graph0" class="graph" transform="scale(1 1) rotate(0) translate(4 383.3991)">
<title>%3</title>
<polygon fill="#ffffff" stroke="transparent" points="-4,4 -4,-383.3991 1238.641,-383.3991 1238.641,4 -4,4"/>
<!-- 0 -->
<g id="node1" class="node">
<title>0</title>
<ellipse fill="#add8e6" stroke="#000000" cx="530.6131" cy="-320.7092" rx="179.7103" ry="58.8803"/>
<text text-anchor="middle" x="530.6131" y="-347.0092" font-family="Times,serif" font-size="14.00" fill="#000000">(1/1)</text>
<text text-anchor="middle" x="530.6131" y="-332.0092" font-family="Times,serif" font-size="14.00" fill="#000000">n : Nat</text>
<text text-anchor="middle" x="530.6131" y="-317.0092" font-family="Times,serif" font-size="14.00" fill="#000000">xs : List Nat</text>
<text text-anchor="middle" x="530.6131" y="-302.0092" font-family="Times,serif" font-size="14.00" fill="#000000">⊢ (n :: xs).length = xs.length + 1</text>
<text text-anchor="middle" x="530.6131" y="-287.0092" font-family="Times,serif" font-size="14.00" fill="#000000">$0.00$</text>
</g>
<!-- 1 -->
<g id="node2" class="node">
<title>1</title>
<ellipse fill="#add8e6" stroke="#000000" cx="482.6131" cy="-90.5097" rx="101.2327" ry="26.7407"/>
<text text-anchor="middle" x="482.6131" y="-94.3097" font-family="Times,serif" font-size="14.00" fill="#000000">not in proof mode</text>
<text text-anchor="middle" x="482.6131" y="-79.3097" font-family="Times,serif" font-size="14.00" fill="#000000">$&#45;100.00$</text>
</g>
<!-- 0&#45;&gt;1 -->
<g id="edge1" class="edge">
<title>0&#45;&gt;1</title>
<path fill="none" stroke="#ff0000" stroke-width="2" d="M356.2118,-306.2755C213.8063,-292.6739 32.4509,-270.4649 9.6131,-244.0193 -3.4588,-228.8824 -2.8481,-214.6629 9.6131,-199.0193 54.5572,-142.5971 251.0066,-113.1065 376.1693,-99.7631"/>
<polygon fill="#ff0000" stroke="#ff0000" stroke-width="2" points="376.596,-103.2376 386.1767,-98.7143 375.8664,-96.2758 376.596,-103.2376"/>
<text text-anchor="middle" x="211.1131" y="-232.8193" font-family="Times,serif" font-size="14.00" fill="#000000">simp [List.length_append, Nat.succ_add, Nat.succ_add]</text>
<text text-anchor="middle" x="211.1131" y="-217.8193" font-family="Times,serif" font-size="14.00" fill="#000000">done</text>
<text text-anchor="middle" x="211.1131" y="-202.8193" font-family="Times,serif" font-size="14.00" fill="#000000">$&#45;100.00$</text>
</g>
<!-- 0&#45;&gt;1 -->
<g id="edge2" class="edge">
<title>0&#45;&gt;1</title>
<path fill="none" stroke="#ff0000" stroke-width="2" d="M451.7695,-267.8345C445.3284,-260.5756 439.726,-252.6254 435.6131,-244.0193 417.0474,-205.1718 438.0013,-157.3113 457.5409,-125.4603"/>
<polygon fill="#ff0000" stroke="#ff0000" stroke-width="2" points="460.5592,-127.2365 462.9805,-116.922 454.6555,-123.4753 460.5592,-127.2365"/>
<text text-anchor="middle" x="472.1131" y="-232.8193" font-family="Times,serif" font-size="14.00" fill="#000000">simp</text>
<text text-anchor="middle" x="472.1131" y="-217.8193" font-family="Times,serif" font-size="14.00" fill="#000000">done</text>
<text text-anchor="middle" x="472.1131" y="-202.8193" font-family="Times,serif" font-size="14.00" fill="#000000">$&#45;100.00$</text>
</g>
<!-- 0&#45;&gt;1 -->
<g id="edge3" class="edge">
<title>0&#45;&gt;1</title>
<path fill="none" stroke="#ff0000" stroke-width="2" d="M520.7037,-262.087C517.1319,-242.0378 512.9155,-219.5049 508.6131,-199.0193 503.5831,-175.0699 497.1861,-148.3337 491.9961,-127.3931"/>
<polygon fill="#ff0000" stroke="#ff0000" stroke-width="2" points="495.3735,-126.4714 489.5565,-117.6163 488.5817,-128.1662 495.3735,-126.4714"/>
<text text-anchor="middle" x="693.1131" y="-232.8193" font-family="Times,serif" font-size="14.00" fill="#000000">rw [Nat.succ_eq_succ_iff, Nat.succ_eq_add_one]</text>
<text text-anchor="middle" x="693.1131" y="-217.8193" font-family="Times,serif" font-size="14.00" fill="#000000">done</text>
<text text-anchor="middle" x="693.1131" y="-202.8193" font-family="Times,serif" font-size="14.00" fill="#000000">$&#45;100.00$</text>
</g>
<!-- 0&#45;&gt;1 -->
<g id="edge4" class="edge">
<title>0&#45;&gt;1</title>
<path fill="none" stroke="#ff0000" stroke-width="2" d="M701.5827,-302.3868C775.4447,-290.6069 850.1281,-272.1047 872.6131,-244.0193 885.1126,-228.4065 884.7122,-214.9445 872.6131,-199.0193 837.6385,-152.9854 686.542,-121.3039 583.0228,-104.54"/>
<polygon fill="#ff0000" stroke="#ff0000" stroke-width="2" points="583.2724,-101.0356 572.8456,-102.915 582.1686,-107.948 583.2724,-101.0356"/>
<text text-anchor="middle" x="959.1131" y="-232.8193" font-family="Times,serif" font-size="14.00" fill="#000000">cases xs &lt;;&gt; simp [*]</text>
<text text-anchor="middle" x="959.1131" y="-217.8193" font-family="Times,serif" font-size="14.00" fill="#000000">done</text>
<text text-anchor="middle" x="959.1131" y="-202.8193" font-family="Times,serif" font-size="14.00" fill="#000000">$&#45;100.00$</text>
</g>
<!-- 2 -->
<g id="node3" class="node">
<title>2</title>
<ellipse fill="none" stroke="#000000" cx="1082.6131" cy="-90.5097" rx="152.0559" ry="90.5193"/>
<text text-anchor="middle" x="1082.6131" y="-139.3097" font-family="Times,serif" font-size="14.00" fill="#000000">(1/2)</text>
<text text-anchor="middle" x="1082.6131" y="-124.3097" font-family="Times,serif" font-size="14.00" fill="#000000">case nil</text>
<text text-anchor="middle" x="1082.6131" y="-109.3097" font-family="Times,serif" font-size="14.00" fill="#000000">n : Nat</text>
<text text-anchor="middle" x="1082.6131" y="-94.3097" font-family="Times,serif" font-size="14.00" fill="#000000">⊢ [n].length = [].length + 1</text>
<text text-anchor="middle" x="1082.6131" y="-79.3097" font-family="Times,serif" font-size="14.00" fill="#000000">(2/2)</text>
<text text-anchor="middle" x="1082.6131" y="-64.3097" font-family="Times,serif" font-size="14.00" fill="#000000">case cons</text>
<text text-anchor="middle" x="1082.6131" y="-49.3097" font-family="Times,serif" font-size="14.00" fill="#000000">n head✝...</text>
<text text-anchor="middle" x="1082.6131" y="-34.3097" font-family="Times,serif" font-size="14.00" fill="#000000">$0.29$</text>
</g>
<!-- 0&#45;&gt;2 -->
<g id="edge5" class="edge">
<title>0&#45;&gt;2</title>
<path fill="none" stroke="#000000" d="M709.3891,-314.1708C836.2704,-305.8523 992.2982,-286.9531 1040.6131,-244.0193 1056.2327,-230.1394 1066.2891,-211.0637 1072.7061,-191.0732"/>
<polygon fill="#000000" stroke="#000000" points="1076.1442,-191.7843 1075.5724,-181.2049 1069.422,-189.8318 1076.1442,-191.7843"/>
<text text-anchor="middle" x="1099.1131" y="-225.3193" font-family="Times,serif" font-size="14.00" fill="#000000">cases xs</text>
<text text-anchor="middle" x="1099.1131" y="-210.3193" font-family="Times,serif" font-size="14.00" fill="#000000">$0.29$</text>
</g>
</g>
</svg>
