<?xml version="1.0" encoding="UTF-8" standalone="no"?>
<!DOCTYPE svg PUBLIC "-//W3C//DTD SVG 1.1//EN"
 "http://www.w3.org/Graphics/SVG/1.1/DTD/svg11.dtd">
<!-- Generated by graphviz version 2.40.1 (0)
 -->
<!-- Title: %3 Pages: 1 -->
<svg width="955pt" height="409pt"
 viewBox="0.00 0.00 955.08 408.61" xmlns="http://www.w3.org/2000/svg" xmlns:xlink="http://www.w3.org/1999/xlink">
<g id="graph0" class="graph" transform="scale(1 1) rotate(0) translate(4 404.6123)">
<title>%3</title>
<polygon fill="#ffffff" stroke="transparent" points="-4,4 -4,-404.6123 951.0815,-404.6123 951.0815,4 -4,4"/>
<!-- 0 -->
<g id="node1" class="node">
<title>0</title>
<ellipse fill="none" stroke="#000000" cx="383.8647" cy="-341.9224" rx="91.4341" ry="58.8803"/>
<text text-anchor="middle" x="383.8647" y="-368.2224" font-family="Times,serif" font-size="14.00" fill="#000000">(1/1)</text>
<text text-anchor="middle" x="383.8647" y="-353.2224" font-family="Times,serif" font-size="14.00" fill="#000000">xs ys : List Nat</text>
<text text-anchor="middle" x="383.8647" y="-338.2224" font-family="Times,serif" font-size="14.00" fill="#000000">h : xs = ys</text>
<text text-anchor="middle" x="383.8647" y="-323.2224" font-family="Times,serif" font-size="14.00" fill="#000000">⊢ xs ++ [] = ys</text>
<text text-anchor="middle" x="383.8647" y="-308.2224" font-family="Times,serif" font-size="14.00" fill="#000000">$0.00$</text>
</g>
<!-- 1 -->
<g id="node2" class="node">
<title>1</title>
<ellipse fill="none" stroke="#000000" cx="231.8647" cy="-101.1163" rx="101.2327" ry="26.7407"/>
<text text-anchor="middle" x="231.8647" y="-104.9163" font-family="Times,serif" font-size="14.00" fill="#000000">not in proof mode</text>
<text text-anchor="middle" x="231.8647" y="-89.9163" font-family="Times,serif" font-size="14.00" fill="#000000">$&#45;100.00$</text>
</g>
<!-- 0&#45;&gt;1 -->
<g id="edge1" class="edge">
<title>0&#45;&gt;1</title>
<path fill="none" stroke="#000000" d="M293.0957,-336.0005C194.8589,-327.4768 47.5458,-307.8158 12.8647,-265.2325 -37.3743,-203.5464 71.7984,-152.3437 153.3412,-124.3007"/>
<polygon fill="#000000" stroke="#000000" points="154.7793,-127.5094 163.1359,-120.9965 152.5417,-120.8767 154.7793,-127.5094"/>
<text text-anchor="middle" x="91.3647" y="-254.0325" font-family="Times,serif" font-size="14.00" fill="#000000">cases xs &lt;;&gt; simp [h]</text>
<text text-anchor="middle" x="91.3647" y="-239.0325" font-family="Times,serif" font-size="14.00" fill="#000000">done</text>
<text text-anchor="middle" x="91.3647" y="-224.0325" font-family="Times,serif" font-size="14.00" fill="#000000">$&#45;100.00$</text>
</g>
<!-- 0&#45;&gt;1 -->
<g id="edge2" class="edge">
<title>0&#45;&gt;1</title>
<path fill="none" stroke="#000000" d="M294.8119,-328.7375C256.7611,-318.2084 215.8803,-299.2752 192.8647,-265.2325 166.6654,-226.4807 188.3416,-172.1969 208.3504,-136.8486"/>
<polygon fill="#000000" stroke="#000000" points="211.5893,-138.2452 213.6391,-127.8505 205.5545,-134.6981 211.5893,-138.2452"/>
<text text-anchor="middle" x="229.3647" y="-254.0325" font-family="Times,serif" font-size="14.00" fill="#000000">simp [*]</text>
<text text-anchor="middle" x="229.3647" y="-239.0325" font-family="Times,serif" font-size="14.00" fill="#000000">done</text>
<text text-anchor="middle" x="229.3647" y="-224.0325" font-family="Times,serif" font-size="14.00" fill="#000000">$&#45;100.00$</text>
</g>
<!-- 0&#45;&gt;1 -->
<g id="edge3" class="edge">
<title>0&#45;&gt;1</title>
<path fill="none" stroke="#000000" d="M320.7887,-299.3654C309.0003,-289.2432 297.6445,-277.7156 288.8647,-265.2325 274.1971,-244.3781 254.0435,-179.4938 242.0465,-137.8286"/>
<polygon fill="#000000" stroke="#000000" points="245.3615,-136.6902 239.253,-128.0336 238.6299,-138.6101 245.3615,-136.6902"/>
<text text-anchor="middle" x="325.3647" y="-254.0325" font-family="Times,serif" font-size="14.00" fill="#000000">subst xs</text>
<text text-anchor="middle" x="325.3647" y="-239.0325" font-family="Times,serif" font-size="14.00" fill="#000000">done</text>
<text text-anchor="middle" x="325.3647" y="-224.0325" font-family="Times,serif" font-size="14.00" fill="#000000">$&#45;100.00$</text>
</g>
<!-- 0&#45;&gt;1 -->
<g id="edge4" class="edge">
<title>0&#45;&gt;1</title>
<path fill="none" stroke="#000000" d="M380.9517,-282.994C377.9689,-262.1676 372.3358,-239.2206 361.8647,-220.2325 342.0875,-184.3687 307.4743,-153.4563 278.9345,-132.1157"/>
<polygon fill="#000000" stroke="#000000" points="280.8185,-129.1575 270.6804,-126.0802 276.6867,-134.808 280.8185,-129.1575"/>
<text text-anchor="middle" x="414.3647" y="-254.0325" font-family="Times,serif" font-size="14.00" fill="#000000">simp [h]</text>
<text text-anchor="middle" x="414.3647" y="-239.0325" font-family="Times,serif" font-size="14.00" fill="#000000">done</text>
<text text-anchor="middle" x="414.3647" y="-224.0325" font-family="Times,serif" font-size="14.00" fill="#000000">$&#45;100.00$</text>
</g>
<!-- 2 -->
<g id="node3" class="node">
<title>2</title>
<ellipse fill="none" stroke="#000000" cx="458.8647" cy="-101.1163" rx="87.8629" ry="101.2327"/>
<text text-anchor="middle" x="458.8647" y="-157.4163" font-family="Times,serif" font-size="14.00" fill="#000000">(1/2)</text>
<text text-anchor="middle" x="458.8647" y="-142.4163" font-family="Times,serif" font-size="14.00" fill="#000000">case nil</text>
<text text-anchor="middle" x="458.8647" y="-127.4163" font-family="Times,serif" font-size="14.00" fill="#000000">ys : List Nat</text>
<text text-anchor="middle" x="458.8647" y="-112.4163" font-family="Times,serif" font-size="14.00" fill="#000000">h : [] = ys</text>
<text text-anchor="middle" x="458.8647" y="-97.4163" font-family="Times,serif" font-size="14.00" fill="#000000">⊢ [] ++ [] = ys</text>
<text text-anchor="middle" x="458.8647" y="-82.4163" font-family="Times,serif" font-size="14.00" fill="#000000">(2/2)</text>
<text text-anchor="middle" x="458.8647" y="-67.4163" font-family="Times,serif" font-size="14.00" fill="#000000">case cons</text>
<text text-anchor="middle" x="458.8647" y="-52.4163" font-family="Times,serif" font-size="14.00" fill="#000000">ys...</text>
<text text-anchor="middle" x="458.8647" y="-37.4163" font-family="Times,serif" font-size="14.00" fill="#000000">$0.68$</text>
</g>
<!-- 0&#45;&gt;2 -->
<g id="edge5" class="edge">
<title>0&#45;&gt;2</title>
<path fill="none" stroke="#000000" d="M439.4903,-294.8511C446.9655,-285.8321 453.5373,-275.8561 457.8647,-265.2325 464.6668,-248.5341 468.1671,-230.0629 469.5823,-211.7158"/>
<polygon fill="#000000" stroke="#000000" points="473.0871,-211.7307 470.1618,-201.5478 466.0984,-211.3324 473.0871,-211.7307"/>
<text text-anchor="middle" x="499.3647" y="-246.5325" font-family="Times,serif" font-size="14.00" fill="#000000">cases xs</text>
<text text-anchor="middle" x="499.3647" y="-231.5325" font-family="Times,serif" font-size="14.00" fill="#000000">$0.68$</text>
</g>
<!-- 3 -->
<g id="node4" class="node">
<title>3</title>
<ellipse fill="none" stroke="#000000" cx="655.8647" cy="-101.1163" rx="91.4341" ry="58.8803"/>
<text text-anchor="middle" x="655.8647" y="-127.4163" font-family="Times,serif" font-size="14.00" fill="#000000">(1/1)</text>
<text text-anchor="middle" x="655.8647" y="-112.4163" font-family="Times,serif" font-size="14.00" fill="#000000">xs ys : List Nat</text>
<text text-anchor="middle" x="655.8647" y="-97.4163" font-family="Times,serif" font-size="14.00" fill="#000000">h : xs = ys</text>
<text text-anchor="middle" x="655.8647" y="-82.4163" font-family="Times,serif" font-size="14.00" fill="#000000">⊢ ys ++ [] = ys</text>
<text text-anchor="middle" x="655.8647" y="-67.4163" font-family="Times,serif" font-size="14.00" fill="#000000">$0.68$</text>
</g>
<!-- 0&#45;&gt;3 -->
<g id="edge6" class="edge">
<title>0&#45;&gt;3</title>
<path fill="none" stroke="#000000" d="M461.2818,-310.7473C485.9742,-298.6833 512.4273,-283.3656 533.8647,-265.2325 567.2074,-237.0294 596.6751,-198.0383 618.2936,-165.1381"/>
<polygon fill="#000000" stroke="#000000" points="621.4044,-166.7731 623.8983,-156.476 615.5273,-162.9704 621.4044,-166.7731"/>
<text text-anchor="middle" x="601.8647" y="-246.5325" font-family="Times,serif" font-size="14.00" fill="#000000">rw [h]</text>
<text text-anchor="middle" x="601.8647" y="-231.5325" font-family="Times,serif" font-size="14.00" fill="#000000">$0.68$</text>
</g>
<!-- 4 -->
<g id="node5" class="node">
<title>4</title>
<ellipse fill="none" stroke="#000000" cx="855.8647" cy="-101.1163" rx="91.4341" ry="48.1667"/>
<text text-anchor="middle" x="855.8647" y="-119.9163" font-family="Times,serif" font-size="14.00" fill="#000000">(1/1)</text>
<text text-anchor="middle" x="855.8647" y="-104.9163" font-family="Times,serif" font-size="14.00" fill="#000000">xs : List Nat</text>
<text text-anchor="middle" x="855.8647" y="-89.9163" font-family="Times,serif" font-size="14.00" fill="#000000">⊢ xs ++ [] = xs</text>
<text text-anchor="middle" x="855.8647" y="-74.9163" font-family="Times,serif" font-size="14.00" fill="#000000">$0.63$</text>
</g>
<!-- 0&#45;&gt;4 -->
<g id="edge7" class="edge">
<title>0&#45;&gt;4</title>
<path fill="none" stroke="#000000" d="M470.7364,-323.4162C550.4986,-303.3194 669.1145,-265.3368 755.8647,-202.2325 775.4299,-188.0004 794.6689,-169.8481 810.9647,-152.8621"/>
<polygon fill="#000000" stroke="#000000" points="813.9172,-154.833 818.2354,-145.1581 808.8264,-150.0284 813.9172,-154.833"/>
<text text-anchor="middle" x="749.8647" y="-246.5325" font-family="Times,serif" font-size="14.00" fill="#000000">subst ys</text>
<text text-anchor="middle" x="749.8647" y="-231.5325" font-family="Times,serif" font-size="14.00" fill="#000000">$0.63$</text>
</g>
</g>
</svg>
