<?xml version="1.0" encoding="UTF-8" standalone="no"?>
<!DOCTYPE svg PUBLIC "-//W3C//DTD SVG 1.1//EN"
 "http://www.w3.org/Graphics/SVG/1.1/DTD/svg11.dtd">
<!-- Generated by graphviz version 2.40.1 (0)
 -->
<!-- Title: %3 Pages: 1 -->
<svg width="429pt" height="239pt"
 viewBox="0.00 0.00 428.55 238.91" xmlns="http://www.w3.org/2000/svg" xmlns:xlink="http://www.w3.org/1999/xlink">
<g id="graph0" class="graph" transform="scale(1 1) rotate(0) translate(4 234.9066)">
<title>%3</title>
<polygon fill="#ffffff" stroke="transparent" points="-4,4 -4,-234.9066 424.546,-234.9066 424.546,4 -4,4"/>
<!-- 0 -->
<g id="node1" class="node">
<title>0</title>
<ellipse fill="none" stroke="#000000" cx="151.546" cy="-182.8234" rx="91.4341" ry="48.1667"/>
<text text-anchor="middle" x="151.546" y="-201.6234" font-family="Times,serif" font-size="14.00" fill="#000000">(1/1)</text>
<text text-anchor="middle" x="151.546" y="-186.6234" font-family="Times,serif" font-size="14.00" fill="#000000">xs : List Nat</text>
<text text-anchor="middle" x="151.546" y="-171.6234" font-family="Times,serif" font-size="14.00" fill="#000000">⊢ [] ++ xs = xs</text>
<text text-anchor="middle" x="151.546" y="-156.6234" font-family="Times,serif" font-size="14.00" fill="#000000">$0.00$</text>
</g>
<!-- 1 -->
<g id="node2" class="node">
<title>1</title>
<ellipse fill="none" stroke="#000000" cx="151.546" cy="-26.8701" rx="101.2327" ry="26.7407"/>
<text text-anchor="middle" x="151.546" y="-30.6701" font-family="Times,serif" font-size="14.00" fill="#000000">not in proof mode</text>
<text text-anchor="middle" x="151.546" y="-15.6701" font-family="Times,serif" font-size="14.00" fill="#000000">$&#45;100.00$</text>
</g>
<!-- 0&#45;&gt;1 -->
<g id="edge1" class="edge">
<title>0&#45;&gt;1</title>
<path fill="none" stroke="#000000" d="M68.4918,-162.7874C45.1116,-152.9049 22.3227,-138.2831 8.546,-116.7401 -2.229,-99.8908 -3.2913,-87.8608 8.546,-71.7401 15.8537,-61.7882 37.3954,-53.0485 61.6134,-45.9899"/>
<polygon fill="#000000" stroke="#000000" points="62.6797,-49.3262 71.3722,-43.269 60.7996,-42.5834 62.6797,-49.3262"/>
<text text-anchor="middle" x="45.046" y="-105.5401" font-family="Times,serif" font-size="14.00" fill="#000000">simp [nil]</text>
<text text-anchor="middle" x="45.046" y="-90.5401" font-family="Times,serif" font-size="14.00" fill="#000000">done</text>
<text text-anchor="middle" x="45.046" y="-75.5401" font-family="Times,serif" font-size="14.00" fill="#000000">$&#45;100.00$</text>
</g>
<!-- 0&#45;&gt;1 -->
<g id="edge2" class="edge">
<title>0&#45;&gt;1</title>
<path fill="none" stroke="#000000" d="M114.7008,-138.595C110.5426,-131.6372 106.9444,-124.2504 104.546,-116.7401 98.4618,-97.688 96.6787,-90.1278 104.546,-71.7401 106.3162,-67.6028 108.6759,-63.6654 111.3985,-59.966"/>
<polygon fill="#000000" stroke="#000000" points="114.1127,-62.1763 117.8501,-52.2625 108.7461,-57.6818 114.1127,-62.1763"/>
<text text-anchor="middle" x="141.046" y="-105.5401" font-family="Times,serif" font-size="14.00" fill="#000000">simp</text>
<text text-anchor="middle" x="141.046" y="-90.5401" font-family="Times,serif" font-size="14.00" fill="#000000">done</text>
<text text-anchor="middle" x="141.046" y="-75.5401" font-family="Times,serif" font-size="14.00" fill="#000000">$&#45;100.00$</text>
</g>
<!-- 0&#45;&gt;1 -->
<g id="edge3" class="edge">
<title>0&#45;&gt;1</title>
<path fill="none" stroke="#000000" d="M172.8758,-135.9017C179.2326,-116.0354 183.1758,-92.6848 177.546,-71.7401 176.7047,-68.61 175.5858,-65.473 174.2841,-62.3928"/>
<polygon fill="#000000" stroke="#000000" points="177.4322,-60.8631 169.9252,-53.3867 171.1314,-63.9127 177.4322,-60.8631"/>
<text text-anchor="middle" x="257.046" y="-105.5401" font-family="Times,serif" font-size="14.00" fill="#000000">cases xs &lt;;&gt; simp [*]</text>
<text text-anchor="middle" x="257.046" y="-90.5401" font-family="Times,serif" font-size="14.00" fill="#000000">done</text>
<text text-anchor="middle" x="257.046" y="-75.5401" font-family="Times,serif" font-size="14.00" fill="#000000">$&#45;100.00$</text>
</g>
<!-- 0&#45;&gt;1 -->
<g id="edge4" class="edge">
<title>0&#45;&gt;1</title>
<path fill="none" stroke="#000000" d="M236.6523,-165.0361C301.4951,-147.5229 374.0831,-116.8129 338.546,-71.7401 327.1845,-57.3299 291.1001,-47.0218 253.6199,-39.95"/>
<polygon fill="#000000" stroke="#000000" points="254.0183,-36.4653 243.5553,-38.131 252.7734,-43.3538 254.0183,-36.4653"/>
<text text-anchor="middle" x="384.046" y="-105.5401" font-family="Times,serif" font-size="14.00" fill="#000000">rfl</text>
<text text-anchor="middle" x="384.046" y="-90.5401" font-family="Times,serif" font-size="14.00" fill="#000000">done</text>
<text text-anchor="middle" x="384.046" y="-75.5401" font-family="Times,serif" font-size="14.00" fill="#000000">$&#45;100.00$</text>
</g>
</g>
</svg>
