<?xml version="1.0" encoding="UTF-8" standalone="no"?>
<!DOCTYPE svg PUBLIC "-//W3C//DTD SVG 1.1//EN"
 "http://www.w3.org/Graphics/SVG/1.1/DTD/svg11.dtd">
<!-- Generated by graphviz version 2.40.1 (0)
 -->
<!-- Title: %3 Pages: 1 -->
<svg width="352pt" height="240pt"
 viewBox="0.00 0.00 351.56 240.32" xmlns="http://www.w3.org/2000/svg" xmlns:xlink="http://www.w3.org/1999/xlink">
<g id="graph0" class="graph" transform="scale(1 1) rotate(0) translate(4 236.3209)">
<title>%3</title>
<polygon fill="#ffffff" stroke="transparent" points="-4,4 -4,-236.3209 347.5638,-236.3209 347.5638,4 -4,4"/>
<!-- 0 -->
<g id="node1" class="node">
<title>0</title>
<ellipse fill="#add8e6" stroke="#000000" cx="102.5638" cy="-183.5305" rx="87.8629" ry="48.5816"/>
<text text-anchor="middle" x="102.5638" y="-202.8305" font-family="Times,serif" font-size="14.00" fill="#000000">(1/1)</text>
<text text-anchor="middle" x="102.5638" y="-171.8305" font-family="Times,serif" font-size="14.00" fill="#000000">⊢ [].length = 0</text>
<text text-anchor="middle" x="102.5638" y="-156.8305" font-family="Times,serif" font-size="14.00" fill="#000000">$0.00$</text>
</g>
<!-- 1 -->
<g id="node2" class="node">
<title>1</title>
<ellipse fill="#add8e6" stroke="#000000" cx="102.5638" cy="-26.8701" rx="101.2327" ry="26.7407"/>
<text text-anchor="middle" x="102.5638" y="-30.6701" font-family="Times,serif" font-size="14.00" fill="#000000">not in proof mode</text>
<text text-anchor="middle" x="102.5638" y="-15.6701" font-family="Times,serif" font-size="14.00" fill="#000000">$&#45;100.00$</text>
</g>
<!-- 0&#45;&gt;1 -->
<g id="edge1" class="edge">
<title>0&#45;&gt;1</title>
<path fill="none" stroke="#ff0000" stroke-width="2" d="M37.2151,-150.3322C25.2791,-141.1468 14.4402,-129.9803 7.5638,-116.7401 -1.6542,-98.9911 -3.1406,-88.6344 7.5638,-71.7401 12.3353,-64.2096 18.7475,-57.919 26.0001,-52.6694"/>
<polygon fill="#ff0000" stroke="#ff0000" stroke-width="2" points="28.3369,-55.3278 34.8522,-46.973 24.5488,-49.4413 28.3369,-55.3278"/>
<text text-anchor="middle" x="44.0638" y="-105.5401" font-family="Times,serif" font-size="14.00" fill="#000000">simp</text>
<text text-anchor="middle" x="44.0638" y="-90.5401" font-family="Times,serif" font-size="14.00" fill="#000000">done</text>
<text text-anchor="middle" x="44.0638" y="-75.5401" font-family="Times,serif" font-size="14.00" fill="#000000">$&#45;100.00$</text>
</g>
<!-- 0&#45;&gt;1 -->
<g id="edge2" class="edge">
<title>0&#45;&gt;1</title>
<path fill="none" stroke="#ff0000" stroke-width="2" d="M102.5638,-134.392C102.5638,-111.6699 102.5638,-85.1234 102.5638,-64.0932"/>
<polygon fill="#ff0000" stroke="#ff0000" stroke-width="2" points="106.0639,-63.9514 102.5638,-53.9515 99.0639,-63.9515 106.0639,-63.9514"/>
<text text-anchor="middle" x="182.0638" y="-105.5401" font-family="Times,serif" font-size="14.00" fill="#000000">simp [length_eq_zero]</text>
<text text-anchor="middle" x="182.0638" y="-90.5401" font-family="Times,serif" font-size="14.00" fill="#000000">done</text>
<text text-anchor="middle" x="182.0638" y="-75.5401" font-family="Times,serif" font-size="14.00" fill="#000000">$&#45;100.00$</text>
</g>
<!-- 0&#45;&gt;1 -->
<g id="edge3" class="edge">
<title>0&#45;&gt;1</title>
<path fill="none" stroke="#ff0000" stroke-width="2" d="M186.0242,-168.5466C215.2615,-158.8538 245.1241,-142.9183 262.5638,-116.7401 273.6523,-100.0955 274.6467,-87.6776 262.5638,-71.7401 253.7948,-60.1736 227.1992,-50.7674 198.1459,-43.6103"/>
<polygon fill="#ff0000" stroke="#ff0000" stroke-width="2" points="198.7574,-40.1586 188.221,-41.2695 197.1505,-46.9716 198.7574,-40.1586"/>
<text text-anchor="middle" x="307.0638" y="-105.5401" font-family="Times,serif" font-size="14.00" fill="#000000">rfl</text>
<text text-anchor="middle" x="307.0638" y="-90.5401" font-family="Times,serif" font-size="14.00" fill="#000000">done</text>
<text text-anchor="middle" x="307.0638" y="-75.5401" font-family="Times,serif" font-size="14.00" fill="#000000">$&#45;100.00$</text>
</g>
</g>
</svg>
