<?xml version="1.0" encoding="UTF-8" standalone="no"?>
<!DOCTYPE svg PUBLIC "-//W3C//DTD SVG 1.1//EN"
 "http://www.w3.org/Graphics/SVG/1.1/DTD/svg11.dtd">
<!-- Generated by graphviz version 2.40.1 (0)
 -->
<!-- Title: %3 Pages: 1 -->
<svg width="410pt" height="218pt"
 viewBox="0.00 0.00 409.64 217.69" xmlns="http://www.w3.org/2000/svg" xmlns:xlink="http://www.w3.org/1999/xlink">
<g id="graph0" class="graph" transform="scale(1 1) rotate(0) translate(4 213.6934)">
<title>%3</title>
<polygon fill="#ffffff" stroke="transparent" points="-4,4 -4,-213.6934 405.6367,-213.6934 405.6367,4 -4,4"/>
<!-- 0 -->
<g id="node1" class="node">
<title>0</title>
<ellipse fill="#add8e6" stroke="#000000" cx="200.8183" cy="-172.2168" rx="200.6368" ry="37.4533"/>
<text text-anchor="middle" x="200.8183" y="-183.5168" font-family="Times,serif" font-size="14.00" fill="#000000">(1/1)</text>
<text text-anchor="middle" x="200.8183" y="-168.5168" font-family="Times,serif" font-size="14.00" fill="#000000">⊢ 1 * 3 * 5 * 7 * 9 * 11 * 13 % 10 = 5</text>
<text text-anchor="middle" x="200.8183" y="-153.5168" font-family="Times,serif" font-size="14.00" fill="#000000">$0.00$</text>
</g>
<!-- 1 -->
<g id="node2" class="node">
<title>1</title>
<ellipse fill="#add8e6" stroke="#000000" cx="200.8183" cy="-26.8701" rx="101.2327" ry="26.7407"/>
<text text-anchor="middle" x="200.8183" y="-30.6701" font-family="Times,serif" font-size="14.00" fill="#000000">not in proof mode</text>
<text text-anchor="middle" x="200.8183" y="-15.6701" font-family="Times,serif" font-size="14.00" fill="#000000">$&#45;100.00$</text>
</g>
<!-- 0&#45;&gt;1 -->
<g id="edge1" class="edge">
<title>0&#45;&gt;1</title>
<path fill="none" stroke="#ff0000" stroke-width="2" d="M162.0264,-135.2266C157.8741,-129.4507 154.2741,-123.2302 151.8183,-116.7401 144.7402,-98.0345 143.7603,-90.045 151.8183,-71.7401 153.6453,-67.5898 156.0667,-63.6561 158.8569,-59.9703"/>
<polygon fill="#ff0000" stroke="#ff0000" stroke-width="2" points="161.5839,-62.1674 165.4664,-52.3095 156.2839,-57.5946 161.5839,-62.1674"/>
<text text-anchor="middle" x="190.3183" y="-105.5401" font-family="Times,serif" font-size="14.00" fill="#000000">norm_num</text>
<text text-anchor="middle" x="190.3183" y="-90.5401" font-family="Times,serif" font-size="14.00" fill="#000000">end</text>
<text text-anchor="middle" x="190.3183" y="-75.5401" font-family="Times,serif" font-size="14.00" fill="#000000">$&#45;100.00$</text>
</g>
<!-- 0&#45;&gt;1 -->
<g id="edge2" class="edge">
<title>0&#45;&gt;1</title>
<path fill="none" stroke="#ff0000" stroke-width="2" d="M222.5572,-134.917C225.1395,-129.004 227.3692,-122.8274 228.8183,-116.7401 233.45,-97.2838 234.3252,-90.967 228.8183,-71.7401 227.9081,-68.5623 226.7002,-65.3909 225.2963,-62.287"/>
<polygon fill="#ff0000" stroke="#ff0000" stroke-width="2" points="228.3127,-60.5009 220.5984,-53.2387 222.1002,-63.7266 228.3127,-60.5009"/>
<text text-anchor="middle" x="274.8183" y="-105.5401" font-family="Times,serif" font-size="14.00" fill="#000000">norm_num1</text>
<text text-anchor="middle" x="274.8183" y="-90.5401" font-family="Times,serif" font-size="14.00" fill="#000000">end</text>
<text text-anchor="middle" x="274.8183" y="-75.5401" font-family="Times,serif" font-size="14.00" fill="#000000">$&#45;100.00$</text>
</g>
</g>
</svg>
