<?xml version="1.0" encoding="UTF-8" standalone="no"?>
<!DOCTYPE svg PUBLIC "-//W3C//DTD SVG 1.1//EN"
 "http://www.w3.org/Graphics/SVG/1.1/DTD/svg11.dtd">
<!-- Generated by graphviz version 2.40.1 (0)
 -->
<!-- Title: %3 Pages: 1 -->
<svg width="912pt" height="324pt"
 viewBox="0.00 0.00 912.17 323.76" xmlns="http://www.w3.org/2000/svg" xmlns:xlink="http://www.w3.org/1999/xlink">
<g id="graph0" class="graph" transform="scale(1 1) rotate(0) translate(4 319.7595)">
<title>%3</title>
<polygon fill="#ffffff" stroke="transparent" points="-4,4 -4,-319.7595 908.1722,-319.7595 908.1722,4 -4,4"/>
<!-- 0 -->
<g id="node1" class="node">
<title>0</title>
<ellipse fill="#add8e6" stroke="#000000" cx="378.5412" cy="-257.0696" rx="91.8478" ry="58.8803"/>
<text text-anchor="middle" x="378.5412" y="-283.3696" font-family="Times,serif" font-size="14.00" fill="#000000">(1/1)</text>
<text text-anchor="middle" x="378.5412" y="-268.3696" font-family="Times,serif" font-size="14.00" fill="#000000">a b c : Nat</text>
<text text-anchor="middle" x="378.5412" y="-253.3696" font-family="Times,serif" font-size="14.00" fill="#000000">h : a = b</text>
<text text-anchor="middle" x="378.5412" y="-238.3696" font-family="Times,serif" font-size="14.00" fill="#000000">⊢ c + a = c + b</text>
<text text-anchor="middle" x="378.5412" y="-223.3696" font-family="Times,serif" font-size="14.00" fill="#000000">$0.00$</text>
</g>
<!-- 1 -->
<g id="node2" class="node">
<title>1</title>
<ellipse fill="#add8e6" stroke="#000000" cx="103.5412" cy="-58.6899" rx="101.2327" ry="26.7407"/>
<text text-anchor="middle" x="103.5412" y="-62.4899" font-family="Times,serif" font-size="14.00" fill="#000000">not in proof mode</text>
<text text-anchor="middle" x="103.5412" y="-47.4899" font-family="Times,serif" font-size="14.00" fill="#000000">$&#45;100.00$</text>
</g>
<!-- 0&#45;&gt;1 -->
<g id="edge1" class="edge">
<title>0&#45;&gt;1</title>
<path fill="none" stroke="#ff0000" stroke-width="2" d="M286.6912,-250.9951C188.7222,-242.3765 42.966,-222.6714 8.5412,-180.3797 -16.443,-149.686 19.0017,-113.9141 53.4763,-89.1343"/>
<polygon fill="#ff0000" stroke="#ff0000" stroke-width="2" points="55.5116,-91.982 61.7173,-83.3948 51.511,-86.2378 55.5116,-91.982"/>
<text text-anchor="middle" x="45.0412" y="-169.1797" font-family="Times,serif" font-size="14.00" fill="#000000">rw [h]</text>
<text text-anchor="middle" x="45.0412" y="-154.1797" font-family="Times,serif" font-size="14.00" fill="#000000">done</text>
<text text-anchor="middle" x="45.0412" y="-139.1797" font-family="Times,serif" font-size="14.00" fill="#000000">$&#45;100.00$</text>
</g>
<!-- 0&#45;&gt;1 -->
<g id="edge2" class="edge">
<title>0&#45;&gt;1</title>
<path fill="none" stroke="#ff0000" stroke-width="2" d="M288.7998,-243.773C217.8557,-231.2183 127.1272,-209.9027 104.5412,-180.3797 86.4085,-156.6779 87.9811,-122.0845 93.0341,-95.8343"/>
<polygon fill="#ff0000" stroke="#ff0000" stroke-width="2" points="96.4968,-96.381 95.1924,-85.8667 89.6553,-94.8995 96.4968,-96.381"/>
<text text-anchor="middle" x="206.5412" y="-169.1797" font-family="Times,serif" font-size="14.00" fill="#000000">rw [h, Nat.add_right_comm]</text>
<text text-anchor="middle" x="206.5412" y="-154.1797" font-family="Times,serif" font-size="14.00" fill="#000000">done</text>
<text text-anchor="middle" x="206.5412" y="-139.1797" font-family="Times,serif" font-size="14.00" fill="#000000">$&#45;100.00$</text>
</g>
<!-- 0&#45;&gt;1 -->
<g id="edge3" class="edge">
<title>0&#45;&gt;1</title>
<path fill="none" stroke="#ff0000" stroke-width="2" d="M341.027,-203.3828C336.2615,-195.7942 331.629,-187.9851 327.5412,-180.3797 317.2631,-161.2573 324.2077,-150.4087 308.5412,-135.3797 278.0796,-106.1578 235.4539,-87.8561 196.9567,-76.4997"/>
<polygon fill="#ff0000" stroke="#ff0000" stroke-width="2" points="197.8432,-73.1132 187.2681,-73.7597 195.9382,-79.8491 197.8432,-73.1132"/>
<text text-anchor="middle" x="364.0412" y="-169.1797" font-family="Times,serif" font-size="14.00" fill="#000000">simp [h]</text>
<text text-anchor="middle" x="364.0412" y="-154.1797" font-family="Times,serif" font-size="14.00" fill="#000000">done</text>
<text text-anchor="middle" x="364.0412" y="-139.1797" font-family="Times,serif" font-size="14.00" fill="#000000">$&#45;100.00$</text>
</g>
<!-- 2 -->
<g id="node3" class="node">
<title>2</title>
<ellipse fill="none" stroke="#000000" cx="408.5412" cy="-58.6899" rx="91.8478" ry="58.8803"/>
<text text-anchor="middle" x="408.5412" y="-84.9899" font-family="Times,serif" font-size="14.00" fill="#000000">(1/1)</text>
<text text-anchor="middle" x="408.5412" y="-69.9899" font-family="Times,serif" font-size="14.00" fill="#000000">a b c : Nat</text>
<text text-anchor="middle" x="408.5412" y="-54.9899" font-family="Times,serif" font-size="14.00" fill="#000000">h : a = b</text>
<text text-anchor="middle" x="408.5412" y="-39.9899" font-family="Times,serif" font-size="14.00" fill="#000000">⊢ a + c = c + b</text>
<text text-anchor="middle" x="408.5412" y="-24.9899" font-family="Times,serif" font-size="14.00" fill="#000000">$0.35$</text>
</g>
<!-- 0&#45;&gt;2 -->
<g id="edge4" class="edge">
<title>0&#45;&gt;2</title>
<path fill="none" stroke="#000000" d="M399.989,-199.7627C401.8037,-193.2945 403.3843,-186.7423 404.5412,-180.3797 407.6233,-163.4293 409.1483,-144.9372 409.7953,-127.6033"/>
<polygon fill="#000000" stroke="#000000" points="413.2954,-127.6467 410.0799,-117.5516 406.2982,-127.4485 413.2954,-127.6467"/>
<text text-anchor="middle" x="481.0412" y="-161.6797" font-family="Times,serif" font-size="14.00" fill="#000000">rw [Nat.add_comm]</text>
<text text-anchor="middle" x="481.0412" y="-146.6797" font-family="Times,serif" font-size="14.00" fill="#000000">$0.35$</text>
</g>
<!-- 3 -->
<g id="node4" class="node">
<title>3</title>
<ellipse fill="none" stroke="#000000" cx="609.5412" cy="-58.6899" rx="91.4341" ry="48.1667"/>
<text text-anchor="middle" x="609.5412" y="-77.4899" font-family="Times,serif" font-size="14.00" fill="#000000">(1/1)</text>
<text text-anchor="middle" x="609.5412" y="-62.4899" font-family="Times,serif" font-size="14.00" fill="#000000">a c : Nat</text>
<text text-anchor="middle" x="609.5412" y="-47.4899" font-family="Times,serif" font-size="14.00" fill="#000000">⊢ c + a = c + a</text>
<text text-anchor="middle" x="609.5412" y="-32.4899" font-family="Times,serif" font-size="14.00" fill="#000000">$0.29$</text>
</g>
<!-- 0&#45;&gt;3 -->
<g id="edge5" class="edge">
<title>0&#45;&gt;3</title>
<path fill="none" stroke="#000000" d="M463.7774,-235.0288C496.0803,-223.1901 531.1513,-205.6696 556.5412,-180.3797 574.1051,-162.885 586.2668,-138.604 594.4648,-116.3299"/>
<polygon fill="#000000" stroke="#000000" points="597.869,-117.1965 597.8486,-106.6017 591.2575,-114.8968 597.869,-117.1965"/>
<text text-anchor="middle" x="613.0412" y="-161.6797" font-family="Times,serif" font-size="14.00" fill="#000000">subst h</text>
<text text-anchor="middle" x="613.0412" y="-146.6797" font-family="Times,serif" font-size="14.00" fill="#000000">$0.29$</text>
</g>
<!-- 4 -->
<g id="node5" class="node">
<title>4</title>
<ellipse fill="none" stroke="#000000" cx="811.5412" cy="-58.6899" rx="92.7622" ry="48.1667"/>
<text text-anchor="middle" x="811.5412" y="-77.4899" font-family="Times,serif" font-size="14.00" fill="#000000">(1/1)</text>
<text text-anchor="middle" x="811.5412" y="-62.4899" font-family="Times,serif" font-size="14.00" fill="#000000">b c : Nat</text>
<text text-anchor="middle" x="811.5412" y="-47.4899" font-family="Times,serif" font-size="14.00" fill="#000000">⊢ c + b = c + b</text>
<text text-anchor="middle" x="811.5412" y="-32.4899" font-family="Times,serif" font-size="14.00" fill="#000000">$0.33$</text>
</g>
<!-- 0&#45;&gt;4 -->
<g id="edge6" class="edge">
<title>0&#45;&gt;4</title>
<path fill="none" stroke="#000000" d="M466.3627,-239.6943C519.3521,-227.2746 587.2704,-207.8599 643.5412,-180.3797 683.6455,-160.7946 724.2908,-131.6546 755.5554,-106.8"/>
<polygon fill="#000000" stroke="#000000" points="758.1036,-109.2423 763.7052,-100.2494 753.7182,-103.7863 758.1036,-109.2423"/>
<text text-anchor="middle" x="754.5412" y="-161.6797" font-family="Times,serif" font-size="14.00" fill="#000000">subst_vars</text>
<text text-anchor="middle" x="754.5412" y="-146.6797" font-family="Times,serif" font-size="14.00" fill="#000000">$0.33$</text>
</g>
</g>
</svg>
