<?xml version="1.0" encoding="UTF-8" standalone="no"?>
<!DOCTYPE svg PUBLIC "-//W3C//DTD SVG 1.1//EN"
 "http://www.w3.org/Graphics/SVG/1.1/DTD/svg11.dtd">
<!-- Generated by graphviz version 2.40.1 (0)
 -->
<!-- Title: %3 Pages: 1 -->
<svg width="1286pt" height="409pt"
 viewBox="0.00 0.00 1285.60 408.61" xmlns="http://www.w3.org/2000/svg" xmlns:xlink="http://www.w3.org/1999/xlink">
<g id="graph0" class="graph" transform="scale(1 1) rotate(0) translate(4 404.6123)">
<title>%3</title>
<polygon fill="#ffffff" stroke="transparent" points="-4,4 -4,-404.6123 1281.5965,-404.6123 1281.5965,4 -4,4"/>
<!-- 0 -->
<g id="node1" class="node">
<title>0</title>
<ellipse fill="#add8e6" stroke="#000000" cx="480.1163" cy="-341.9224" rx="107.4605" ry="58.8803"/>
<text text-anchor="middle" x="480.1163" y="-368.2224" font-family="Times,serif" font-size="14.00" fill="#000000">(1/1)</text>
<text text-anchor="middle" x="480.1163" y="-353.2224" font-family="Times,serif" font-size="14.00" fill="#000000">n m : Nat</text>
<text text-anchor="middle" x="480.1163" y="-338.2224" font-family="Times,serif" font-size="14.00" fill="#000000">h : n = m</text>
<text text-anchor="middle" x="480.1163" y="-323.2224" font-family="Times,serif" font-size="14.00" fill="#000000">⊢ n = m ∨ ¬n = m</text>
<text text-anchor="middle" x="480.1163" y="-308.2224" font-family="Times,serif" font-size="14.00" fill="#000000">$0.00$</text>
</g>
<!-- 1 -->
<g id="node2" class="node">
<title>1</title>
<ellipse fill="#add8e6" stroke="#000000" cx="101.1163" cy="-101.1163" rx="101.2327" ry="26.7407"/>
<text text-anchor="middle" x="101.1163" y="-104.9163" font-family="Times,serif" font-size="14.00" fill="#000000">not in proof mode</text>
<text text-anchor="middle" x="101.1163" y="-89.9163" font-family="Times,serif" font-size="14.00" fill="#000000">$&#45;100.00$</text>
</g>
<!-- 0&#45;&gt;1 -->
<g id="edge1" class="edge">
<title>0&#45;&gt;1</title>
<path fill="none" stroke="#ff0000" stroke-width="2" d="M373,-334.9427C273.5607,-325.9719 135.9349,-306.3451 102.1163,-265.2325 73.0794,-229.933 80.0407,-174.4298 89.2869,-137.9046"/>
<polygon fill="#ff0000" stroke="#ff0000" stroke-width="2" points="92.696,-138.7053 91.9273,-128.1384 85.9386,-136.8783 92.696,-138.7053"/>
<text text-anchor="middle" x="150.6163" y="-254.0325" font-family="Times,serif" font-size="14.00" fill="#000000">exact Or.inl h</text>
<text text-anchor="middle" x="150.6163" y="-239.0325" font-family="Times,serif" font-size="14.00" fill="#000000">done</text>
<text text-anchor="middle" x="150.6163" y="-224.0325" font-family="Times,serif" font-size="14.00" fill="#000000">$&#45;100.00$</text>
</g>
<!-- 0&#45;&gt;1 -->
<g id="edge2" class="edge">
<title>0&#45;&gt;1</title>
<path fill="none" stroke="#ff0000" stroke-width="2" d="M374.5894,-330.1487C323.8767,-319.9341 264.9646,-300.858 222.1163,-265.2325 204.8452,-250.8728 211.4343,-239.0145 199.1163,-220.2325 179.0604,-189.6521 152.5145,-157.8014 132.1101,-134.7377"/>
<polygon fill="#ff0000" stroke="#ff0000" stroke-width="2" points="134.7135,-132.3984 125.444,-127.2675 129.4907,-137.0591 134.7135,-132.3984"/>
<text text-anchor="middle" x="258.6163" y="-254.0325" font-family="Times,serif" font-size="14.00" fill="#000000">subst h</text>
<text text-anchor="middle" x="258.6163" y="-239.0325" font-family="Times,serif" font-size="14.00" fill="#000000">done</text>
<text text-anchor="middle" x="258.6163" y="-224.0325" font-family="Times,serif" font-size="14.00" fill="#000000">$&#45;100.00$</text>
</g>
<!-- 0&#45;&gt;1 -->
<g id="edge3" class="edge">
<title>0&#45;&gt;1</title>
<path fill="none" stroke="#ff0000" stroke-width="2" d="M391.5556,-308.6149C368.0203,-297.1458 343.723,-282.6951 324.1163,-265.2325 306.3484,-249.4077 314.6902,-233.7597 295.1163,-220.2325 263.7062,-198.5257 245.0314,-219.7694 211.1163,-202.2325 179.3744,-185.8194 149.9415,-157.7905 129.5241,-135.3998"/>
<polygon fill="#ff0000" stroke="#ff0000" stroke-width="2" points="131.9598,-132.8725 122.6892,-127.7433 126.7378,-137.5342 131.9598,-132.8725"/>
<text text-anchor="middle" x="360.6163" y="-254.0325" font-family="Times,serif" font-size="14.00" fill="#000000">simp [h]</text>
<text text-anchor="middle" x="360.6163" y="-239.0325" font-family="Times,serif" font-size="14.00" fill="#000000">done</text>
<text text-anchor="middle" x="360.6163" y="-224.0325" font-family="Times,serif" font-size="14.00" fill="#000000">$&#45;100.00$</text>
</g>
<!-- 2 -->
<g id="node3" class="node">
<title>2</title>
<ellipse fill="none" stroke="#000000" cx="321.1163" cy="-101.1163" rx="101.2327" ry="58.8803"/>
<text text-anchor="middle" x="321.1163" y="-127.4163" font-family="Times,serif" font-size="14.00" fill="#000000">(1/1)</text>
<text text-anchor="middle" x="321.1163" y="-112.4163" font-family="Times,serif" font-size="14.00" fill="#000000">case refl</text>
<text text-anchor="middle" x="321.1163" y="-97.4163" font-family="Times,serif" font-size="14.00" fill="#000000">n : Nat</text>
<text text-anchor="middle" x="321.1163" y="-82.4163" font-family="Times,serif" font-size="14.00" fill="#000000">⊢ n = n ∨ ¬n = n</text>
<text text-anchor="middle" x="321.1163" y="-67.4163" font-family="Times,serif" font-size="14.00" fill="#000000">$0.66$</text>
</g>
<!-- 0&#45;&gt;2 -->
<g id="edge4" class="edge">
<title>0&#45;&gt;2</title>
<path fill="none" stroke="#000000" d="M443.6385,-286.6766C419.6015,-250.2725 388.0557,-202.4963 362.9934,-164.5394"/>
<polygon fill="#000000" stroke="#000000" points="365.8552,-162.5215 357.4243,-156.105 360.0137,-166.3786 365.8552,-162.5215"/>
<text text-anchor="middle" x="456.1163" y="-246.5325" font-family="Times,serif" font-size="14.00" fill="#000000">cases h</text>
<text text-anchor="middle" x="456.1163" y="-231.5325" font-family="Times,serif" font-size="14.00" fill="#000000">$0.66$</text>
</g>
<!-- 3 -->
<g id="node4" class="node">
<title>3</title>
<ellipse fill="none" stroke="#000000" cx="548.1163" cy="-101.1163" rx="107.4605" ry="101.2327"/>
<text text-anchor="middle" x="548.1163" y="-157.4163" font-family="Times,serif" font-size="14.00" fill="#000000">(1/2)</text>
<text text-anchor="middle" x="548.1163" y="-142.4163" font-family="Times,serif" font-size="14.00" fill="#000000">case zero</text>
<text text-anchor="middle" x="548.1163" y="-127.4163" font-family="Times,serif" font-size="14.00" fill="#000000">m : Nat</text>
<text text-anchor="middle" x="548.1163" y="-112.4163" font-family="Times,serif" font-size="14.00" fill="#000000">h : 0 = m</text>
<text text-anchor="middle" x="548.1163" y="-97.4163" font-family="Times,serif" font-size="14.00" fill="#000000">⊢ 0 = m ∨ ¬0 = m</text>
<text text-anchor="middle" x="548.1163" y="-82.4163" font-family="Times,serif" font-size="14.00" fill="#000000">(2/2)</text>
<text text-anchor="middle" x="548.1163" y="-67.4163" font-family="Times,serif" font-size="14.00" fill="#000000">case succ</text>
<text text-anchor="middle" x="548.1163" y="-52.4163" font-family="Times,serif" font-size="14.00" fill="#000000">m n✝ : N...</text>
<text text-anchor="middle" x="548.1163" y="-37.4163" font-family="Times,serif" font-size="14.00" fill="#000000">$0.69$</text>
</g>
<!-- 0&#45;&gt;3 -->
<g id="edge5" class="edge">
<title>0&#45;&gt;3</title>
<path fill="none" stroke="#000000" d="M496.5772,-283.63C502.9205,-261.1665 510.3855,-234.731 517.6348,-209.0592"/>
<polygon fill="#000000" stroke="#000000" points="521.0505,-209.8424 520.3998,-199.2675 514.3139,-207.94 521.0505,-209.8424"/>
<text text-anchor="middle" x="541.1163" y="-246.5325" font-family="Times,serif" font-size="14.00" fill="#000000">cases n</text>
<text text-anchor="middle" x="541.1163" y="-231.5325" font-family="Times,serif" font-size="14.00" fill="#000000">$0.69$</text>
</g>
<!-- 4 -->
<g id="node5" class="node">
<title>4</title>
<ellipse fill="none" stroke="#000000" cx="736.1163" cy="-101.1163" rx="62.8651" ry="69.0935"/>
<text text-anchor="middle" x="736.1163" y="-134.9163" font-family="Times,serif" font-size="14.00" fill="#000000">(1/1)</text>
<text text-anchor="middle" x="736.1163" y="-119.9163" font-family="Times,serif" font-size="14.00" fill="#000000">case h</text>
<text text-anchor="middle" x="736.1163" y="-104.9163" font-family="Times,serif" font-size="14.00" fill="#000000">n m : Nat</text>
<text text-anchor="middle" x="736.1163" y="-89.9163" font-family="Times,serif" font-size="14.00" fill="#000000">h : n = m</text>
<text text-anchor="middle" x="736.1163" y="-74.9163" font-family="Times,serif" font-size="14.00" fill="#000000">⊢ ¬n = m</text>
<text text-anchor="middle" x="736.1163" y="-59.9163" font-family="Times,serif" font-size="14.00" fill="#000000">$0.68$</text>
</g>
<!-- 0&#45;&gt;4 -->
<g id="edge6" class="edge">
<title>0&#45;&gt;4</title>
<path fill="none" stroke="#000000" d="M549.2515,-296.9709C585.5964,-271.5489 629.6312,-237.7888 664.1163,-202.2325 674.7009,-191.3191 684.9196,-178.7417 694.1702,-166.2463"/>
<polygon fill="#000000" stroke="#000000" points="697.0659,-168.2151 700.1035,-158.0651 691.3992,-164.1054 697.0659,-168.2151"/>
<text text-anchor="middle" x="667.1163" y="-246.5325" font-family="Times,serif" font-size="14.00" fill="#000000">right</text>
<text text-anchor="middle" x="667.1163" y="-231.5325" font-family="Times,serif" font-size="14.00" fill="#000000">$0.68$</text>
</g>
<!-- 5 -->
<g id="node6" class="node">
<title>5</title>
<ellipse fill="none" stroke="#000000" cx="931.1163" cy="-101.1163" rx="113.6886" ry="58.8803"/>
<text text-anchor="middle" x="931.1163" y="-127.4163" font-family="Times,serif" font-size="14.00" fill="#000000">(1/1)</text>
<text text-anchor="middle" x="931.1163" y="-112.4163" font-family="Times,serif" font-size="14.00" fill="#000000">n m : Nat</text>
<text text-anchor="middle" x="931.1163" y="-97.4163" font-family="Times,serif" font-size="14.00" fill="#000000">h : n = m</text>
<text text-anchor="middle" x="931.1163" y="-82.4163" font-family="Times,serif" font-size="14.00" fill="#000000">⊢ m = m ∨ ¬m = m</text>
<text text-anchor="middle" x="931.1163" y="-67.4163" font-family="Times,serif" font-size="14.00" fill="#000000">$0.67$</text>
</g>
<!-- 0&#45;&gt;5 -->
<g id="edge7" class="edge">
<title>0&#45;&gt;5</title>
<path fill="none" stroke="#000000" d="M573.4621,-312.6821C612.0253,-299.6032 656.813,-283.1047 696.1163,-265.2325 748.106,-241.5915 760.9866,-234.4913 808.1163,-202.2325 827.4038,-189.0308 847.3681,-173.5195 865.4581,-158.6643"/>
<polygon fill="#000000" stroke="#000000" points="868.1607,-160.9705 873.6287,-151.8957 863.695,-155.5799 868.1607,-160.9705"/>
<text text-anchor="middle" x="807.1163" y="-246.5325" font-family="Times,serif" font-size="14.00" fill="#000000">rw [h]</text>
<text text-anchor="middle" x="807.1163" y="-231.5325" font-family="Times,serif" font-size="14.00" fill="#000000">$0.67$</text>
</g>
<!-- 6 -->
<g id="node7" class="node">
<title>6</title>
<ellipse fill="none" stroke="#000000" cx="1170.1163" cy="-101.1163" rx="107.4605" ry="101.2327"/>
<text text-anchor="middle" x="1170.1163" y="-157.4163" font-family="Times,serif" font-size="14.00" fill="#000000">(1/2)</text>
<text text-anchor="middle" x="1170.1163" y="-142.4163" font-family="Times,serif" font-size="14.00" fill="#000000">case pos</text>
<text text-anchor="middle" x="1170.1163" y="-127.4163" font-family="Times,serif" font-size="14.00" fill="#000000">n m : Nat</text>
<text text-anchor="middle" x="1170.1163" y="-112.4163" font-family="Times,serif" font-size="14.00" fill="#000000">h✝ : n = m</text>
<text text-anchor="middle" x="1170.1163" y="-97.4163" font-family="Times,serif" font-size="14.00" fill="#000000">h : n = 0</text>
<text text-anchor="middle" x="1170.1163" y="-82.4163" font-family="Times,serif" font-size="14.00" fill="#000000">⊢ n = m ∨ ¬n = m</text>
<text text-anchor="middle" x="1170.1163" y="-67.4163" font-family="Times,serif" font-size="14.00" fill="#000000">(2/2)</text>
<text text-anchor="middle" x="1170.1163" y="-52.4163" font-family="Times,serif" font-size="14.00" fill="#000000">case n...</text>
<text text-anchor="middle" x="1170.1163" y="-37.4163" font-family="Times,serif" font-size="14.00" fill="#000000">$0.84$</text>
</g>
<!-- 0&#45;&gt;6 -->
<g id="edge8" class="edge">
<title>0&#45;&gt;6</title>
<path fill="none" stroke="#000000" d="M586.2883,-332.6435C706.1787,-318.5284 904.0733,-284.0339 1054.1163,-202.2325 1065.5184,-196.0163 1076.7727,-188.515 1087.5244,-180.4408"/>
<polygon fill="#000000" stroke="#000000" points="1089.8704,-183.0512 1095.6423,-174.1666 1085.5897,-177.5126 1089.8704,-183.0512"/>
<text text-anchor="middle" x="1077.6163" y="-246.5325" font-family="Times,serif" font-size="14.00" fill="#000000">by_cases h : n = 0</text>
<text text-anchor="middle" x="1077.6163" y="-231.5325" font-family="Times,serif" font-size="14.00" fill="#000000">$0.84$</text>
</g>
</g>
</svg>
