<?xml version="1.0" encoding="UTF-8" standalone="no"?>
<!DOCTYPE svg PUBLIC "-//W3C//DTD SVG 1.1//EN"
 "http://www.w3.org/Graphics/SVG/1.1/DTD/svg11.dtd">
<!-- Generated by graphviz version 2.40.1 (0)
 -->
<!-- Title: %3 Pages: 1 -->
<svg width="592pt" height="366pt"
 viewBox="0.00 0.00 592.18 366.19" xmlns="http://www.w3.org/2000/svg" xmlns:xlink="http://www.w3.org/1999/xlink">
<g id="graph0" class="graph" transform="scale(1 1) rotate(0) translate(4 362.1859)">
<title>%3</title>
<polygon fill="#ffffff" stroke="transparent" points="-4,4 -4,-362.1859 588.1751,-362.1859 588.1751,4 -4,4"/>
<!-- 0 -->
<g id="node1" class="node">
<title>0</title>
<ellipse fill="none" stroke="#000000" cx="291.1751" cy="-288.8894" rx="65.5227" ry="69.0935"/>
<text text-anchor="middle" x="291.1751" y="-322.6894" font-family="Times,serif" font-size="14.00" fill="#000000">(1/1)</text>
<text text-anchor="middle" x="291.1751" y="-307.6894" font-family="Times,serif" font-size="14.00" fill="#000000">p q : Prop</text>
<text text-anchor="middle" x="291.1751" y="-292.6894" font-family="Times,serif" font-size="14.00" fill="#000000">hp : ¬p</text>
<text text-anchor="middle" x="291.1751" y="-277.6894" font-family="Times,serif" font-size="14.00" fill="#000000">hq : ¬q</text>
<text text-anchor="middle" x="291.1751" y="-262.6894" font-family="Times,serif" font-size="14.00" fill="#000000">⊢ ¬(p ∨ q)</text>
<text text-anchor="middle" x="291.1751" y="-247.6894" font-family="Times,serif" font-size="14.00" fill="#000000">$0.00$</text>
</g>
<!-- 1 -->
<g id="node2" class="node">
<title>1</title>
<ellipse fill="none" stroke="#000000" cx="67.1751" cy="-69.2965" rx="67.3507" ry="69.0935"/>
<text text-anchor="middle" x="67.1751" y="-103.0965" font-family="Times,serif" font-size="14.00" fill="#000000">(1/1)</text>
<text text-anchor="middle" x="67.1751" y="-88.0965" font-family="Times,serif" font-size="14.00" fill="#000000">p q : Prop</text>
<text text-anchor="middle" x="67.1751" y="-73.0965" font-family="Times,serif" font-size="14.00" fill="#000000">hp : ¬p</text>
<text text-anchor="middle" x="67.1751" y="-58.0965" font-family="Times,serif" font-size="14.00" fill="#000000">hq : ¬q</text>
<text text-anchor="middle" x="67.1751" y="-43.0965" font-family="Times,serif" font-size="14.00" fill="#000000">⊢ ¬p ∧ ¬q</text>
<text text-anchor="middle" x="67.1751" y="-28.0965" font-family="Times,serif" font-size="14.00" fill="#000000">$0.69$</text>
</g>
<!-- 0&#45;&gt;1 -->
<g id="edge1" class="edge">
<title>0&#45;&gt;1</title>
<path fill="none" stroke="#000000" d="M225.597,-279.1114C178.301,-268.4363 117.0464,-246.4369 83.1751,-201.5929 71.7691,-186.4919 66.0186,-167.5341 63.4739,-148.726"/>
<polygon fill="#000000" stroke="#000000" points="66.9374,-148.1962 62.3984,-138.623 59.9768,-148.9374 66.9374,-148.1962"/>
<text text-anchor="middle" x="129.6751" y="-182.8929" font-family="Times,serif" font-size="14.00" fill="#000000">simp at hq ⊢</text>
<text text-anchor="middle" x="129.6751" y="-167.8929" font-family="Times,serif" font-size="14.00" fill="#000000">$0.69$</text>
</g>
<!-- 2 -->
<g id="node3" class="node">
<title>2</title>
<ellipse fill="none" stroke="#000000" cx="272.1751" cy="-69.2965" rx="101.2327" ry="26.7407"/>
<text text-anchor="middle" x="272.1751" y="-73.0965" font-family="Times,serif" font-size="14.00" fill="#000000">not in proof mode</text>
<text text-anchor="middle" x="272.1751" y="-58.0965" font-family="Times,serif" font-size="14.00" fill="#000000">$&#45;100.00$</text>
</g>
<!-- 0&#45;&gt;2 -->
<g id="edge2" class="edge">
<title>0&#45;&gt;2</title>
<path fill="none" stroke="#000000" d="M232.984,-256.1077C213.7792,-242.0297 194.6625,-223.6839 184.1751,-201.5929 166.8538,-165.1065 198.1318,-127.0801 228.0836,-101.2105"/>
<polygon fill="#000000" stroke="#000000" points="230.6036,-103.6666 236.0459,-94.5763 226.1227,-98.2887 230.6036,-103.6666"/>
<text text-anchor="middle" x="226.6751" y="-190.3929" font-family="Times,serif" font-size="14.00" fill="#000000">exact hp hp</text>
<text text-anchor="middle" x="226.6751" y="-175.3929" font-family="Times,serif" font-size="14.00" fill="#000000">done</text>
<text text-anchor="middle" x="226.6751" y="-160.3929" font-family="Times,serif" font-size="14.00" fill="#000000">$&#45;100.00$</text>
</g>
<!-- 0&#45;&gt;2 -->
<g id="edge3" class="edge">
<title>0&#45;&gt;2</title>
<path fill="none" stroke="#000000" d="M285.1895,-219.7102C281.9493,-182.2618 278.0742,-137.4752 275.3997,-106.5647"/>
<polygon fill="#000000" stroke="#000000" points="278.8559,-105.9058 274.5068,-96.2448 271.8819,-106.5093 278.8559,-105.9058"/>
<text text-anchor="middle" x="331.6751" y="-190.3929" font-family="Times,serif" font-size="14.00" fill="#000000">simp [hp, hq]</text>
<text text-anchor="middle" x="331.6751" y="-175.3929" font-family="Times,serif" font-size="14.00" fill="#000000">done</text>
<text text-anchor="middle" x="331.6751" y="-160.3929" font-family="Times,serif" font-size="14.00" fill="#000000">$&#45;100.00$</text>
</g>
<!-- 3 -->
<g id="node4" class="node">
<title>3</title>
<ellipse fill="none" stroke="#000000" cx="489.1751" cy="-69.2965" rx="60.623" ry="69.0935"/>
<text text-anchor="middle" x="489.1751" y="-103.0965" font-family="Times,serif" font-size="14.00" fill="#000000">(1/1)</text>
<text text-anchor="middle" x="489.1751" y="-88.0965" font-family="Times,serif" font-size="14.00" fill="#000000">p q : Prop</text>
<text text-anchor="middle" x="489.1751" y="-73.0965" font-family="Times,serif" font-size="14.00" fill="#000000">hp : ¬p</text>
<text text-anchor="middle" x="489.1751" y="-58.0965" font-family="Times,serif" font-size="14.00" fill="#000000">hq : ¬q</text>
<text text-anchor="middle" x="489.1751" y="-43.0965" font-family="Times,serif" font-size="14.00" fill="#000000">⊢ ¬q</text>
<text text-anchor="middle" x="489.1751" y="-28.0965" font-family="Times,serif" font-size="14.00" fill="#000000">$0.54$</text>
</g>
<!-- 0&#45;&gt;3 -->
<g id="edge4" class="edge">
<title>0&#45;&gt;3</title>
<path fill="none" stroke="#000000" d="M342.3722,-244.9751C356.3919,-231.7462 371.0516,-216.7076 383.1751,-201.5929 397.7687,-183.3988 396.284,-175.3289 410.1751,-156.5929 418.4038,-145.4943 427.7947,-134.1707 437.1604,-123.5145"/>
<polygon fill="#000000" stroke="#000000" points="439.9185,-125.6803 443.9586,-115.886 434.6925,-121.0231 439.9185,-125.6803"/>
<text text-anchor="middle" x="457.6751" y="-182.8929" font-family="Times,serif" font-size="14.00" fill="#000000">simp [hp, hp]</text>
<text text-anchor="middle" x="457.6751" y="-167.8929" font-family="Times,serif" font-size="14.00" fill="#000000">$0.58$</text>
</g>
<!-- 0&#45;&gt;3 -->
<g id="edge5" class="edge">
<title>0&#45;&gt;3</title>
<path fill="none" stroke="#000000" d="M356.6318,-281.5134C406.5959,-272.0652 472.2737,-250.5479 505.1751,-201.5929 516.6536,-184.5138 518.2244,-163.3324 515.3866,-142.961"/>
<polygon fill="#000000" stroke="#000000" points="518.8242,-142.3 513.6634,-133.0471 511.9276,-143.4987 518.8242,-142.3"/>
<text text-anchor="middle" x="550.1751" y="-182.8929" font-family="Times,serif" font-size="14.00" fill="#000000">simp [hp]</text>
<text text-anchor="middle" x="550.1751" y="-167.8929" font-family="Times,serif" font-size="14.00" fill="#000000">$0.54$</text>
</g>
</g>
</svg>
