<?xml version="1.0" encoding="UTF-8" standalone="no"?>
<!DOCTYPE svg PUBLIC "-//W3C//DTD SVG 1.1//EN"
 "http://www.w3.org/Graphics/SVG/1.1/DTD/svg11.dtd">
<!-- Generated by graphviz version 2.40.1 (0)
 -->
<!-- Title: %3 Pages: 1 -->
<svg width="675pt" height="571pt"
 viewBox="0.00 0.00 675.12 570.78" xmlns="http://www.w3.org/2000/svg" xmlns:xlink="http://www.w3.org/1999/xlink">
<g id="graph0" class="graph" transform="scale(1 1) rotate(0) translate(4 566.7788)">
<title>%3</title>
<polygon fill="#ffffff" stroke="transparent" points="-4,4 -4,-566.7788 671.1163,-566.7788 671.1163,4 -4,4"/>
<!-- 0 -->
<g id="node1" class="node">
<title>0</title>
<ellipse fill="none" stroke="#000000" cx="277.1163" cy="-504.0889" rx="55.7232" ry="58.8803"/>
<text text-anchor="middle" x="277.1163" y="-530.3889" font-family="Times,serif" font-size="14.00" fill="#000000">(1/1)</text>
<text text-anchor="middle" x="277.1163" y="-515.3889" font-family="Times,serif" font-size="14.00" fill="#000000">a b : Nat</text>
<text text-anchor="middle" x="277.1163" y="-500.3889" font-family="Times,serif" font-size="14.00" fill="#000000">h : a &lt; b</text>
<text text-anchor="middle" x="277.1163" y="-485.3889" font-family="Times,serif" font-size="14.00" fill="#000000">⊢ a ≤ b</text>
<text text-anchor="middle" x="277.1163" y="-470.3889" font-family="Times,serif" font-size="14.00" fill="#000000">$0.00$</text>
</g>
<!-- 1 -->
<g id="node2" class="node">
<title>1</title>
<ellipse fill="none" stroke="#000000" cx="188.1163" cy="-288.8894" rx="55.7232" ry="69.0935"/>
<text text-anchor="middle" x="188.1163" y="-322.6894" font-family="Times,serif" font-size="14.00" fill="#000000">(1/1)</text>
<text text-anchor="middle" x="188.1163" y="-307.6894" font-family="Times,serif" font-size="14.00" fill="#000000">case a</text>
<text text-anchor="middle" x="188.1163" y="-292.6894" font-family="Times,serif" font-size="14.00" fill="#000000">a b : Nat</text>
<text text-anchor="middle" x="188.1163" y="-277.6894" font-family="Times,serif" font-size="14.00" fill="#000000">h : a &lt; b</text>
<text text-anchor="middle" x="188.1163" y="-262.6894" font-family="Times,serif" font-size="14.00" fill="#000000">⊢ a &lt; b</text>
<text text-anchor="middle" x="188.1163" y="-247.6894" font-family="Times,serif" font-size="14.00" fill="#000000">$0.46$</text>
</g>
<!-- 0&#45;&gt;1 -->
<g id="edge1" class="edge">
<title>0&#45;&gt;1</title>
<path fill="none" stroke="#000000" d="M232.3649,-468.3209C220.5951,-456.5668 209.2173,-442.581 202.1163,-427.3991 193.6192,-409.2322 189.1596,-388.2896 187.013,-368.2796"/>
<polygon fill="#000000" stroke="#000000" points="190.4916,-367.8837 186.1147,-358.2353 183.5195,-368.5073 190.4916,-367.8837"/>
<text text-anchor="middle" x="265.6163" y="-416.1991" font-family="Times,serif" font-size="14.00" fill="#000000">apply Nat.le_of_lt</text>
<text text-anchor="middle" x="265.6163" y="-401.1991" font-family="Times,serif" font-size="14.00" fill="#000000">$0.46$</text>
</g>
<!-- 2 -->
<g id="node3" class="node">
<title>2</title>
<ellipse fill="none" stroke="#000000" cx="365.1163" cy="-288.8894" rx="103.4757" ry="90.5193"/>
<text text-anchor="middle" x="365.1163" y="-337.6894" font-family="Times,serif" font-size="14.00" fill="#000000">(1/1)</text>
<text text-anchor="middle" x="365.1163" y="-322.6894" font-family="Times,serif" font-size="14.00" fill="#000000">case intro</text>
<text text-anchor="middle" x="365.1163" y="-307.6894" font-family="Times,serif" font-size="14.00" fill="#000000">a b : Nat</text>
<text text-anchor="middle" x="365.1163" y="-292.6894" font-family="Times,serif" font-size="14.00" fill="#000000">h : a &lt; b</text>
<text text-anchor="middle" x="365.1163" y="-277.6894" font-family="Times,serif" font-size="14.00" fill="#000000">k : Nat</text>
<text text-anchor="middle" x="365.1163" y="-262.6894" font-family="Times,serif" font-size="14.00" fill="#000000">hk : b = a + k + 1</text>
<text text-anchor="middle" x="365.1163" y="-247.6894" font-family="Times,serif" font-size="14.00" fill="#000000">⊢ a ≤ b</text>
<text text-anchor="middle" x="365.1163" y="-232.6894" font-family="Times,serif" font-size="14.00" fill="#000000">$0.64$</text>
</g>
<!-- 0&#45;&gt;2 -->
<g id="edge2" class="edge">
<title>0&#45;&gt;2</title>
<path fill="none" stroke="#000000" d="M314.0912,-459.7414C321.2235,-449.5824 328.043,-438.4938 333.1163,-427.3991 338.7323,-415.1175 343.4095,-401.758 347.2926,-388.3426"/>
<polygon fill="#000000" stroke="#000000" points="350.7007,-389.1493 349.9819,-378.5789 343.952,-387.2904 350.7007,-389.1493"/>
<text text-anchor="middle" x="505.6163" y="-416.1991" font-family="Times,serif" font-size="14.00" fill="#000000">rcases Nat.exists_eq_add_of_lt h with ⟨k, hk⟩</text>
<text text-anchor="middle" x="505.6163" y="-401.1991" font-family="Times,serif" font-size="14.00" fill="#000000">$0.64$</text>
</g>
<!-- 3 -->
<g id="node4" class="node">
<title>3</title>
<ellipse fill="none" stroke="#000000" cx="101.1163" cy="-58.6899" rx="101.2327" ry="26.7407"/>
<text text-anchor="middle" x="101.1163" y="-62.4899" font-family="Times,serif" font-size="14.00" fill="#000000">not in proof mode</text>
<text text-anchor="middle" x="101.1163" y="-47.4899" font-family="Times,serif" font-size="14.00" fill="#000000">$&#45;99.54$</text>
</g>
<!-- 1&#45;&gt;3 -->
<g id="edge3" class="edge">
<title>1&#45;&gt;3</title>
<path fill="none" stroke="#000000" d="M164.3431,-225.9864C148.4316,-183.8848 128.0525,-129.9622 114.7963,-94.8868"/>
<polygon fill="#000000" stroke="#000000" points="118.0652,-93.6358 111.2559,-85.519 111.5172,-96.1106 118.0652,-93.6358"/>
<text text-anchor="middle" x="195.1163" y="-169.1797" font-family="Times,serif" font-size="14.00" fill="#000000">simpa using h</text>
<text text-anchor="middle" x="195.1163" y="-154.1797" font-family="Times,serif" font-size="14.00" fill="#000000">done</text>
<text text-anchor="middle" x="195.1163" y="-139.1797" font-family="Times,serif" font-size="14.00" fill="#000000">$&#45;100.00$</text>
</g>
<!-- 4 -->
<g id="node5" class="node">
<title>4</title>
<ellipse fill="none" stroke="#000000" cx="276.1163" cy="-58.6899" rx="55.7232" ry="58.8803"/>
<text text-anchor="middle" x="276.1163" y="-84.9899" font-family="Times,serif" font-size="14.00" fill="#000000">(1/1)</text>
<text text-anchor="middle" x="276.1163" y="-69.9899" font-family="Times,serif" font-size="14.00" fill="#000000">a b : Nat</text>
<text text-anchor="middle" x="276.1163" y="-54.9899" font-family="Times,serif" font-size="14.00" fill="#000000">h : a &lt; b</text>
<text text-anchor="middle" x="276.1163" y="-39.9899" font-family="Times,serif" font-size="14.00" fill="#000000">⊢ a ≤ a</text>
<text text-anchor="middle" x="276.1163" y="-24.9899" font-family="Times,serif" font-size="14.00" fill="#000000">$1.00$</text>
</g>
<!-- 1&#45;&gt;4 -->
<g id="edge4" class="edge">
<title>1&#45;&gt;4</title>
<path fill="none" stroke="#000000" d="M222.8774,-234.3792C232.4608,-217.5605 242.1307,-198.6478 249.1163,-180.3797 255.5775,-163.4829 260.698,-144.6455 264.6644,-126.9366"/>
<polygon fill="#000000" stroke="#000000" points="268.1928,-127.1751 266.8678,-116.6635 261.3484,-125.7071 268.1928,-127.1751"/>
<text text-anchor="middle" x="358.1163" y="-161.6797" font-family="Times,serif" font-size="14.00" fill="#000000">apply Nat.lt_of_le_of_lt _ h</text>
<text text-anchor="middle" x="358.1163" y="-146.6797" font-family="Times,serif" font-size="14.00" fill="#000000">$0.54$</text>
</g>
</g>
</svg>
