<?xml version="1.0" encoding="UTF-8" standalone="no"?>
<!DOCTYPE svg PUBLIC "-//W3C//DTD SVG 1.1//EN"
 "http://www.w3.org/Graphics/SVG/1.1/DTD/svg11.dtd">
<!-- Generated by graphviz version 2.40.1 (0)
 -->
<!-- Title: %3 Pages: 1 -->
<svg width="602pt" height="345pt"
 viewBox="0.00 0.00 602.12 344.97" xmlns="http://www.w3.org/2000/svg" xmlns:xlink="http://www.w3.org/1999/xlink">
<g id="graph0" class="graph" transform="scale(1 1) rotate(0) translate(4 340.9727)">
<title>%3</title>
<polygon fill="#ffffff" stroke="transparent" points="-4,4 -4,-340.9727 598.1163,-340.9727 598.1163,4 -4,4"/>
<!-- 0 -->
<g id="node1" class="node">
<title>0</title>
<ellipse fill="none" stroke="#000000" cx="254.1163" cy="-278.2828" rx="89.191" ry="58.8803"/>
<text text-anchor="middle" x="254.1163" y="-304.5828" font-family="Times,serif" font-size="14.00" fill="#000000">(1/1)</text>
<text text-anchor="middle" x="254.1163" y="-289.5828" font-family="Times,serif" font-size="14.00" fill="#000000">p : Prop</text>
<text text-anchor="middle" x="254.1163" y="-274.5828" font-family="Times,serif" font-size="14.00" fill="#000000">hp : p</text>
<text text-anchor="middle" x="254.1163" y="-259.5828" font-family="Times,serif" font-size="14.00" fill="#000000">⊢ True → ∃ x, p</text>
<text text-anchor="middle" x="254.1163" y="-244.5828" font-family="Times,serif" font-size="14.00" fill="#000000">$0.00$</text>
</g>
<!-- 1 -->
<g id="node2" class="node">
<title>1</title>
<ellipse fill="none" stroke="#000000" cx="101.1163" cy="-69.2965" rx="101.2327" ry="26.7407"/>
<text text-anchor="middle" x="101.1163" y="-73.0965" font-family="Times,serif" font-size="14.00" fill="#000000">not in proof mode</text>
<text text-anchor="middle" x="101.1163" y="-58.0965" font-family="Times,serif" font-size="14.00" fill="#000000">$&#45;100.00$</text>
</g>
<!-- 0&#45;&gt;1 -->
<g id="edge1" class="edge">
<title>0&#45;&gt;1</title>
<path fill="none" stroke="#000000" d="M170.4452,-258.0469C119.0638,-243.7373 60.2736,-223.3002 45.1163,-201.5929 23.8678,-171.1623 46.2448,-131.4069 68.7089,-103.45"/>
<polygon fill="#000000" stroke="#000000" points="71.5955,-105.454 75.322,-95.5362 66.224,-100.9654 71.5955,-105.454"/>
<text text-anchor="middle" x="90.6163" y="-190.3929" font-family="Times,serif" font-size="14.00" fill="#000000">rintro ⟨x, hx⟩</text>
<text text-anchor="middle" x="90.6163" y="-175.3929" font-family="Times,serif" font-size="14.00" fill="#000000">done</text>
<text text-anchor="middle" x="90.6163" y="-160.3929" font-family="Times,serif" font-size="14.00" fill="#000000">$&#45;100.00$</text>
</g>
<!-- 0&#45;&gt;1 -->
<g id="edge2" class="edge">
<title>0&#45;&gt;1</title>
<path fill="none" stroke="#000000" d="M195.9477,-233.4708C185.2581,-223.6703 174.7612,-212.84 166.1163,-201.5929 143.4467,-172.0998 125.5644,-133.4455 114.3418,-105.5428"/>
<polygon fill="#000000" stroke="#000000" points="117.5676,-104.1818 110.6531,-96.1544 111.0524,-106.7417 117.5676,-104.1818"/>
<text text-anchor="middle" x="202.6163" y="-190.3929" font-family="Times,serif" font-size="14.00" fill="#000000">simp [hp]</text>
<text text-anchor="middle" x="202.6163" y="-175.3929" font-family="Times,serif" font-size="14.00" fill="#000000">done</text>
<text text-anchor="middle" x="202.6163" y="-160.3929" font-family="Times,serif" font-size="14.00" fill="#000000">$&#45;100.00$</text>
</g>
<!-- 2 -->
<g id="node3" class="node">
<title>2</title>
<ellipse fill="none" stroke="#000000" cx="380.1163" cy="-69.2965" rx="62.4516" ry="69.0935"/>
<text text-anchor="middle" x="380.1163" y="-103.0965" font-family="Times,serif" font-size="14.00" fill="#000000">(1/1)</text>
<text text-anchor="middle" x="380.1163" y="-88.0965" font-family="Times,serif" font-size="14.00" fill="#000000">case intro</text>
<text text-anchor="middle" x="380.1163" y="-73.0965" font-family="Times,serif" font-size="14.00" fill="#000000">p : Prop</text>
<text text-anchor="middle" x="380.1163" y="-58.0965" font-family="Times,serif" font-size="14.00" fill="#000000">hp : p</text>
<text text-anchor="middle" x="380.1163" y="-43.0965" font-family="Times,serif" font-size="14.00" fill="#000000">⊢ ∃ x, p</text>
<text text-anchor="middle" x="380.1163" y="-28.0965" font-family="Times,serif" font-size="14.00" fill="#000000">$0.47$</text>
</g>
<!-- 0&#45;&gt;2 -->
<g id="edge3" class="edge">
<title>0&#45;&gt;2</title>
<path fill="none" stroke="#000000" d="M243.8658,-219.8548C242.8771,-198.8525 245.0754,-175.6608 255.1163,-156.5929 267.8567,-132.3985 290.6692,-113.5155 313.3504,-99.5969"/>
<polygon fill="#000000" stroke="#000000" points="315.1672,-102.5889 322.0155,-94.5049 311.6206,-96.5538 315.1672,-102.5889"/>
<text text-anchor="middle" x="306.6163" y="-182.8929" font-family="Times,serif" font-size="14.00" fill="#000000">rintro ⟨x₁, hx₂⟩</text>
<text text-anchor="middle" x="306.6163" y="-167.8929" font-family="Times,serif" font-size="14.00" fill="#000000">$0.63$</text>
</g>
<!-- 0&#45;&gt;2 -->
<g id="edge4" class="edge">
<title>0&#45;&gt;2</title>
<path fill="none" stroke="#000000" d="M322.0365,-240.0402C335.9101,-229.2901 349.0273,-216.4142 358.1163,-201.5929 367.7701,-185.8505 373.5538,-167.164 376.9388,-148.8688"/>
<polygon fill="#000000" stroke="#000000" points="380.4311,-149.1984 378.582,-138.7662 373.5219,-148.0746 380.4311,-149.1984"/>
<text text-anchor="middle" x="432.6163" y="-182.8929" font-family="Times,serif" font-size="14.00" fill="#000000">rintro ⟨x, hx, rfl⟩</text>
<text text-anchor="middle" x="432.6163" y="-167.8929" font-family="Times,serif" font-size="14.00" fill="#000000">$0.50$</text>
</g>
<!-- 0&#45;&gt;2 -->
<g id="edge5" class="edge">
<title>0&#45;&gt;2</title>
<path fill="none" stroke="#000000" d="M339.8371,-262.0951C401.2477,-248.553 476.2947,-227.3337 495.1163,-201.5929 520.2492,-167.2206 483.556,-130.9011 445.1117,-105.0307"/>
<polygon fill="#000000" stroke="#000000" points="446.6744,-101.8715 436.385,-99.3456 442.8534,-107.7367 446.6744,-101.8715"/>
<text text-anchor="middle" x="548.6163" y="-182.8929" font-family="Times,serif" font-size="14.00" fill="#000000">rintro ⟨x, rfl⟩</text>
<text text-anchor="middle" x="548.6163" y="-167.8929" font-family="Times,serif" font-size="14.00" fill="#000000">$0.47$</text>
</g>
</g>
</svg>
