<?xml version="1.0" encoding="UTF-8" standalone="no"?>
<!DOCTYPE svg PUBLIC "-//W3C//DTD SVG 1.1//EN"
 "http://www.w3.org/Graphics/SVG/1.1/DTD/svg11.dtd">
<!-- Generated by graphviz version 2.40.1 (0)
 -->
<!-- Title: %3 Pages: 1 -->
<svg width="462pt" height="345pt"
 viewBox="0.00 0.00 461.76 344.97" xmlns="http://www.w3.org/2000/svg" xmlns:xlink="http://www.w3.org/1999/xlink">
<g id="graph0" class="graph" transform="scale(1 1) rotate(0) translate(4 340.9727)">
<title>%3</title>
<polygon fill="#ffffff" stroke="transparent" points="-4,4 -4,-340.9727 457.759,-340.9727 457.759,4 -4,4"/>
<!-- 0 -->
<g id="node1" class="node">
<title>0</title>
<ellipse fill="#add8e6" stroke="#000000" cx="199.1402" cy="-278.2828" rx="71.3357" ry="58.8803"/>
<text text-anchor="middle" x="199.1402" y="-304.5828" font-family="Times,serif" font-size="14.00" fill="#000000">(1/1)</text>
<text text-anchor="middle" x="199.1402" y="-289.5828" font-family="Times,serif" font-size="14.00" fill="#000000">p : Prop</text>
<text text-anchor="middle" x="199.1402" y="-274.5828" font-family="Times,serif" font-size="14.00" fill="#000000">h : ¬p</text>
<text text-anchor="middle" x="199.1402" y="-259.5828" font-family="Times,serif" font-size="14.00" fill="#000000">⊢ p → False</text>
<text text-anchor="middle" x="199.1402" y="-244.5828" font-family="Times,serif" font-size="14.00" fill="#000000">$0.00$</text>
</g>
<!-- 1 -->
<g id="node2" class="node">
<title>1</title>
<ellipse fill="#add8e6" stroke="#000000" cx="151.1402" cy="-69.2965" rx="101.2327" ry="26.7407"/>
<text text-anchor="middle" x="151.1402" y="-73.0965" font-family="Times,serif" font-size="14.00" fill="#000000">not in proof mode</text>
<text text-anchor="middle" x="151.1402" y="-58.0965" font-family="Times,serif" font-size="14.00" fill="#000000">$&#45;100.00$</text>
</g>
<!-- 0&#45;&gt;1 -->
<g id="edge1" class="edge">
<title>0&#45;&gt;1</title>
<path fill="none" stroke="#ff0000" stroke-width="2" d="M128.1451,-269.5547C85.6519,-260.2694 34.8582,-241.112 8.1402,-201.5929 -20.6601,-158.994 35.186,-120.3312 85.2946,-95.9544"/>
<polygon fill="#ff0000" stroke="#ff0000" stroke-width="2" points="87.0189,-99.0106 94.5625,-91.5712 84.0261,-92.6826 87.0189,-99.0106"/>
<text text-anchor="middle" x="44.6402" y="-190.3929" font-family="Times,serif" font-size="14.00" fill="#000000">simp [h]</text>
<text text-anchor="middle" x="44.6402" y="-175.3929" font-family="Times,serif" font-size="14.00" fill="#000000">done</text>
<text text-anchor="middle" x="44.6402" y="-160.3929" font-family="Times,serif" font-size="14.00" fill="#000000">$&#45;100.00$</text>
</g>
<!-- 0&#45;&gt;1 -->
<g id="edge2" class="edge">
<title>0&#45;&gt;1</title>
<path fill="none" stroke="#ff0000" stroke-width="2" d="M140.491,-244.2926C125.9224,-232.7439 112.1833,-218.4226 104.1402,-201.5929 88.8712,-169.6435 106.0683,-131.3506 123.8004,-104.2032"/>
<polygon fill="#ff0000" stroke="#ff0000" stroke-width="2" points="126.7876,-106.035 129.5359,-95.8029 121.0066,-102.0879 126.7876,-106.035"/>
<text text-anchor="middle" x="140.6402" y="-190.3929" font-family="Times,serif" font-size="14.00" fill="#000000">exact h</text>
<text text-anchor="middle" x="140.6402" y="-175.3929" font-family="Times,serif" font-size="14.00" fill="#000000">done</text>
<text text-anchor="middle" x="140.6402" y="-160.3929" font-family="Times,serif" font-size="14.00" fill="#000000">$&#45;100.00$</text>
</g>
<!-- 0&#45;&gt;1 -->
<g id="edge3" class="edge">
<title>0&#45;&gt;1</title>
<path fill="none" stroke="#ff0000" stroke-width="2" d="M189.9226,-219.826C186.3902,-199.6883 182.022,-177.0585 177.1402,-156.5929 173.137,-139.8109 167.8237,-121.4777 163.044,-105.9636"/>
<polygon fill="#ff0000" stroke="#ff0000" stroke-width="2" points="166.3227,-104.7211 159.9992,-96.2203 159.6413,-106.809 166.3227,-104.7211"/>
<text text-anchor="middle" x="227.1402" y="-190.3929" font-family="Times,serif" font-size="14.00" fill="#000000">unfold true</text>
<text text-anchor="middle" x="227.1402" y="-175.3929" font-family="Times,serif" font-size="14.00" fill="#000000">done</text>
<text text-anchor="middle" x="227.1402" y="-160.3929" font-family="Times,serif" font-size="14.00" fill="#000000">$&#45;100.00$</text>
</g>
<!-- 0&#45;&gt;1 -->
<g id="edge4" class="edge">
<title>0&#45;&gt;1</title>
<path fill="none" stroke="#ff0000" stroke-width="2" d="M249.0276,-236.1653C258.0514,-225.8675 266.166,-214.1584 271.1402,-201.5929 278.5016,-182.997 280.2146,-174.4158 271.1402,-156.5929 258.3395,-131.4513 234.5317,-111.8451 211.4762,-97.6393"/>
<polygon fill="#ff0000" stroke="#ff0000" stroke-width="2" points="213.092,-94.5288 202.7013,-92.4588 209.5332,-100.5567 213.092,-94.5288"/>
<text text-anchor="middle" x="315.6402" y="-190.3929" font-family="Times,serif" font-size="14.00" fill="#000000">simp [h, h]</text>
<text text-anchor="middle" x="315.6402" y="-175.3929" font-family="Times,serif" font-size="14.00" fill="#000000">done</text>
<text text-anchor="middle" x="315.6402" y="-160.3929" font-family="Times,serif" font-size="14.00" fill="#000000">$&#45;100.00$</text>
</g>
<!-- 2 -->
<g id="node3" class="node">
<title>2</title>
<ellipse fill="none" stroke="#000000" cx="402.1402" cy="-69.2965" rx="51.7379" ry="69.0935"/>
<text text-anchor="middle" x="402.1402" y="-103.0965" font-family="Times,serif" font-size="14.00" fill="#000000">(1/1)</text>
<text text-anchor="middle" x="402.1402" y="-88.0965" font-family="Times,serif" font-size="14.00" fill="#000000">p : Prop</text>
<text text-anchor="middle" x="402.1402" y="-73.0965" font-family="Times,serif" font-size="14.00" fill="#000000">h : ¬p</text>
<text text-anchor="middle" x="402.1402" y="-58.0965" font-family="Times,serif" font-size="14.00" fill="#000000">h&#39; : p</text>
<text text-anchor="middle" x="402.1402" y="-43.0965" font-family="Times,serif" font-size="14.00" fill="#000000">⊢ False</text>
<text text-anchor="middle" x="402.1402" y="-28.0965" font-family="Times,serif" font-size="14.00" fill="#000000">$0.75$</text>
</g>
<!-- 0&#45;&gt;2 -->
<g id="edge5" class="edge">
<title>0&#45;&gt;2</title>
<path fill="none" stroke="#000000" d="M266.7203,-259.2812C298.3113,-247.3232 334.1596,-228.8668 358.1402,-201.5929 371.8068,-186.0494 381.2526,-166.1297 387.7726,-146.4913"/>
<polygon fill="#000000" stroke="#000000" points="391.1298,-147.4814 390.7439,-136.8936 384.443,-145.4112 391.1298,-147.4814"/>
<text text-anchor="middle" x="408.1402" y="-182.8929" font-family="Times,serif" font-size="14.00" fill="#000000">intro h&#39;</text>
<text text-anchor="middle" x="408.1402" y="-167.8929" font-family="Times,serif" font-size="14.00" fill="#000000">$0.75$</text>
</g>
</g>
</svg>
