<svg xmlns="http://www.w3.org/2000/svg" width="860" height="430" viewBox="0 0 860 430">
<rect width="100%" height="100%" fill="white"/>
<text x="430.0" y="28" text-anchor="middle" font-family="Arial" font-size="18" font-weight="700">Easy_Lean Generated Action Quality</text>
<text x="18" y="201.0" transform="rotate(-90 18 201.0)" text-anchor="middle" font-family="Arial" font-size="13">rate</text>
<line x1="70" y1="52" x2="70" y2="350" stroke="#333"/>
<line x1="70" y1="350" x2="820" y2="350" stroke="#333"/>
<line x1="66" y1="350.0" x2="820" y2="350.0" stroke="#e4e4e4"/>
<text x="62" y="354.0" text-anchor="end" font-family="Arial" font-size="11">0.00</text>
<line x1="66" y1="290.4" x2="820" y2="290.4" stroke="#e4e4e4"/>
<text x="62" y="294.4" text-anchor="end" font-family="Arial" font-size="11">0.20</text>
<line x1="66" y1="230.8" x2="820" y2="230.8" stroke="#e4e4e4"/>
<text x="62" y="234.8" text-anchor="end" font-family="Arial" font-size="11">0.40</text>
<line x1="66" y1="171.2" x2="820" y2="171.2" stroke="#e4e4e4"/>
<text x="62" y="175.2" text-anchor="end" font-family="Arial" font-size="11">0.60</text>
<line x1="66" y1="111.6" x2="820" y2="111.6" stroke="#e4e4e4"/>
<text x="62" y="115.6" text-anchor="end" font-family="Arial" font-size="11">0.80</text>
<line x1="66" y1="52.0" x2="820" y2="52.0" stroke="#e4e4e4"/>
<text x="62" y="56.0" text-anchor="end" font-family="Arial" font-size="11">1.00</text>
<text x="195.0" y="385" text-anchor="middle" font-family="Arial" font-size="13">E1</text>
<rect x="153.0" y="52.0" width="38.0" height="298.0" fill="#2f6fdd"/>
<text x="172.0" y="47.0" text-anchor="middle" font-family="Arial" font-size="10">1.00</text>
<rect x="195.0" y="350.0" width="38.0" height="0.0" fill="#d36b2d"/>
<text x="214.0" y="345.0" text-anchor="middle" font-family="Arial" font-size="10">0.00</text>
<text x="445.0" y="385" text-anchor="middle" font-family="Arial" font-size="13">E3</text>
<rect x="403.0" y="52.0" width="38.0" height="298.0" fill="#2f6fdd"/>
<text x="422.0" y="47.0" text-anchor="middle" font-family="Arial" font-size="10">1.00</text>
<rect x="445.0" y="350.0" width="38.0" height="0.0" fill="#d36b2d"/>
<text x="464.0" y="345.0" text-anchor="middle" font-family="Arial" font-size="10">0.00</text>
<text x="695.0" y="385" text-anchor="middle" font-family="Arial" font-size="13">E4</text>
<rect x="653.0" y="52.0" width="38.0" height="298.0" fill="#2f6fdd"/>
<text x="672.0" y="47.0" text-anchor="middle" font-family="Arial" font-size="10">1.00</text>
<rect x="695.0" y="350.0" width="38.0" height="0.0" fill="#d36b2d"/>
<text x="714.0" y="345.0" text-anchor="middle" font-family="Arial" font-size="10">0.00</text>
<rect x="70" y="395" width="13" height="13" fill="#2f6fdd"/>
<text x="88" y="406" font-family="Arial" font-size="12">accepted/action</text>
<rect x="250" y="395" width="13" height="13" fill="#d36b2d"/>
<text x="268" y="406" font-family="Arial" font-size="12">early dead-end</text>
</svg>