<svg xmlns="http://www.w3.org/2000/svg" width="860" height="430" viewBox="0 0 860 430">
<rect width="100%" height="100%" fill="white"/>
<text x="430.0" y="28" text-anchor="middle" font-family="Arial" font-size="18" font-weight="700">Easy_Lean Search Tree Size</text>
<text x="18" y="201.0" transform="rotate(-90 18 201.0)" text-anchor="middle" font-family="Arial" font-size="13">count / factor</text>
<line x1="70" y1="52" x2="70" y2="350" stroke="#333"/>
<line x1="70" y1="350" x2="820" y2="350" stroke="#333"/>
<line x1="66" y1="350.0" x2="820" y2="350.0" stroke="#e4e4e4"/>
<text x="62" y="354.0" text-anchor="end" font-family="Arial" font-size="11">0.00</text>
<line x1="66" y1="290.4" x2="820" y2="290.4" stroke="#e4e4e4"/>
<text x="62" y="294.4" text-anchor="end" font-family="Arial" font-size="11">0.96</text>
<line x1="66" y1="230.8" x2="820" y2="230.8" stroke="#e4e4e4"/>
<text x="62" y="234.8" text-anchor="end" font-family="Arial" font-size="11">1.92</text>
<line x1="66" y1="171.2" x2="820" y2="171.2" stroke="#e4e4e4"/>
<text x="62" y="175.2" text-anchor="end" font-family="Arial" font-size="11">2.87</text>
<line x1="66" y1="111.6" x2="820" y2="111.6" stroke="#e4e4e4"/>
<text x="62" y="115.6" text-anchor="end" font-family="Arial" font-size="11">3.83</text>
<line x1="66" y1="52.0" x2="820" y2="52.0" stroke="#e4e4e4"/>
<text x="62" y="56.0" text-anchor="end" font-family="Arial" font-size="11">4.79</text>
<text x="195.0" y="385" text-anchor="middle" font-family="Arial" font-size="13">E1</text>
<rect x="153.0" y="154.6" width="38.0" height="195.4" fill="#2f6fdd"/>
<text x="172.0" y="149.6" text-anchor="middle" font-family="Arial" font-size="10">3.14</text>
<rect x="195.0" y="90.9" width="38.0" height="259.1" fill="#d36b2d"/>
<text x="214.0" y="85.9" text-anchor="middle" font-family="Arial" font-size="10">4.16</text>
<text x="445.0" y="385" text-anchor="middle" font-family="Arial" font-size="13">E3</text>
<rect x="403.0" y="168.6" width="38.0" height="181.4" fill="#2f6fdd"/>
<text x="422.0" y="163.6" text-anchor="middle" font-family="Arial" font-size="10">2.91</text>
<rect x="445.0" y="147.2" width="38.0" height="202.8" fill="#d36b2d"/>
<text x="464.0" y="142.2" text-anchor="middle" font-family="Arial" font-size="10">3.26</text>
<text x="695.0" y="385" text-anchor="middle" font-family="Arial" font-size="13">E4</text>
<rect x="653.0" y="148.8" width="38.0" height="201.2" fill="#2f6fdd"/>
<text x="672.0" y="143.8" text-anchor="middle" font-family="Arial" font-size="10">3.23</text>
<rect x="695.0" y="105.5" width="38.0" height="244.5" fill="#d36b2d"/>
<text x="714.0" y="100.5" text-anchor="middle" font-family="Arial" font-size="10">3.93</text>
<rect x="70" y="395" width="13" height="13" fill="#2f6fdd"/>
<text x="88" y="406" font-family="Arial" font-size="12">mean nodes</text>
<rect x="250" y="395" width="13" height="13" fill="#d36b2d"/>
<text x="268" y="406" font-family="Arial" font-size="12">mean branching</text>
</svg>