<svg xmlns="http://www.w3.org/2000/svg" width="860" height="430" viewBox="0 0 860 430">
<rect width="100%" height="100%" fill="white"/>
<text x="430.0" y="28" text-anchor="middle" font-family="Arial" font-size="18" font-weight="700">miniF2F Easy-10 Pass Rates</text>
<text x="18" y="201.0" transform="rotate(-90 18 201.0)" text-anchor="middle" font-family="Arial" font-size="13">pass rate</text>
<line x1="70" y1="52" x2="70" y2="350" stroke="#333"/>
<line x1="70" y1="350" x2="820" y2="350" stroke="#333"/>
<line x1="66" y1="350.0" x2="820" y2="350.0" stroke="#e4e4e4"/>
<text x="62" y="354.0" text-anchor="end" font-family="Arial" font-size="11">0.00</text>
<line x1="66" y1="290.4" x2="820" y2="290.4" stroke="#e4e4e4"/>
<text x="62" y="294.4" text-anchor="end" font-family="Arial" font-size="11">0.20</text>
<line x1="66" y1="230.8" x2="820" y2="230.8" stroke="#e4e4e4"/>
<text x="62" y="234.8" text-anchor="end" font-family="Arial" font-size="11">0.40</text>
<line x1="66" y1="171.2" x2="820" y2="171.2" stroke="#e4e4e4"/>
<text x="62" y="175.2" text-anchor="end" font-family="Arial" font-size="11">0.60</text>
<line x1="66" y1="111.6" x2="820" y2="111.6" stroke="#e4e4e4"/>
<text x="62" y="115.6" text-anchor="end" font-family="Arial" font-size="11">0.80</text>
<line x1="66" y1="52.0" x2="820" y2="52.0" stroke="#e4e4e4"/>
<text x="62" y="56.0" text-anchor="end" font-family="Arial" font-size="11">1.00</text>
<text x="195.0" y="385" text-anchor="middle" font-family="Arial" font-size="13">E1</text>
<rect x="174.0" y="320.2" width="38.0" height="29.8" fill="#2f6fdd"/>
<text x="193.0" y="315.2" text-anchor="middle" font-family="Arial" font-size="10">0.10</text>
<text x="445.0" y="385" text-anchor="middle" font-family="Arial" font-size="13">E3</text>
<rect x="424.0" y="290.4" width="38.0" height="59.6" fill="#2f6fdd"/>
<text x="443.0" y="285.4" text-anchor="middle" font-family="Arial" font-size="10">0.20</text>
<text x="695.0" y="385" text-anchor="middle" font-family="Arial" font-size="13">E4</text>
<rect x="674.0" y="320.2" width="38.0" height="29.8" fill="#2f6fdd"/>
<text x="693.0" y="315.2" text-anchor="middle" font-family="Arial" font-size="10">0.10</text>
<rect x="70" y="395" width="13" height="13" fill="#2f6fdd"/>
<text x="88" y="406" font-family="Arial" font-size="12">All 10</text>
</svg>