<?xml version="1.0" encoding="UTF-8" standalone="no"?>
<!DOCTYPE svg PUBLIC "-//W3C//DTD SVG 1.1//EN"
 "http://www.w3.org/Graphics/SVG/1.1/DTD/svg11.dtd">
<!-- Generated by graphviz version 2.40.1 (0)
 -->
<!-- Title: %3 Pages: 1 -->
<svg width="507pt" height="240pt"
 viewBox="0.00 0.00 506.56 240.32" xmlns="http://www.w3.org/2000/svg" xmlns:xlink="http://www.w3.org/1999/xlink">
<g id="graph0" class="graph" transform="scale(1 1) rotate(0) translate(4 236.3209)">
<title>%3</title>
<polygon fill="#ffffff" stroke="transparent" points="-4,4 -4,-236.3209 502.5638,-236.3209 502.5638,4 -4,4"/>
<!-- 0 -->
<g id="node1" class="node">
<title>0</title>
<ellipse fill="#add8e6" stroke="#000000" cx="102.5638" cy="-183.5305" rx="47.2526" ry="48.5816"/>
<text text-anchor="middle" x="102.5638" y="-202.8305" font-family="Times,serif" font-size="14.00" fill="#000000">(1/1)</text>
<text text-anchor="middle" x="102.5638" y="-171.8305" font-family="Times,serif" font-size="14.00" fill="#000000">⊢ True</text>
<text text-anchor="middle" x="102.5638" y="-156.8305" font-family="Times,serif" font-size="14.00" fill="#000000">$0.00$</text>
</g>
<!-- 1 -->
<g id="node2" class="node">
<title>1</title>
<ellipse fill="#add8e6" stroke="#000000" cx="102.5638" cy="-26.8701" rx="101.2327" ry="26.7407"/>
<text text-anchor="middle" x="102.5638" y="-30.6701" font-family="Times,serif" font-size="14.00" fill="#000000">not in proof mode</text>
<text text-anchor="middle" x="102.5638" y="-15.6701" font-family="Times,serif" font-size="14.00" fill="#000000">$&#45;100.00$</text>
</g>
<!-- 0&#45;&gt;1 -->
<g id="edge1" class="edge">
<title>0&#45;&gt;1</title>
<path fill="none" stroke="#ff0000" stroke-width="2" d="M58.5716,-164.3559C39.2136,-153.424 18.4359,-137.6739 7.5638,-116.7401 -1.6542,-98.9911 -3.1406,-88.6344 7.5638,-71.7401 12.3353,-64.2096 18.7475,-57.919 26.0001,-52.6694"/>
<polygon fill="#ff0000" stroke="#ff0000" stroke-width="2" points="28.3369,-55.3278 34.8522,-46.973 24.5488,-49.4413 28.3369,-55.3278"/>
<text text-anchor="middle" x="44.0638" y="-105.5401" font-family="Times,serif" font-size="14.00" fill="#000000">simp</text>
<text text-anchor="middle" x="44.0638" y="-90.5401" font-family="Times,serif" font-size="14.00" fill="#000000">done</text>
<text text-anchor="middle" x="44.0638" y="-75.5401" font-family="Times,serif" font-size="14.00" fill="#000000">$&#45;100.00$</text>
</g>
<!-- 0&#45;&gt;1 -->
<g id="edge2" class="edge">
<title>0&#45;&gt;1</title>
<path fill="none" stroke="#ff0000" stroke-width="2" d="M102.5638,-134.392C102.5638,-111.6699 102.5638,-85.1234 102.5638,-64.0932"/>
<polygon fill="#ff0000" stroke="#ff0000" stroke-width="2" points="106.0639,-63.9514 102.5638,-53.9515 99.0639,-63.9515 106.0639,-63.9514"/>
<text text-anchor="middle" x="259.0638" y="-105.5401" font-family="Times,serif" font-size="14.00" fill="#000000">exact not_true_of_false (not_mem_empty _)</text>
<text text-anchor="middle" x="259.0638" y="-90.5401" font-family="Times,serif" font-size="14.00" fill="#000000">done</text>
<text text-anchor="middle" x="259.0638" y="-75.5401" font-family="Times,serif" font-size="14.00" fill="#000000">$&#45;100.00$</text>
</g>
<!-- 0&#45;&gt;1 -->
<g id="edge3" class="edge">
<title>0&#45;&gt;1</title>
<path fill="none" stroke="#ff0000" stroke-width="2" d="M149.9639,-180.5394C229.2984,-174.4363 383.5532,-157.5109 416.5638,-116.7401 429.1491,-101.1963 429.6676,-86.8495 416.5638,-71.7401 402.8985,-55.9833 295.4352,-43.1615 209.9797,-35.3193"/>
<polygon fill="#ff0000" stroke="#ff0000" stroke-width="2" points="210.2145,-31.8263 199.9399,-34.4113 209.584,-38.7979 210.2145,-31.8263"/>
<text text-anchor="middle" x="462.0638" y="-105.5401" font-family="Times,serif" font-size="14.00" fill="#000000">simp [*]</text>
<text text-anchor="middle" x="462.0638" y="-90.5401" font-family="Times,serif" font-size="14.00" fill="#000000">done</text>
<text text-anchor="middle" x="462.0638" y="-75.5401" font-family="Times,serif" font-size="14.00" fill="#000000">$&#45;100.00$</text>
</g>
</g>
</svg>
