<?xml version="1.0" encoding="UTF-8" standalone="no"?>
<!DOCTYPE svg PUBLIC "-//W3C//DTD SVG 1.1//EN"
 "http://www.w3.org/Graphics/SVG/1.1/DTD/svg11.dtd">
<!-- Generated by graphviz version 2.40.1 (0)
 -->
<!-- Title: %3 Pages: 1 -->
<svg width="2037pt" height="409pt"
 viewBox="0.00 0.00 2036.80 408.61" xmlns="http://www.w3.org/2000/svg" xmlns:xlink="http://www.w3.org/1999/xlink">
<g id="graph0" class="graph" transform="scale(1 1) rotate(0) translate(4 404.6123)">
<title>%3</title>
<polygon fill="#ffffff" stroke="transparent" points="-4,4 -4,-404.6123 2032.7987,-404.6123 2032.7987,4 -4,4"/>
<!-- 0 -->
<g id="node1" class="node">
<title>0</title>
<ellipse fill="none" stroke="#000000" cx="767.8834" cy="-341.9224" rx="144.9138" ry="58.8803"/>
<text text-anchor="middle" x="767.8834" y="-368.2224" font-family="Times,serif" font-size="14.00" fill="#000000">(1/1)</text>
<text text-anchor="middle" x="767.8834" y="-353.2224" font-family="Times,serif" font-size="14.00" fill="#000000">n : Nat</text>
<text text-anchor="middle" x="767.8834" y="-338.2224" font-family="Times,serif" font-size="14.00" fill="#000000">xs : List Nat</text>
<text text-anchor="middle" x="767.8834" y="-323.2224" font-family="Times,serif" font-size="14.00" fill="#000000">⊢ (n :: xs).head? = some n</text>
<text text-anchor="middle" x="767.8834" y="-308.2224" font-family="Times,serif" font-size="14.00" fill="#000000">$0.00$</text>
</g>
<!-- 1 -->
<g id="node2" class="node">
<title>1</title>
<ellipse fill="none" stroke="#000000" cx="682.8834" cy="-101.1163" rx="101.2327" ry="26.7407"/>
<text text-anchor="middle" x="682.8834" y="-104.9163" font-family="Times,serif" font-size="14.00" fill="#000000">not in proof mode</text>
<text text-anchor="middle" x="682.8834" y="-89.9163" font-family="Times,serif" font-size="14.00" fill="#000000">$&#45;100.00$</text>
</g>
<!-- 0&#45;&gt;1 -->
<g id="edge1" class="edge">
<title>0&#45;&gt;1</title>
<path fill="none" stroke="#000000" d="M623.3177,-337.5462C414.825,-329.7227 50.157,-309.7864 9.8834,-265.2325 -3.5281,-250.3957 -2.9674,-235.5576 9.8834,-220.2325 80.3375,-136.2136 399.8357,-111.4248 572.0637,-104.1354"/>
<polygon fill="#000000" stroke="#000000" points="572.3298,-107.6275 582.1778,-103.7203 572.0426,-100.6334 572.3298,-107.6275"/>
<text text-anchor="middle" x="112.8834" y="-254.0325" font-family="Times,serif" font-size="14.00" fill="#000000">simp [Nat.succ_eq_add_one]</text>
<text text-anchor="middle" x="112.8834" y="-239.0325" font-family="Times,serif" font-size="14.00" fill="#000000">done</text>
<text text-anchor="middle" x="112.8834" y="-224.0325" font-family="Times,serif" font-size="14.00" fill="#000000">$&#45;100.00$</text>
</g>
<!-- 0&#45;&gt;1 -->
<g id="edge2" class="edge">
<title>0&#45;&gt;1</title>
<path fill="none" stroke="#000000" d="M625.3785,-330.8015C477.4177,-317.7758 263.9916,-294.2432 238.8834,-265.2325 140.1787,-151.1866 411.208,-116.3127 572.5617,-105.7075"/>
<polygon fill="#000000" stroke="#000000" points="572.7901,-109.2002 582.5479,-105.0728 572.346,-102.2143 572.7901,-109.2002"/>
<text text-anchor="middle" x="275.3834" y="-254.0325" font-family="Times,serif" font-size="14.00" fill="#000000">rfl</text>
<text text-anchor="middle" x="275.3834" y="-239.0325" font-family="Times,serif" font-size="14.00" fill="#000000">done</text>
<text text-anchor="middle" x="275.3834" y="-224.0325" font-family="Times,serif" font-size="14.00" fill="#000000">$&#45;100.00$</text>
</g>
<!-- 0&#45;&gt;1 -->
<g id="edge3" class="edge">
<title>0&#45;&gt;1</title>
<path fill="none" stroke="#000000" d="M623.6162,-335.7915C512.3501,-327.6766 371.4566,-308.8525 334.8834,-265.2325 259.5121,-175.339 451.325,-131.5464 579.2098,-112.9081"/>
<polygon fill="#000000" stroke="#000000" points="580.0461,-116.3244 589.4524,-111.4488 579.0587,-109.3944 580.0461,-116.3244"/>
<text text-anchor="middle" x="371.3834" y="-254.0325" font-family="Times,serif" font-size="14.00" fill="#000000">simp</text>
<text text-anchor="middle" x="371.3834" y="-239.0325" font-family="Times,serif" font-size="14.00" fill="#000000">done</text>
<text text-anchor="middle" x="371.3834" y="-224.0325" font-family="Times,serif" font-size="14.00" fill="#000000">$&#45;100.00$</text>
</g>
<!-- 0&#45;&gt;1 -->
<g id="edge4" class="edge">
<title>0&#45;&gt;1</title>
<path fill="none" stroke="#000000" d="M626.9431,-327.4876C546.0987,-315.9755 455.8186,-296.4797 430.8834,-265.2325 375.9203,-196.3564 502.9636,-146.964 595.9151,-121.3022"/>
<polygon fill="#000000" stroke="#000000" points="596.9084,-124.6593 605.6459,-118.6671 595.0786,-117.9027 596.9084,-124.6593"/>
<text text-anchor="middle" x="545.8834" y="-254.0325" font-family="Times,serif" font-size="14.00" fill="#000000">cases xs &lt;;&gt; cases xs &lt;;&gt; simp</text>
<text text-anchor="middle" x="545.8834" y="-239.0325" font-family="Times,serif" font-size="14.00" fill="#000000">done</text>
<text text-anchor="middle" x="545.8834" y="-224.0325" font-family="Times,serif" font-size="14.00" fill="#000000">$&#45;100.00$</text>
</g>
<!-- 0&#45;&gt;1 -->
<g id="edge5" class="edge">
<title>0&#45;&gt;1</title>
<path fill="none" stroke="#000000" d="M699.6502,-289.9274C693.3197,-282.3398 687.8154,-274.0736 683.8834,-265.2325 665.8352,-224.6516 669.3949,-172.6441 674.9402,-138.1701"/>
<polygon fill="#000000" stroke="#000000" points="678.4321,-138.519 676.7032,-128.0662 671.5363,-137.3158 678.4321,-138.519"/>
<text text-anchor="middle" x="757.8834" y="-254.0325" font-family="Times,serif" font-size="14.00" fill="#000000">simp [Nat.add_succ]</text>
<text text-anchor="middle" x="757.8834" y="-239.0325" font-family="Times,serif" font-size="14.00" fill="#000000">done</text>
<text text-anchor="middle" x="757.8834" y="-224.0325" font-family="Times,serif" font-size="14.00" fill="#000000">$&#45;100.00$</text>
</g>
<!-- 0&#45;&gt;1 -->
<g id="edge6" class="edge">
<title>0&#45;&gt;1</title>
<path fill="none" stroke="#000000" d="M820.5562,-287.2226C834.2584,-266.4176 842.5378,-242.3906 831.8834,-220.2325 812.9125,-180.7784 773.806,-150.3098 740.4163,-130.0666"/>
<polygon fill="#000000" stroke="#000000" points="742.0132,-126.9452 731.6205,-124.8856 738.4605,-132.9767 742.0132,-126.9452"/>
<text text-anchor="middle" x="906.3834" y="-254.0325" font-family="Times,serif" font-size="14.00" fill="#000000">rw [Nat.succ_pred]</text>
<text text-anchor="middle" x="906.3834" y="-239.0325" font-family="Times,serif" font-size="14.00" fill="#000000">done</text>
<text text-anchor="middle" x="906.3834" y="-224.0325" font-family="Times,serif" font-size="14.00" fill="#000000">$&#45;100.00$</text>
</g>
<!-- 0&#45;&gt;1 -->
<g id="edge7" class="edge">
<title>0&#45;&gt;1</title>
<path fill="none" stroke="#000000" d="M896.7082,-314.8238C957.3165,-295.6502 1010.3165,-265.2277 979.8834,-220.2325 936.9424,-156.7446 854.0246,-127.091 786.6908,-113.2428"/>
<polygon fill="#000000" stroke="#000000" points="787.3635,-109.8081 776.876,-111.3122 786.0124,-116.6765 787.3635,-109.8081"/>
<text text-anchor="middle" x="1046.3834" y="-254.0325" font-family="Times,serif" font-size="14.00" fill="#000000">cases xs &lt;;&gt; rfl</text>
<text text-anchor="middle" x="1046.3834" y="-239.0325" font-family="Times,serif" font-size="14.00" fill="#000000">done</text>
<text text-anchor="middle" x="1046.3834" y="-224.0325" font-family="Times,serif" font-size="14.00" fill="#000000">$&#45;100.00$</text>
</g>
<!-- 0&#45;&gt;1 -->
<g id="edge8" class="edge">
<title>0&#45;&gt;1</title>
<path fill="none" stroke="#000000" d="M908.6889,-327.846C990.5966,-316.4251 1082.5653,-296.8974 1107.8834,-265.2325 1120.3732,-249.6118 1119.9675,-236.1691 1107.8834,-220.2325 1068.7272,-168.5931 895.7781,-133.1916 782.93,-115.1139"/>
<polygon fill="#000000" stroke="#000000" points="783.3059,-111.63 772.8819,-113.5245 782.2122,-118.544 783.3059,-111.63"/>
<text text-anchor="middle" x="1397.3834" y="-246.5325" font-family="Times,serif" font-size="14.00" fill="#000000">simp only [get_cons, get_cons, get_cons, List.head?, List.get_cons_head?, L...</text>
<text text-anchor="middle" x="1397.3834" y="-231.5325" font-family="Times,serif" font-size="14.00" fill="#000000">$&#45;100.00$</text>
</g>
<!-- 0&#45;&gt;1 -->
<g id="edge9" class="edge">
<title>0&#45;&gt;1</title>
<path fill="none" stroke="#000000" d="M912.7927,-340.2731C1157.242,-335.9715 1630.0449,-320.5204 1680.8834,-265.2325 1694.4207,-250.5104 1694.1611,-235.1892 1680.8834,-220.2325 1622.6466,-154.6315 1040.1256,-118.5938 792.902,-106.1519"/>
<polygon fill="#000000" stroke="#000000" points="792.9792,-102.6515 782.817,-105.6481 792.6298,-109.6428 792.9792,-102.6515"/>
<text text-anchor="middle" x="1765.3834" y="-254.0325" font-family="Times,serif" font-size="14.00" fill="#000000">rw [List.head?_cons]</text>
<text text-anchor="middle" x="1765.3834" y="-239.0325" font-family="Times,serif" font-size="14.00" fill="#000000">done</text>
<text text-anchor="middle" x="1765.3834" y="-224.0325" font-family="Times,serif" font-size="14.00" fill="#000000">$&#45;100.00$</text>
</g>
<!-- 2 -->
<g id="node3" class="node">
<title>2</title>
<ellipse fill="none" stroke="#000000" cx="1907.8834" cy="-101.1163" rx="120.8306" ry="101.2327"/>
<text text-anchor="middle" x="1907.8834" y="-157.4163" font-family="Times,serif" font-size="14.00" fill="#000000">(1/2)</text>
<text text-anchor="middle" x="1907.8834" y="-142.4163" font-family="Times,serif" font-size="14.00" fill="#000000">case nil</text>
<text text-anchor="middle" x="1907.8834" y="-127.4163" font-family="Times,serif" font-size="14.00" fill="#000000">n : Nat</text>
<text text-anchor="middle" x="1907.8834" y="-112.4163" font-family="Times,serif" font-size="14.00" fill="#000000">⊢ [n].head? = some n</text>
<text text-anchor="middle" x="1907.8834" y="-97.4163" font-family="Times,serif" font-size="14.00" fill="#000000">(2/2)</text>
<text text-anchor="middle" x="1907.8834" y="-82.4163" font-family="Times,serif" font-size="14.00" fill="#000000">case cons</text>
<text text-anchor="middle" x="1907.8834" y="-67.4163" font-family="Times,serif" font-size="14.00" fill="#000000">n head✝ : Nat</text>
<text text-anchor="middle" x="1907.8834" y="-52.4163" font-family="Times,serif" font-size="14.00" fill="#000000">t...</text>
<text text-anchor="middle" x="1907.8834" y="-37.4163" font-family="Times,serif" font-size="14.00" fill="#000000">$0.36$</text>
</g>
<!-- 0&#45;&gt;2 -->
<g id="edge10" class="edge">
<title>0&#45;&gt;2</title>
<path fill="none" stroke="#000000" d="M912.9825,-340.1017C1189.4179,-335.405 1770.6909,-319.1677 1843.8834,-265.2325 1862.4343,-251.5625 1875.6094,-231.7217 1884.9661,-210.527"/>
<polygon fill="#000000" stroke="#000000" points="1888.2997,-211.6236 1888.8742,-201.0444 1881.8278,-208.9563 1888.2997,-211.6236"/>
<text text-anchor="middle" x="1909.3834" y="-246.5325" font-family="Times,serif" font-size="14.00" fill="#000000">cases xs</text>
<text text-anchor="middle" x="1909.3834" y="-231.5325" font-family="Times,serif" font-size="14.00" fill="#000000">$0.36$</text>
</g>
</g>
</svg>
