<?xml version="1.0" encoding="UTF-8" standalone="no"?>
<!DOCTYPE svg PUBLIC "-//W3C//DTD SVG 1.1//EN"
 "http://www.w3.org/Graphics/SVG/1.1/DTD/svg11.dtd">
<!-- Generated by graphviz version 2.40.1 (0)
 -->
<!-- Title: %3 Pages: 1 -->
<svg width="591pt" height="303pt"
 viewBox="0.00 0.00 590.85 302.55" xmlns="http://www.w3.org/2000/svg" xmlns:xlink="http://www.w3.org/1999/xlink">
<g id="graph0" class="graph" transform="scale(1 1) rotate(0) translate(4 298.5462)">
<title>%3</title>
<polygon fill="#ffffff" stroke="transparent" points="-4,4 -4,-298.5462 586.8528,-298.5462 586.8528,4 -4,4"/>
<!-- 0 -->
<g id="node1" class="node">
<title>0</title>
<ellipse fill="#add8e6" stroke="#000000" cx="251.8528" cy="-235.8564" rx="85.6199" ry="58.8803"/>
<text text-anchor="middle" x="251.8528" y="-262.1564" font-family="Times,serif" font-size="14.00" fill="#000000">(1/1)</text>
<text text-anchor="middle" x="251.8528" y="-247.1564" font-family="Times,serif" font-size="14.00" fill="#000000">a b c : Nat</text>
<text text-anchor="middle" x="251.8528" y="-232.1564" font-family="Times,serif" font-size="14.00" fill="#000000">h : a = b</text>
<text text-anchor="middle" x="251.8528" y="-217.1564" font-family="Times,serif" font-size="14.00" fill="#000000">⊢ a * c = b * c</text>
<text text-anchor="middle" x="251.8528" y="-202.1564" font-family="Times,serif" font-size="14.00" fill="#000000">$0.00$</text>
</g>
<!-- 1 -->
<g id="node2" class="node">
<title>1</title>
<ellipse fill="none" stroke="#000000" cx="84.8528" cy="-48.0833" rx="84.7059" ry="48.1667"/>
<text text-anchor="middle" x="84.8528" y="-66.8833" font-family="Times,serif" font-size="14.00" fill="#000000">(1/1)</text>
<text text-anchor="middle" x="84.8528" y="-51.8833" font-family="Times,serif" font-size="14.00" fill="#000000">a c : Nat</text>
<text text-anchor="middle" x="84.8528" y="-36.8833" font-family="Times,serif" font-size="14.00" fill="#000000">⊢ a * c = a * c</text>
<text text-anchor="middle" x="84.8528" y="-21.8833" font-family="Times,serif" font-size="14.00" fill="#000000">$0.33$</text>
</g>
<!-- 0&#45;&gt;1 -->
<g id="edge1" class="edge">
<title>0&#45;&gt;1</title>
<path fill="none" stroke="#000000" d="M172.3411,-213.731C144.4795,-202.0018 115.7144,-184.58 97.8528,-159.1665 87.1605,-143.9535 82.6486,-124.5774 81.1894,-106.282"/>
<polygon fill="#000000" stroke="#000000" points="84.6832,-106.0688 80.673,-96.2623 77.6925,-106.4292 84.6832,-106.0688"/>
<text text-anchor="middle" x="124.3528" y="-140.4665" font-family="Times,serif" font-size="14.00" fill="#000000">subst h</text>
<text text-anchor="middle" x="124.3528" y="-125.4665" font-family="Times,serif" font-size="14.00" fill="#000000">$0.33$</text>
</g>
<!-- 2 -->
<g id="node3" class="node">
<title>2</title>
<ellipse fill="#add8e6" stroke="#000000" cx="343.8528" cy="-48.0833" rx="101.2327" ry="26.7407"/>
<text text-anchor="middle" x="343.8528" y="-51.8833" font-family="Times,serif" font-size="14.00" fill="#000000">not in proof mode</text>
<text text-anchor="middle" x="343.8528" y="-36.8833" font-family="Times,serif" font-size="14.00" fill="#000000">$&#45;100.00$</text>
</g>
<!-- 0&#45;&gt;2 -->
<g id="edge2" class="edge">
<title>0&#45;&gt;2</title>
<path fill="none" stroke="#ff0000" stroke-width="2" d="M190.7805,-194.2828C164.1872,-170.946 142.9272,-141.1729 161.8528,-114.1665 173.889,-96.9912 217.4315,-80.8591 258.907,-68.8337"/>
<polygon fill="#ff0000" stroke="#ff0000" stroke-width="2" points="259.8803,-72.1958 268.5456,-66.0997 257.9701,-65.4614 259.8803,-72.1958"/>
<text text-anchor="middle" x="241.8528" y="-147.9665" font-family="Times,serif" font-size="14.00" fill="#000000">simp [h, Nat.mul_one]</text>
<text text-anchor="middle" x="241.8528" y="-132.9665" font-family="Times,serif" font-size="14.00" fill="#000000">done</text>
<text text-anchor="middle" x="241.8528" y="-117.9665" font-family="Times,serif" font-size="14.00" fill="#000000">$&#45;100.00$</text>
</g>
<!-- 0&#45;&gt;2 -->
<g id="edge3" class="edge">
<title>0&#45;&gt;2</title>
<path fill="none" stroke="#ff0000" stroke-width="2" d="M302.4915,-188.0994C309.8939,-179.0961 316.7331,-169.3038 321.8528,-159.1665 333.4825,-136.1392 338.9702,-107.5332 341.5568,-85.1175"/>
<polygon fill="#ff0000" stroke="#ff0000" stroke-width="2" points="345.058,-85.2811 342.5803,-74.98 338.0934,-84.5778 345.058,-85.2811"/>
<text text-anchor="middle" x="373.3528" y="-147.9665" font-family="Times,serif" font-size="14.00" fill="#000000">rw [h]</text>
<text text-anchor="middle" x="373.3528" y="-132.9665" font-family="Times,serif" font-size="14.00" fill="#000000">done</text>
<text text-anchor="middle" x="373.3528" y="-117.9665" font-family="Times,serif" font-size="14.00" fill="#000000">$&#45;100.00$</text>
</g>
<!-- 0&#45;&gt;2 -->
<g id="edge4" class="edge">
<title>0&#45;&gt;2</title>
<path fill="none" stroke="#ff0000" stroke-width="2" d="M333.2353,-217.2278C363.944,-205.8156 395.7951,-187.6938 413.8528,-159.1665 424.5498,-142.2676 421.7715,-132.5321 413.8528,-114.1665 408.2618,-101.1996 398.7362,-89.5935 388.4823,-79.8625"/>
<polygon fill="#ff0000" stroke="#ff0000" stroke-width="2" points="390.7215,-77.1696 380.9329,-73.1156 386.0569,-82.389 390.7215,-77.1696"/>
<text text-anchor="middle" x="501.8528" y="-147.9665" font-family="Times,serif" font-size="14.00" fill="#000000">rw [h, Nat.mul_comm]</text>
<text text-anchor="middle" x="501.8528" y="-132.9665" font-family="Times,serif" font-size="14.00" fill="#000000">done</text>
<text text-anchor="middle" x="501.8528" y="-117.9665" font-family="Times,serif" font-size="14.00" fill="#000000">$&#45;100.00$</text>
</g>
</g>
</svg>
