<?xml version="1.0" encoding="UTF-8" standalone="no"?>
<!DOCTYPE svg PUBLIC "-//W3C//DTD SVG 1.1//EN"
 "http://www.w3.org/Graphics/SVG/1.1/DTD/svg11.dtd">
<!-- Generated by graphviz version 2.40.1 (0)
 -->
<!-- Title: %3 Pages: 1 -->
<svg width="710pt" height="345pt"
 viewBox="0.00 0.00 709.51 344.97" xmlns="http://www.w3.org/2000/svg" xmlns:xlink="http://www.w3.org/1999/xlink">
<g id="graph0" class="graph" transform="scale(1 1) rotate(0) translate(4 340.9727)">
<title>%3</title>
<polygon fill="#ffffff" stroke="transparent" points="-4,4 -4,-340.9727 705.5132,-340.9727 705.5132,4 -4,4"/>
<!-- 0 -->
<g id="node1" class="node">
<title>0</title>
<ellipse fill="none" stroke="#000000" cx="311.7107" cy="-278.2828" rx="54.3945" ry="58.8803"/>
<text text-anchor="middle" x="311.7107" y="-304.5828" font-family="Times,serif" font-size="14.00" fill="#000000">(1/1)</text>
<text text-anchor="middle" x="311.7107" y="-289.5828" font-family="Times,serif" font-size="14.00" fill="#000000">p : Prop</text>
<text text-anchor="middle" x="311.7107" y="-274.5828" font-family="Times,serif" font-size="14.00" fill="#000000">h : p ∧ p</text>
<text text-anchor="middle" x="311.7107" y="-259.5828" font-family="Times,serif" font-size="14.00" fill="#000000">⊢ p</text>
<text text-anchor="middle" x="311.7107" y="-244.5828" font-family="Times,serif" font-size="14.00" fill="#000000">$0.00$</text>
</g>
<!-- 1 -->
<g id="node2" class="node">
<title>1</title>
<ellipse fill="none" stroke="#000000" cx="70.7107" cy="-69.2965" rx="70.922" ry="69.0935"/>
<text text-anchor="middle" x="70.7107" y="-103.0965" font-family="Times,serif" font-size="14.00" fill="#000000">(1/1)</text>
<text text-anchor="middle" x="70.7107" y="-88.0965" font-family="Times,serif" font-size="14.00" fill="#000000">case intro</text>
<text text-anchor="middle" x="70.7107" y="-73.0965" font-family="Times,serif" font-size="14.00" fill="#000000">p : Prop</text>
<text text-anchor="middle" x="70.7107" y="-58.0965" font-family="Times,serif" font-size="14.00" fill="#000000">h right✝ : p</text>
<text text-anchor="middle" x="70.7107" y="-43.0965" font-family="Times,serif" font-size="14.00" fill="#000000">⊢ p</text>
<text text-anchor="middle" x="70.7107" y="-28.0965" font-family="Times,serif" font-size="14.00" fill="#000000">$0.69$</text>
</g>
<!-- 0&#45;&gt;1 -->
<g id="edge1" class="edge">
<title>0&#45;&gt;1</title>
<path fill="none" stroke="#000000" d="M258.2997,-266.1905C200.7037,-252.0524 114.3321,-227.2955 92.7107,-201.5929 80.2661,-186.7994 73.5796,-167.6858 70.2252,-148.6105"/>
<polygon fill="#000000" stroke="#000000" points="73.68,-148.0462 68.762,-138.6619 66.7545,-149.0648 73.68,-148.0462"/>
<text text-anchor="middle" x="153.2107" y="-182.8929" font-family="Times,serif" font-size="14.00" fill="#000000">rcases h with ⟨h⟩</text>
<text text-anchor="middle" x="153.2107" y="-167.8929" font-family="Times,serif" font-size="14.00" fill="#000000">$0.69$</text>
</g>
<!-- 2 -->
<g id="node3" class="node">
<title>2</title>
<ellipse fill="none" stroke="#000000" cx="221.7107" cy="-69.2965" rx="62.4516" ry="69.0935"/>
<text text-anchor="middle" x="221.7107" y="-103.0965" font-family="Times,serif" font-size="14.00" fill="#000000">(1/1)</text>
<text text-anchor="middle" x="221.7107" y="-88.0965" font-family="Times,serif" font-size="14.00" fill="#000000">case intro</text>
<text text-anchor="middle" x="221.7107" y="-73.0965" font-family="Times,serif" font-size="14.00" fill="#000000">p : Prop</text>
<text text-anchor="middle" x="221.7107" y="-58.0965" font-family="Times,serif" font-size="14.00" fill="#000000">p&#39; hp : p</text>
<text text-anchor="middle" x="221.7107" y="-43.0965" font-family="Times,serif" font-size="14.00" fill="#000000">⊢ p</text>
<text text-anchor="middle" x="221.7107" y="-28.0965" font-family="Times,serif" font-size="14.00" fill="#000000">$0.74$</text>
</g>
<!-- 0&#45;&gt;2 -->
<g id="edge2" class="edge">
<title>0&#45;&gt;2</title>
<path fill="none" stroke="#000000" d="M265.851,-246.4575C251.7626,-234.1685 237.8405,-218.8786 229.7107,-201.5929 222.0262,-185.2541 218.301,-166.5018 216.8298,-148.3507"/>
<polygon fill="#000000" stroke="#000000" points="220.3225,-148.1218 216.2335,-138.3478 213.3349,-148.5384 220.3225,-148.1218"/>
<text text-anchor="middle" x="305.2107" y="-182.8929" font-family="Times,serif" font-size="14.00" fill="#000000">rcases h with ⟨p&#39;, hp⟩</text>
<text text-anchor="middle" x="305.2107" y="-167.8929" font-family="Times,serif" font-size="14.00" fill="#000000">$0.74$</text>
</g>
<!-- 3 -->
<g id="node4" class="node">
<title>3</title>
<ellipse fill="none" stroke="#000000" cx="402.7107" cy="-69.2965" rx="101.2327" ry="26.7407"/>
<text text-anchor="middle" x="402.7107" y="-73.0965" font-family="Times,serif" font-size="14.00" fill="#000000">not in proof mode</text>
<text text-anchor="middle" x="402.7107" y="-58.0965" font-family="Times,serif" font-size="14.00" fill="#000000">$&#45;100.00$</text>
</g>
<!-- 0&#45;&gt;3 -->
<g id="edge3" class="edge">
<title>0&#45;&gt;3</title>
<path fill="none" stroke="#000000" d="M353.3823,-240.4994C363.8168,-228.9862 373.9511,-215.6321 380.7107,-201.5929 395.1755,-171.5507 400.3416,-133.7208 402.0858,-106.217"/>
<polygon fill="#000000" stroke="#000000" points="405.5817,-106.3855 402.599,-96.2192 398.5909,-106.0266 405.5817,-106.3855"/>
<text text-anchor="middle" x="444.7107" y="-190.3929" font-family="Times,serif" font-size="14.00" fill="#000000">simpa using h</text>
<text text-anchor="middle" x="444.7107" y="-175.3929" font-family="Times,serif" font-size="14.00" fill="#000000">done</text>
<text text-anchor="middle" x="444.7107" y="-160.3929" font-family="Times,serif" font-size="14.00" fill="#000000">$&#45;100.00$</text>
</g>
<!-- 4 -->
<g id="node5" class="node">
<title>4</title>
<ellipse fill="none" stroke="#000000" cx="611.7107" cy="-69.2965" rx="89.6056" ry="69.0935"/>
<text text-anchor="middle" x="611.7107" y="-103.0965" font-family="Times,serif" font-size="14.00" fill="#000000">(1/1)</text>
<text text-anchor="middle" x="611.7107" y="-88.0965" font-family="Times,serif" font-size="14.00" fill="#000000">case intro</text>
<text text-anchor="middle" x="611.7107" y="-73.0965" font-family="Times,serif" font-size="14.00" fill="#000000">p : Prop</text>
<text text-anchor="middle" x="611.7107" y="-58.0965" font-family="Times,serif" font-size="14.00" fill="#000000">left✝ right✝ : p</text>
<text text-anchor="middle" x="611.7107" y="-43.0965" font-family="Times,serif" font-size="14.00" fill="#000000">⊢ p</text>
<text text-anchor="middle" x="611.7107" y="-28.0965" font-family="Times,serif" font-size="14.00" fill="#000000">$0.58$</text>
</g>
<!-- 0&#45;&gt;4 -->
<g id="edge4" class="edge">
<title>0&#45;&gt;4</title>
<path fill="none" stroke="#000000" d="M364.6789,-263.9741C404.1032,-251.6392 457.9217,-231.1175 498.7107,-201.5929 522.678,-184.2445 544.8476,-160.8037 563.0864,-138.4725"/>
<polygon fill="#000000" stroke="#000000" points="565.8476,-140.6239 569.3702,-130.6318 560.3853,-136.2462 565.8476,-140.6239"/>
<text text-anchor="middle" x="570.7107" y="-182.8929" font-family="Times,serif" font-size="14.00" fill="#000000">cases h</text>
<text text-anchor="middle" x="570.7107" y="-167.8929" font-family="Times,serif" font-size="14.00" fill="#000000">$0.58$</text>
</g>
</g>
</svg>
