<?xml version="1.0" encoding="UTF-8" standalone="no"?>
<!DOCTYPE svg PUBLIC "-//W3C//DTD SVG 1.1//EN"
 "http://www.w3.org/Graphics/SVG/1.1/DTD/svg11.dtd">
<!-- Generated by graphviz version 2.40.1 (0)
 -->
<!-- Title: %3 Pages: 1 -->
<svg width="969pt" height="260pt"
 viewBox="0.00 0.00 969.12 260.12" xmlns="http://www.w3.org/2000/svg" xmlns:xlink="http://www.w3.org/1999/xlink">
<g id="graph0" class="graph" transform="scale(1 1) rotate(0) translate(4 256.1198)">
<title>%3</title>
<polygon fill="#ffffff" stroke="transparent" points="-4,4 -4,-256.1198 965.1235,-256.1198 965.1235,4 -4,4"/>
<!-- 0 -->
<g id="node1" class="node">
<title>0</title>
<ellipse fill="#add8e6" stroke="#000000" cx="661.1235" cy="-193.43" rx="75.8212" ry="58.8803"/>
<text text-anchor="middle" x="661.1235" y="-219.73" font-family="Times,serif" font-size="14.00" fill="#000000">(1/1)</text>
<text text-anchor="middle" x="661.1235" y="-204.73" font-family="Times,serif" font-size="14.00" fill="#000000">p : Prop</text>
<text text-anchor="middle" x="661.1235" y="-189.73" font-family="Times,serif" font-size="14.00" fill="#000000">h : p → False</text>
<text text-anchor="middle" x="661.1235" y="-174.73" font-family="Times,serif" font-size="14.00" fill="#000000">⊢ ¬p</text>
<text text-anchor="middle" x="661.1235" y="-159.73" font-family="Times,serif" font-size="14.00" fill="#000000">$0.00$</text>
</g>
<!-- 1 -->
<g id="node2" class="node">
<title>1</title>
<ellipse fill="#add8e6" stroke="#000000" cx="661.1235" cy="-26.8701" rx="101.2327" ry="26.7407"/>
<text text-anchor="middle" x="661.1235" y="-30.6701" font-family="Times,serif" font-size="14.00" fill="#000000">not in proof mode</text>
<text text-anchor="middle" x="661.1235" y="-15.6701" font-family="Times,serif" font-size="14.00" fill="#000000">$&#45;100.00$</text>
</g>
<!-- 0&#45;&gt;1 -->
<g id="edge1" class="edge">
<title>0&#45;&gt;1</title>
<path fill="none" stroke="#ff0000" stroke-width="2" d="M585.5013,-190.0707C422.1253,-182.0375 47.8374,-159.1576 10.1235,-116.7401 -3.1656,-101.7936 -3.5237,-86.3604 10.1235,-71.7401 28.2612,-52.3093 369.7758,-37.2503 550.711,-30.598"/>
<polygon fill="#ff0000" stroke="#ff0000" stroke-width="2" points="550.932,-34.0924 560.7976,-30.2298 550.6765,-27.0971 550.932,-34.0924"/>
<text text-anchor="middle" x="161.6235" y="-105.5401" font-family="Times,serif" font-size="14.00" fill="#000000">simpa only [not_and, not_false_iff] using h</text>
<text text-anchor="middle" x="161.6235" y="-90.5401" font-family="Times,serif" font-size="14.00" fill="#000000">done</text>
<text text-anchor="middle" x="161.6235" y="-75.5401" font-family="Times,serif" font-size="14.00" fill="#000000">$&#45;100.00$</text>
</g>
<!-- 0&#45;&gt;1 -->
<g id="edge2" class="edge">
<title>0&#45;&gt;1</title>
<path fill="none" stroke="#ff0000" stroke-width="2" d="M585.4732,-190.0924C467.9776,-182.2522 262.4016,-156.3396 336.1235,-71.7401 350.4687,-55.2783 464.2336,-42.4386 553.1693,-34.7881"/>
<polygon fill="#ff0000" stroke="#ff0000" stroke-width="2" points="553.6654,-38.2587 563.3342,-33.9268 553.0743,-31.2837 553.6654,-38.2587"/>
<text text-anchor="middle" x="487.6235" y="-105.5401" font-family="Times,serif" font-size="14.00" fill="#000000">simpa only [false_iff, Bool.true_iff] using h</text>
<text text-anchor="middle" x="487.6235" y="-90.5401" font-family="Times,serif" font-size="14.00" fill="#000000">done</text>
<text text-anchor="middle" x="487.6235" y="-75.5401" font-family="Times,serif" font-size="14.00" fill="#000000">$&#45;100.00$</text>
</g>
<!-- 0&#45;&gt;1 -->
<g id="edge3" class="edge">
<title>0&#45;&gt;1</title>
<path fill="none" stroke="#ff0000" stroke-width="2" d="M661.1235,-134.7072C661.1235,-111.1511 661.1235,-84.7163 661.1235,-63.9152"/>
<polygon fill="#ff0000" stroke="#ff0000" stroke-width="2" points="664.6236,-63.8956 661.1235,-53.8956 657.6236,-63.8956 664.6236,-63.8956"/>
<text text-anchor="middle" x="713.6235" y="-105.5401" font-family="Times,serif" font-size="14.00" fill="#000000">rw [← not_not]</text>
<text text-anchor="middle" x="713.6235" y="-90.5401" font-family="Times,serif" font-size="14.00" fill="#000000">done</text>
<text text-anchor="middle" x="713.6235" y="-75.5401" font-family="Times,serif" font-size="14.00" fill="#000000">$&#45;100.00$</text>
</g>
<!-- 0&#45;&gt;1 -->
<g id="edge4" class="edge">
<title>0&#45;&gt;1</title>
<path fill="none" stroke="#ff0000" stroke-width="2" d="M725.0241,-161.6694C741.7862,-149.9939 757.7729,-135.0465 767.1235,-116.7401 776.2212,-98.9291 778.1706,-88.4123 767.1235,-71.7401 761.31,-62.9664 753.402,-55.9036 744.5073,-50.219"/>
<polygon fill="#ff0000" stroke="#ff0000" stroke-width="2" points="746.13,-47.115 735.7133,-45.1804 742.65,-53.1887 746.13,-47.115"/>
<text text-anchor="middle" x="824.1235" y="-105.5401" font-family="Times,serif" font-size="14.00" fill="#000000">simpa using h</text>
<text text-anchor="middle" x="824.1235" y="-90.5401" font-family="Times,serif" font-size="14.00" fill="#000000">done</text>
<text text-anchor="middle" x="824.1235" y="-75.5401" font-family="Times,serif" font-size="14.00" fill="#000000">$&#45;100.00$</text>
</g>
<!-- 0&#45;&gt;1 -->
<g id="edge5" class="edge">
<title>0&#45;&gt;1</title>
<path fill="none" stroke="#ff0000" stroke-width="2" d="M735.2466,-180.4306C814.8837,-163.2445 924.2185,-128.3414 878.1235,-71.7401 863.5801,-53.8818 815.1718,-42.9131 767.7578,-36.2959"/>
<polygon fill="#ff0000" stroke="#ff0000" stroke-width="2" points="768.043,-32.803 757.6678,-34.9489 767.1168,-39.7414 768.043,-32.803"/>
<text text-anchor="middle" x="924.6235" y="-105.5401" font-family="Times,serif" font-size="14.00" fill="#000000">exact h</text>
<text text-anchor="middle" x="924.6235" y="-90.5401" font-family="Times,serif" font-size="14.00" fill="#000000">done</text>
<text text-anchor="middle" x="924.6235" y="-75.5401" font-family="Times,serif" font-size="14.00" fill="#000000">$&#45;100.00$</text>
</g>
</g>
</svg>
