<?xml version="1.0" encoding="UTF-8" standalone="no"?>
<!DOCTYPE svg PUBLIC "-//W3C//DTD SVG 1.1//EN"
 "http://www.w3.org/Graphics/SVG/1.1/DTD/svg11.dtd">
<!-- Generated by graphviz version 2.40.1 (0)
 -->
<!-- Title: %3 Pages: 1 -->
<svg width="365pt" height="240pt"
 viewBox="0.00 0.00 364.56 240.32" xmlns="http://www.w3.org/2000/svg" xmlns:xlink="http://www.w3.org/1999/xlink">
<g id="graph0" class="graph" transform="scale(1 1) rotate(0) translate(4 236.3209)">
<title>%3</title>
<polygon fill="#ffffff" stroke="transparent" points="-4,4 -4,-236.3209 360.5638,-236.3209 360.5638,4 -4,4"/>
<!-- 0 -->
<g id="node1" class="node">
<title>0</title>
<ellipse fill="#add8e6" stroke="#000000" cx="102.5638" cy="-183.5305" rx="53.066" ry="48.5816"/>
<text text-anchor="middle" x="102.5638" y="-202.8305" font-family="Times,serif" font-size="14.00" fill="#000000">(1/1)</text>
<text text-anchor="middle" x="102.5638" y="-171.8305" font-family="Times,serif" font-size="14.00" fill="#000000">⊢ [] = []</text>
<text text-anchor="middle" x="102.5638" y="-156.8305" font-family="Times,serif" font-size="14.00" fill="#000000">$0.00$</text>
</g>
<!-- 1 -->
<g id="node2" class="node">
<title>1</title>
<ellipse fill="#add8e6" stroke="#000000" cx="102.5638" cy="-26.8701" rx="101.2327" ry="26.7407"/>
<text text-anchor="middle" x="102.5638" y="-30.6701" font-family="Times,serif" font-size="14.00" fill="#000000">not in proof mode</text>
<text text-anchor="middle" x="102.5638" y="-15.6701" font-family="Times,serif" font-size="14.00" fill="#000000">$&#45;100.00$</text>
</g>
<!-- 0&#45;&gt;1 -->
<g id="edge1" class="edge">
<title>0&#45;&gt;1</title>
<path fill="none" stroke="#ff0000" stroke-width="2" d="M54.5844,-162.0457C36.4185,-151.2459 17.6925,-136.2426 7.5638,-116.7401 -1.6542,-98.9911 -3.1406,-88.6344 7.5638,-71.7401 12.3353,-64.2096 18.7475,-57.919 26.0001,-52.6694"/>
<polygon fill="#ff0000" stroke="#ff0000" stroke-width="2" points="28.3369,-55.3278 34.8522,-46.973 24.5488,-49.4413 28.3369,-55.3278"/>
<text text-anchor="middle" x="44.0638" y="-105.5401" font-family="Times,serif" font-size="14.00" fill="#000000">simp</text>
<text text-anchor="middle" x="44.0638" y="-90.5401" font-family="Times,serif" font-size="14.00" fill="#000000">done</text>
<text text-anchor="middle" x="44.0638" y="-75.5401" font-family="Times,serif" font-size="14.00" fill="#000000">$&#45;100.00$</text>
</g>
<!-- 0&#45;&gt;1 -->
<g id="edge2" class="edge">
<title>0&#45;&gt;1</title>
<path fill="none" stroke="#ff0000" stroke-width="2" d="M102.5638,-134.392C102.5638,-111.6699 102.5638,-85.1234 102.5638,-64.0932"/>
<polygon fill="#ff0000" stroke="#ff0000" stroke-width="2" points="106.0639,-63.9514 102.5638,-53.9515 99.0639,-63.9515 106.0639,-63.9514"/>
<text text-anchor="middle" x="188.5638" y="-105.5401" font-family="Times,serif" font-size="14.00" fill="#000000">cases h : [] &lt;;&gt; simp [*]</text>
<text text-anchor="middle" x="188.5638" y="-90.5401" font-family="Times,serif" font-size="14.00" fill="#000000">done</text>
<text text-anchor="middle" x="188.5638" y="-75.5401" font-family="Times,serif" font-size="14.00" fill="#000000">$&#45;100.00$</text>
</g>
<!-- 0&#45;&gt;1 -->
<g id="edge3" class="edge">
<title>0&#45;&gt;1</title>
<path fill="none" stroke="#ff0000" stroke-width="2" d="M153.7568,-170.6412C199.4399,-157.981 261.2689,-137.5823 275.5638,-116.7401 286.8761,-100.2467 287.8026,-87.5582 275.5638,-71.7401 265.5837,-58.8412 234.6282,-48.9697 201.6068,-41.8144"/>
<polygon fill="#ff0000" stroke="#ff0000" stroke-width="2" points="202.2886,-38.3814 191.7858,-39.7745 200.865,-45.2351 202.2886,-38.3814"/>
<text text-anchor="middle" x="320.0638" y="-105.5401" font-family="Times,serif" font-size="14.00" fill="#000000">rfl</text>
<text text-anchor="middle" x="320.0638" y="-90.5401" font-family="Times,serif" font-size="14.00" fill="#000000">done</text>
<text text-anchor="middle" x="320.0638" y="-75.5401" font-family="Times,serif" font-size="14.00" fill="#000000">$&#45;100.00$</text>
</g>
</g>
</svg>
