<?xml version="1.0" encoding="UTF-8" standalone="no"?>
<!DOCTYPE svg PUBLIC "-//W3C//DTD SVG 1.1//EN"
 "http://www.w3.org/Graphics/SVG/1.1/DTD/svg11.dtd">
<!-- Generated by graphviz version 2.40.1 (0)
 -->
<!-- Title: %3 Pages: 1 -->
<svg width="543pt" height="507pt"
 viewBox="0.00 0.00 543.00 507.14" xmlns="http://www.w3.org/2000/svg" xmlns:xlink="http://www.w3.org/1999/xlink">
<g id="graph0" class="graph" transform="scale(1 1) rotate(0) translate(4 503.1392)">
<title>%3</title>
<polygon fill="#ffffff" stroke="transparent" points="-4,4 -4,-503.1392 539.0007,-503.1392 539.0007,4 -4,4"/>
<!-- 0 -->
<g id="node1" class="node">
<title>0</title>
<ellipse fill="none" stroke="#000000" cx="306.0007" cy="-429.8427" rx="69.0935" ry="69.0935"/>
<text text-anchor="middle" x="306.0007" y="-463.6427" font-family="Times,serif" font-size="14.00" fill="#000000">(1/1)</text>
<text text-anchor="middle" x="306.0007" y="-448.6427" font-family="Times,serif" font-size="14.00" fill="#000000">p q r : Prop</text>
<text text-anchor="middle" x="306.0007" y="-433.6427" font-family="Times,serif" font-size="14.00" fill="#000000">hpq : p ↔ q</text>
<text text-anchor="middle" x="306.0007" y="-418.6427" font-family="Times,serif" font-size="14.00" fill="#000000">hqr : q ↔ r</text>
<text text-anchor="middle" x="306.0007" y="-403.6427" font-family="Times,serif" font-size="14.00" fill="#000000">⊢ p ↔ r</text>
<text text-anchor="middle" x="306.0007" y="-388.6427" font-family="Times,serif" font-size="14.00" fill="#000000">$0.00$</text>
</g>
<!-- 1 -->
<g id="node2" class="node">
<title>1</title>
<ellipse fill="none" stroke="#000000" cx="149.0007" cy="-214.6432" rx="69.0935" ry="79.8063"/>
<text text-anchor="middle" x="149.0007" y="-255.9432" font-family="Times,serif" font-size="14.00" fill="#000000">(1/1)</text>
<text text-anchor="middle" x="149.0007" y="-240.9432" font-family="Times,serif" font-size="14.00" fill="#000000">p q r : Prop</text>
<text text-anchor="middle" x="149.0007" y="-225.9432" font-family="Times,serif" font-size="14.00" fill="#000000">hpq : p ↔ q</text>
<text text-anchor="middle" x="149.0007" y="-210.9432" font-family="Times,serif" font-size="14.00" fill="#000000">hqr : q ↔ r</text>
<text text-anchor="middle" x="149.0007" y="-195.9432" font-family="Times,serif" font-size="14.00" fill="#000000">hq&#39; : p ↔ q</text>
<text text-anchor="middle" x="149.0007" y="-180.9432" font-family="Times,serif" font-size="14.00" fill="#000000">⊢ p ↔ r</text>
<text text-anchor="middle" x="149.0007" y="-165.9432" font-family="Times,serif" font-size="14.00" fill="#000000">$0.61$</text>
</g>
<!-- 0&#45;&gt;1 -->
<g id="edge1" class="edge">
<title>0&#45;&gt;1</title>
<path fill="none" stroke="#000000" d="M245.5405,-395.5582C225.1324,-381.4255 203.7992,-363.4318 189.0007,-342.5462 180.4763,-330.5154 173.721,-316.6026 168.3814,-302.477"/>
<polygon fill="#000000" stroke="#000000" points="171.5492,-300.9381 164.9066,-292.6843 164.9522,-303.279 171.5492,-300.9381"/>
<text text-anchor="middle" x="245.5007" y="-331.3462" font-family="Times,serif" font-size="14.00" fill="#000000">have hq&#39; := hpq</text>
<text text-anchor="middle" x="245.5007" y="-316.3462" font-family="Times,serif" font-size="14.00" fill="#000000">$0.61$</text>
</g>
<!-- 2 -->
<g id="node3" class="node">
<title>2</title>
<ellipse fill="none" stroke="#000000" cx="306.0007" cy="-214.6432" rx="69.0935" ry="69.0935"/>
<text text-anchor="middle" x="306.0007" y="-248.4432" font-family="Times,serif" font-size="14.00" fill="#000000">(1/1)</text>
<text text-anchor="middle" x="306.0007" y="-233.4432" font-family="Times,serif" font-size="14.00" fill="#000000">p q r : Prop</text>
<text text-anchor="middle" x="306.0007" y="-218.4432" font-family="Times,serif" font-size="14.00" fill="#000000">hpq : p ↔ q</text>
<text text-anchor="middle" x="306.0007" y="-203.4432" font-family="Times,serif" font-size="14.00" fill="#000000">hqr : q ↔ r</text>
<text text-anchor="middle" x="306.0007" y="-188.4432" font-family="Times,serif" font-size="14.00" fill="#000000">⊢ q ↔ r</text>
<text text-anchor="middle" x="306.0007" y="-173.4432" font-family="Times,serif" font-size="14.00" fill="#000000">$0.48$</text>
</g>
<!-- 0&#45;&gt;2 -->
<g id="edge2" class="edge">
<title>0&#45;&gt;2</title>
<path fill="none" stroke="#000000" d="M306.0007,-360.2708C306.0007,-339.1746 306.0007,-315.8402 306.0007,-294.1447"/>
<polygon fill="#000000" stroke="#000000" points="309.5008,-293.9756 306.0007,-283.9756 302.5008,-293.9756 309.5008,-293.9756"/>
<text text-anchor="middle" x="344.5007" y="-331.3462" font-family="Times,serif" font-size="14.00" fill="#000000">simp [hpq]</text>
<text text-anchor="middle" x="344.5007" y="-316.3462" font-family="Times,serif" font-size="14.00" fill="#000000">$0.48$</text>
</g>
<!-- 3 -->
<g id="node4" class="node">
<title>3</title>
<ellipse fill="none" stroke="#000000" cx="463.0007" cy="-214.6432" rx="69.0935" ry="79.8063"/>
<text text-anchor="middle" x="463.0007" y="-255.9432" font-family="Times,serif" font-size="14.00" fill="#000000">(1/1)</text>
<text text-anchor="middle" x="463.0007" y="-240.9432" font-family="Times,serif" font-size="14.00" fill="#000000">p q r : Prop</text>
<text text-anchor="middle" x="463.0007" y="-225.9432" font-family="Times,serif" font-size="14.00" fill="#000000">hpq : p ↔ q</text>
<text text-anchor="middle" x="463.0007" y="-210.9432" font-family="Times,serif" font-size="14.00" fill="#000000">hqr : q ↔ r</text>
<text text-anchor="middle" x="463.0007" y="-195.9432" font-family="Times,serif" font-size="14.00" fill="#000000">hq&#39; : p ↔ q</text>
<text text-anchor="middle" x="463.0007" y="-180.9432" font-family="Times,serif" font-size="14.00" fill="#000000">⊢ p ↔ q</text>
<text text-anchor="middle" x="463.0007" y="-165.9432" font-family="Times,serif" font-size="14.00" fill="#000000">$0.50$</text>
</g>
<!-- 0&#45;&gt;3 -->
<g id="edge3" class="edge">
<title>0&#45;&gt;3</title>
<path fill="none" stroke="#000000" d="M355.0174,-380.6516C366.0514,-368.6101 377.3434,-355.4611 387.0007,-342.5462 398.8557,-326.6925 410.4241,-308.8677 420.815,-291.6729"/>
<polygon fill="#000000" stroke="#000000" points="424.0192,-293.1335 426.1367,-282.7524 418.0076,-289.5472 424.0192,-293.1335"/>
<text text-anchor="middle" x="443.0007" y="-331.3462" font-family="Times,serif" font-size="14.00" fill="#000000">rw [← hqr]</text>
<text text-anchor="middle" x="443.0007" y="-316.3462" font-family="Times,serif" font-size="14.00" fill="#000000">$0.50$</text>
</g>
<!-- 4 -->
<g id="node5" class="node">
<title>4</title>
<ellipse fill="none" stroke="#000000" cx="306.0007" cy="-26.8701" rx="101.2327" ry="26.7407"/>
<text text-anchor="middle" x="306.0007" y="-30.6701" font-family="Times,serif" font-size="14.00" fill="#000000">not in proof mode</text>
<text text-anchor="middle" x="306.0007" y="-15.6701" font-family="Times,serif" font-size="14.00" fill="#000000">$&#45;99.52$</text>
</g>
<!-- 2&#45;&gt;4 -->
<g id="edge4" class="edge">
<title>2&#45;&gt;4</title>
<path fill="none" stroke="#000000" d="M262.8199,-160.1719C252.1991,-150.102 240.0802,-140.8485 227.0007,-134.7401 183.1585,-114.2647 42.7714,-152.3416 10.0007,-116.7401 -3.5443,-102.0251 -3.0386,-86.905 10.0007,-71.7401 22.5729,-57.1185 120.0399,-44.3705 199.75,-36.2375"/>
<polygon fill="#000000" stroke="#000000" points="200.2725,-39.7027 209.8721,-35.2195 199.572,-32.7379 200.2725,-39.7027"/>
<text text-anchor="middle" x="123.0007" y="-105.5401" font-family="Times,serif" font-size="14.00" fill="#000000">simpa only [hpq, hqr] using hqr</text>
<text text-anchor="middle" x="123.0007" y="-90.5401" font-family="Times,serif" font-size="14.00" fill="#000000">done</text>
<text text-anchor="middle" x="123.0007" y="-75.5401" font-family="Times,serif" font-size="14.00" fill="#000000">$&#45;100.00$</text>
</g>
<!-- 2&#45;&gt;4 -->
<g id="edge5" class="edge">
<title>2&#45;&gt;4</title>
<path fill="none" stroke="#000000" d="M267.8502,-156.7822C255.3282,-130.4453 247.2889,-99.1132 259.0007,-71.7401 260.7709,-67.6028 263.1306,-63.6654 265.8532,-59.966"/>
<polygon fill="#000000" stroke="#000000" points="268.5674,-62.1763 272.3048,-52.2625 263.2008,-57.6818 268.5674,-62.1763"/>
<text text-anchor="middle" x="295.5007" y="-105.5401" font-family="Times,serif" font-size="14.00" fill="#000000">exact hqr</text>
<text text-anchor="middle" x="295.5007" y="-90.5401" font-family="Times,serif" font-size="14.00" fill="#000000">done</text>
<text text-anchor="middle" x="295.5007" y="-75.5401" font-family="Times,serif" font-size="14.00" fill="#000000">$&#45;100.00$</text>
</g>
<!-- 2&#45;&gt;4 -->
<g id="edge6" class="edge">
<title>2&#45;&gt;4</title>
<path fill="none" stroke="#000000" d="M329.9856,-149.4032C335.8508,-124.8554 338.7429,-96.8232 332.0007,-71.7401 331.1594,-68.61 330.0405,-65.473 328.7388,-62.3928"/>
<polygon fill="#000000" stroke="#000000" points="331.8869,-60.8631 324.3798,-53.3867 325.5861,-63.9127 331.8869,-60.8631"/>
<text text-anchor="middle" x="371.5007" y="-105.5401" font-family="Times,serif" font-size="14.00" fill="#000000">rw [hqr]</text>
<text text-anchor="middle" x="371.5007" y="-90.5401" font-family="Times,serif" font-size="14.00" fill="#000000">done</text>
<text text-anchor="middle" x="371.5007" y="-75.5401" font-family="Times,serif" font-size="14.00" fill="#000000">$&#45;100.00$</text>
</g>
<!-- 2&#45;&gt;4 -->
<g id="edge7" class="edge">
<title>2&#45;&gt;4</title>
<path fill="none" stroke="#000000" d="M353.3996,-163.574C363.4794,-153.6214 374.3147,-143.5515 385.0007,-134.7401 396.128,-125.5649 405.1955,-129.4558 412.0007,-116.7401 421.4379,-99.1066 423.0478,-88.4123 412.0007,-71.7401 406.1873,-62.9664 398.2792,-55.9036 389.3845,-50.219"/>
<polygon fill="#000000" stroke="#000000" points="391.0072,-47.115 380.5905,-45.1804 387.5272,-53.1887 391.0072,-47.115"/>
<text text-anchor="middle" x="477.0007" y="-105.5401" font-family="Times,serif" font-size="14.00" fill="#000000">simpa using hqr</text>
<text text-anchor="middle" x="477.0007" y="-90.5401" font-family="Times,serif" font-size="14.00" fill="#000000">done</text>
<text text-anchor="middle" x="477.0007" y="-75.5401" font-family="Times,serif" font-size="14.00" fill="#000000">$&#45;100.00$</text>
</g>
</g>
</svg>
