<?xml version="1.0" encoding="UTF-8" standalone="no"?>
<!DOCTYPE svg PUBLIC "-//W3C//DTD SVG 1.1//EN"
 "http://www.w3.org/Graphics/SVG/1.1/DTD/svg11.dtd">
<!-- Generated by graphviz version 2.40.1 (0)
 -->
<!-- Title: %3 Pages: 1 -->
<svg width="320pt" height="260pt"
 viewBox="0.00 0.00 320.45 260.12" xmlns="http://www.w3.org/2000/svg" xmlns:xlink="http://www.w3.org/1999/xlink">
<g id="graph0" class="graph" transform="scale(1 1) rotate(0) translate(4 256.1198)">
<title>%3</title>
<polygon fill="#ffffff" stroke="transparent" points="-4,4 -4,-256.1198 316.4508,-256.1198 316.4508,4 -4,4"/>
<!-- 0 -->
<g id="node1" class="node">
<title>0</title>
<ellipse fill="#add8e6" stroke="#000000" cx="124.4508" cy="-193.43" rx="124.4016" ry="58.8803"/>
<text text-anchor="middle" x="124.4508" y="-219.73" font-family="Times,serif" font-size="14.00" fill="#000000">(1/1)</text>
<text text-anchor="middle" x="124.4508" y="-204.73" font-family="Times,serif" font-size="14.00" fill="#000000">p : Prop</text>
<text text-anchor="middle" x="124.4508" y="-189.73" font-family="Times,serif" font-size="14.00" fill="#000000">inst✝ : Decidable p</text>
<text text-anchor="middle" x="124.4508" y="-174.73" font-family="Times,serif" font-size="14.00" fill="#000000">⊢ decide p = decide p</text>
<text text-anchor="middle" x="124.4508" y="-159.73" font-family="Times,serif" font-size="14.00" fill="#000000">$0.00$</text>
</g>
<!-- 1 -->
<g id="node2" class="node">
<title>1</title>
<ellipse fill="#add8e6" stroke="#000000" cx="124.4508" cy="-26.8701" rx="101.2327" ry="26.7407"/>
<text text-anchor="middle" x="124.4508" y="-30.6701" font-family="Times,serif" font-size="14.00" fill="#000000">not in proof mode</text>
<text text-anchor="middle" x="124.4508" y="-15.6701" font-family="Times,serif" font-size="14.00" fill="#000000">$&#45;100.00$</text>
</g>
<!-- 0&#45;&gt;1 -->
<g id="edge1" class="edge">
<title>0&#45;&gt;1</title>
<path fill="none" stroke="#ff0000" stroke-width="2" d="M77.6655,-138.7889C73.5199,-131.7205 69.9525,-124.2997 67.4508,-116.7401 61.1673,-97.7528 58.7163,-89.732 67.4508,-71.7401 69.7299,-67.0454 72.7647,-62.6949 76.2506,-58.7002"/>
<polygon fill="#ff0000" stroke="#ff0000" stroke-width="2" points="78.8745,-61.0249 83.4306,-51.4597 73.904,-56.096 78.8745,-61.0249"/>
<text text-anchor="middle" x="113.9508" y="-105.5401" font-family="Times,serif" font-size="14.00" fill="#000000">unfolddecide</text>
<text text-anchor="middle" x="113.9508" y="-90.5401" font-family="Times,serif" font-size="14.00" fill="#000000">done</text>
<text text-anchor="middle" x="113.9508" y="-75.5401" font-family="Times,serif" font-size="14.00" fill="#000000">$&#45;100.00$</text>
</g>
<!-- 0&#45;&gt;1 -->
<g id="edge2" class="edge">
<title>0&#45;&gt;1</title>
<path fill="none" stroke="#ff0000" stroke-width="2" d="M156.2912,-136.3998C163.8242,-115.8711 167.7947,-92.6287 160.4508,-71.7401 159.219,-68.2363 157.5853,-64.8037 155.6927,-61.4954"/>
<polygon fill="#ff0000" stroke="#ff0000" stroke-width="2" points="158.5803,-59.5161 150.1757,-53.0653 152.7231,-63.3494 158.5803,-59.5161"/>
<text text-anchor="middle" x="237.9508" y="-105.5401" font-family="Times,serif" font-size="14.00" fill="#000000">simp [decide,decide]</text>
<text text-anchor="middle" x="237.9508" y="-90.5401" font-family="Times,serif" font-size="14.00" fill="#000000">done</text>
<text text-anchor="middle" x="237.9508" y="-75.5401" font-family="Times,serif" font-size="14.00" fill="#000000">$&#45;100.00$</text>
</g>
</g>
</svg>
