<?xml version="1.0" encoding="UTF-8" standalone="no"?>
<!DOCTYPE svg PUBLIC "-//W3C//DTD SVG 1.1//EN"
 "http://www.w3.org/Graphics/SVG/1.1/DTD/svg11.dtd">
<!-- Generated by graphviz version 2.40.1 (0)
 -->
<!-- Title: %3 Pages: 1 -->
<svg width="1476pt" height="387pt"
 viewBox="0.00 0.00 1475.88 387.40" xmlns="http://www.w3.org/2000/svg" xmlns:xlink="http://www.w3.org/1999/xlink">
<g id="graph0" class="graph" transform="scale(1 1) rotate(0) translate(4 383.3991)">
<title>%3</title>
<polygon fill="#ffffff" stroke="transparent" points="-4,4 -4,-383.3991 1471.8843,-383.3991 1471.8843,4 -4,4"/>
<!-- 0 -->
<g id="node1" class="node">
<title>0</title>
<ellipse fill="#add8e6" stroke="#000000" cx="799.028" cy="-320.7092" rx="179.7103" ry="58.8803"/>
<text text-anchor="middle" x="799.028" y="-347.0092" font-family="Times,serif" font-size="14.00" fill="#000000">(1/1)</text>
<text text-anchor="middle" x="799.028" y="-332.0092" font-family="Times,serif" font-size="14.00" fill="#000000">n : Nat</text>
<text text-anchor="middle" x="799.028" y="-317.0092" font-family="Times,serif" font-size="14.00" fill="#000000">xs : List Nat</text>
<text text-anchor="middle" x="799.028" y="-302.0092" font-family="Times,serif" font-size="14.00" fill="#000000">⊢ (n :: xs).length = xs.length + 1</text>
<text text-anchor="middle" x="799.028" y="-287.0092" font-family="Times,serif" font-size="14.00" fill="#000000">$0.00$</text>
</g>
<!-- 1 -->
<g id="node2" class="node">
<title>1</title>
<ellipse fill="none" stroke="#000000" cx="152.028" cy="-90.5097" rx="152.0559" ry="90.5193"/>
<text text-anchor="middle" x="152.028" y="-139.3097" font-family="Times,serif" font-size="14.00" fill="#000000">(1/2)</text>
<text text-anchor="middle" x="152.028" y="-124.3097" font-family="Times,serif" font-size="14.00" fill="#000000">case nil</text>
<text text-anchor="middle" x="152.028" y="-109.3097" font-family="Times,serif" font-size="14.00" fill="#000000">n : Nat</text>
<text text-anchor="middle" x="152.028" y="-94.3097" font-family="Times,serif" font-size="14.00" fill="#000000">⊢ [n].length = [].length + 1</text>
<text text-anchor="middle" x="152.028" y="-79.3097" font-family="Times,serif" font-size="14.00" fill="#000000">(2/2)</text>
<text text-anchor="middle" x="152.028" y="-64.3097" font-family="Times,serif" font-size="14.00" fill="#000000">case cons</text>
<text text-anchor="middle" x="152.028" y="-49.3097" font-family="Times,serif" font-size="14.00" fill="#000000">n head✝...</text>
<text text-anchor="middle" x="152.028" y="-34.3097" font-family="Times,serif" font-size="14.00" fill="#000000">$0.64$</text>
</g>
<!-- 0&#45;&gt;1 -->
<g id="edge1" class="edge">
<title>0&#45;&gt;1</title>
<path fill="none" stroke="#000000" d="M621.8042,-310.7722C444.7302,-299.0532 194.3605,-276.9085 163.028,-244.0193 149.3113,-229.6212 142.6404,-210.62 140.078,-190.9091"/>
<polygon fill="#000000" stroke="#000000" points="143.5546,-190.4973 139.1168,-180.8767 136.5865,-191.165 143.5546,-190.4973"/>
<text text-anchor="middle" x="193.528" y="-225.3193" font-family="Times,serif" font-size="14.00" fill="#000000">cases xs</text>
<text text-anchor="middle" x="193.528" y="-210.3193" font-family="Times,serif" font-size="14.00" fill="#000000">$0.64$</text>
</g>
<!-- 2 -->
<g id="node3" class="node">
<title>2</title>
<ellipse fill="#add8e6" stroke="#000000" cx="799.028" cy="-90.5097" rx="101.2327" ry="26.7407"/>
<text text-anchor="middle" x="799.028" y="-94.3097" font-family="Times,serif" font-size="14.00" fill="#000000">not in proof mode</text>
<text text-anchor="middle" x="799.028" y="-79.3097" font-family="Times,serif" font-size="14.00" fill="#000000">$&#45;100.00$</text>
</g>
<!-- 0&#45;&gt;2 -->
<g id="edge2" class="edge">
<title>0&#45;&gt;2</title>
<path fill="none" stroke="#ff0000" stroke-width="2" d="M623.2929,-308.2371C468.0614,-295.3855 262.4436,-273.1387 237.028,-244.0193 223.8766,-228.9515 224.2967,-214.4438 237.028,-199.0193 240.7732,-194.4818 546.8075,-137.2251 705.6323,-107.7693"/>
<polygon fill="#ff0000" stroke="#ff0000" stroke-width="2" points="706.6818,-111.1345 715.8762,-105.8702 705.4057,-104.2517 706.6818,-111.1345"/>
<text text-anchor="middle" x="328.528" y="-232.8193" font-family="Times,serif" font-size="14.00" fill="#000000">induction xs &lt;;&gt; simp [*]</text>
<text text-anchor="middle" x="328.528" y="-217.8193" font-family="Times,serif" font-size="14.00" fill="#000000">done</text>
<text text-anchor="middle" x="328.528" y="-202.8193" font-family="Times,serif" font-size="14.00" fill="#000000">$&#45;100.00$</text>
</g>
<!-- 0&#45;&gt;2 -->
<g id="edge3" class="edge">
<title>0&#45;&gt;2</title>
<path fill="none" stroke="#ff0000" stroke-width="2" d="M626.4893,-304.049C547.9048,-292.5385 467.0588,-273.7782 443.028,-244.0193 369.1036,-152.4743 562.162,-114.3721 692.0361,-99.4126"/>
<polygon fill="#ff0000" stroke="#ff0000" stroke-width="2" points="692.5041,-102.8821 702.052,-98.29 691.7244,-95.9257 692.5041,-102.8821"/>
<text text-anchor="middle" x="610.028" y="-232.8193" font-family="Times,serif" font-size="14.00" fill="#000000">simp [Nat.succ_eq_add_one, List.length_cons]</text>
<text text-anchor="middle" x="610.028" y="-217.8193" font-family="Times,serif" font-size="14.00" fill="#000000">done</text>
<text text-anchor="middle" x="610.028" y="-202.8193" font-family="Times,serif" font-size="14.00" fill="#000000">$&#45;100.00$</text>
</g>
<!-- 0&#45;&gt;2 -->
<g id="edge4" class="edge">
<title>0&#45;&gt;2</title>
<path fill="none" stroke="#ff0000" stroke-width="2" d="M799.028,-261.726C799.028,-219.4118 799.028,-163.7006 799.028,-127.5019"/>
<polygon fill="#ff0000" stroke="#ff0000" stroke-width="2" points="802.5281,-127.3842 799.028,-117.3842 795.5281,-127.3843 802.5281,-127.3842"/>
<text text-anchor="middle" x="902.028" y="-232.8193" font-family="Times,serif" font-size="14.00" fill="#000000">simp [Nat.succ_eq_add_one]</text>
<text text-anchor="middle" x="902.028" y="-217.8193" font-family="Times,serif" font-size="14.00" fill="#000000">done</text>
<text text-anchor="middle" x="902.028" y="-202.8193" font-family="Times,serif" font-size="14.00" fill="#000000">$&#45;100.00$</text>
</g>
<!-- 0&#45;&gt;2 -->
<g id="edge5" class="edge">
<title>0&#45;&gt;2</title>
<path fill="none" stroke="#ff0000" stroke-width="2" d="M936.7472,-282.9564C968.7692,-271.3236 996.3682,-257.8996 1006.028,-244.0193 1047.425,-184.5357 953.5657,-138.8695 879.0371,-113.3491"/>
<polygon fill="#ff0000" stroke="#ff0000" stroke-width="2" points="879.7233,-109.888 869.1295,-110.0341 877.5022,-116.5263 879.7233,-109.888"/>
<text text-anchor="middle" x="1053.528" y="-232.8193" font-family="Times,serif" font-size="14.00" fill="#000000">simp</text>
<text text-anchor="middle" x="1053.528" y="-217.8193" font-family="Times,serif" font-size="14.00" fill="#000000">done</text>
<text text-anchor="middle" x="1053.528" y="-202.8193" font-family="Times,serif" font-size="14.00" fill="#000000">$&#45;100.00$</text>
</g>
<!-- 0&#45;&gt;2 -->
<g id="edge6" class="edge">
<title>0&#45;&gt;2</title>
<path fill="none" stroke="#ff0000" stroke-width="2" d="M962.4838,-296.2871C1020.8006,-283.9649 1076.4669,-266.7294 1094.028,-244.0193 1153.7052,-166.8444 1006.077,-124.6688 898.8106,-104.9126"/>
<polygon fill="#ff0000" stroke="#ff0000" stroke-width="2" points="899.3518,-101.4539 888.89,-103.1275 898.1121,-108.3432 899.3518,-101.4539"/>
<text text-anchor="middle" x="1190.028" y="-232.8193" font-family="Times,serif" font-size="14.00" fill="#000000">simp [Nat.lt_succ_self]</text>
<text text-anchor="middle" x="1190.028" y="-217.8193" font-family="Times,serif" font-size="14.00" fill="#000000">done</text>
<text text-anchor="middle" x="1190.028" y="-202.8193" font-family="Times,serif" font-size="14.00" fill="#000000">$&#45;100.00$</text>
</g>
<!-- 3 -->
<g id="node4" class="node">
<title>3</title>
<ellipse fill="none" stroke="#000000" cx="1313.028" cy="-90.5097" rx="154.7129" ry="69.0935"/>
<text text-anchor="middle" x="1313.028" y="-124.3097" font-family="Times,serif" font-size="14.00" fill="#000000">(1/1)</text>
<text text-anchor="middle" x="1313.028" y="-109.3097" font-family="Times,serif" font-size="14.00" fill="#000000">case cons</text>
<text text-anchor="middle" x="1313.028" y="-94.3097" font-family="Times,serif" font-size="14.00" fill="#000000">n head✝ : Nat</text>
<text text-anchor="middle" x="1313.028" y="-79.3097" font-family="Times,serif" font-size="14.00" fill="#000000">tail✝ : List Nat</text>
<text text-anchor="middle" x="1313.028" y="-64.3097" font-family="Times,serif" font-size="14.00" fill="#000000">⊢ (n :: head✝ :: tail✝).leng...</text>
<text text-anchor="middle" x="1313.028" y="-49.3097" font-family="Times,serif" font-size="14.00" fill="#000000">$0.62$</text>
</g>
<!-- 0&#45;&gt;3 -->
<g id="edge7" class="edge">
<title>0&#45;&gt;3</title>
<path fill="none" stroke="#000000" d="M977.0552,-312.5099C1094.3061,-303.3919 1233.8556,-284.2196 1277.028,-244.0193 1297.2792,-225.1623 1307.1504,-197.2621 1311.6816,-170.4006"/>
<polygon fill="#000000" stroke="#000000" points="1315.1926,-170.5769 1313.1672,-160.1775 1308.2654,-169.5702 1315.1926,-170.5769"/>
<text text-anchor="middle" x="1328.028" y="-225.3193" font-family="Times,serif" font-size="14.00" fill="#000000">rfl</text>
<text text-anchor="middle" x="1328.028" y="-210.3193" font-family="Times,serif" font-size="14.00" fill="#000000">$0.62$</text>
</g>
</g>
</svg>
