<?xml version="1.0" encoding="UTF-8" standalone="no"?>
<!DOCTYPE svg PUBLIC "-//W3C//DTD SVG 1.1//EN"
 "http://www.w3.org/Graphics/SVG/1.1/DTD/svg11.dtd">
<!-- Generated by graphviz version 2.40.1 (0)
 -->
<!-- Title: %3 Pages: 1 -->
<svg width="430pt" height="239pt"
 viewBox="0.00 0.00 429.87 238.91" xmlns="http://www.w3.org/2000/svg" xmlns:xlink="http://www.w3.org/1999/xlink">
<g id="graph0" class="graph" transform="scale(1 1) rotate(0) translate(4 234.9066)">
<title>%3</title>
<polygon fill="#ffffff" stroke="transparent" points="-4,4 -4,-234.9066 425.8688,-234.9066 425.8688,4 -4,4"/>
<!-- 0 -->
<g id="node1" class="node">
<title>0</title>
<ellipse fill="#add8e6" stroke="#000000" cx="178.8688" cy="-182.8234" rx="103.8894" ry="48.1667"/>
<text text-anchor="middle" x="178.8688" y="-201.6234" font-family="Times,serif" font-size="14.00" fill="#000000">(1/1)</text>
<text text-anchor="middle" x="178.8688" y="-186.6234" font-family="Times,serif" font-size="14.00" fill="#000000">b : Bool</text>
<text text-anchor="middle" x="178.8688" y="-171.6234" font-family="Times,serif" font-size="14.00" fill="#000000">⊢ (b &amp;&amp; true) = b</text>
<text text-anchor="middle" x="178.8688" y="-156.6234" font-family="Times,serif" font-size="14.00" fill="#000000">$0.00$</text>
</g>
<!-- 1 -->
<g id="node2" class="node">
<title>1</title>
<ellipse fill="#add8e6" stroke="#000000" cx="178.8688" cy="-26.8701" rx="101.2327" ry="26.7407"/>
<text text-anchor="middle" x="178.8688" y="-30.6701" font-family="Times,serif" font-size="14.00" fill="#000000">not in proof mode</text>
<text text-anchor="middle" x="178.8688" y="-15.6701" font-family="Times,serif" font-size="14.00" fill="#000000">$&#45;100.00$</text>
</g>
<!-- 0&#45;&gt;1 -->
<g id="edge1" class="edge">
<title>0&#45;&gt;1</title>
<path fill="none" stroke="#ff0000" stroke-width="2" d="M89.3864,-158.1324C53.8868,-146.3704 19.0605,-131.6366 8.8688,-116.7401 -2.4245,-100.2337 -3.3361,-87.5844 8.8688,-71.7401 18.5755,-59.139 48.5537,-49.3614 80.6894,-42.1967"/>
<polygon fill="#ff0000" stroke="#ff0000" stroke-width="2" points="81.663,-45.5678 90.7118,-40.0568 80.2014,-38.7221 81.663,-45.5678"/>
<text text-anchor="middle" x="82.8688" y="-105.5401" font-family="Times,serif" font-size="14.00" fill="#000000">cases b &lt;;&gt; simp [*]</text>
<text text-anchor="middle" x="82.8688" y="-90.5401" font-family="Times,serif" font-size="14.00" fill="#000000">done</text>
<text text-anchor="middle" x="82.8688" y="-75.5401" font-family="Times,serif" font-size="14.00" fill="#000000">$&#45;100.00$</text>
</g>
<!-- 0&#45;&gt;1 -->
<g id="edge2" class="edge">
<title>0&#45;&gt;1</title>
<path fill="none" stroke="#ff0000" stroke-width="2" d="M178.8688,-134.3336C178.8688,-111.6921 178.8688,-85.1608 178.8688,-64.1253"/>
<polygon fill="#ff0000" stroke="#ff0000" stroke-width="2" points="182.3689,-63.9793 178.8688,-53.9794 175.3689,-63.9794 182.3689,-63.9793"/>
<text text-anchor="middle" x="241.8688" y="-105.5401" font-family="Times,serif" font-size="14.00" fill="#000000">cases b &lt;;&gt; simp</text>
<text text-anchor="middle" x="241.8688" y="-90.5401" font-family="Times,serif" font-size="14.00" fill="#000000">done</text>
<text text-anchor="middle" x="241.8688" y="-75.5401" font-family="Times,serif" font-size="14.00" fill="#000000">$&#45;100.00$</text>
</g>
<!-- 0&#45;&gt;1 -->
<g id="edge3" class="edge">
<title>0&#45;&gt;1</title>
<path fill="none" stroke="#ff0000" stroke-width="2" d="M264.0734,-154.8907C280.6932,-145.4355 296.0034,-132.9945 305.8688,-116.7401 316.2458,-99.6428 317.4176,-88.0688 305.8688,-71.7401 299.8655,-63.2521 282.711,-55.2473 262.8759,-48.414"/>
<polygon fill="#ff0000" stroke="#ff0000" stroke-width="2" points="263.8769,-45.0588 253.2839,-45.2583 261.6892,-51.7082 263.8769,-45.0588"/>
<text text-anchor="middle" x="367.8688" y="-105.5401" font-family="Times,serif" font-size="14.00" fill="#000000">cases b &lt;;&gt; rfl</text>
<text text-anchor="middle" x="367.8688" y="-90.5401" font-family="Times,serif" font-size="14.00" fill="#000000">done</text>
<text text-anchor="middle" x="367.8688" y="-75.5401" font-family="Times,serif" font-size="14.00" fill="#000000">$&#45;100.00$</text>
</g>
</g>
</svg>
