<?xml version="1.0" encoding="UTF-8" standalone="no"?>
<!DOCTYPE svg PUBLIC "-//W3C//DTD SVG 1.1//EN"
 "http://www.w3.org/Graphics/SVG/1.1/DTD/svg11.dtd">
<!-- Generated by graphviz version 2.40.1 (0)
 -->
<!-- Title: %3 Pages: 1 -->
<svg width="211pt" height="260pt"
 viewBox="0.00 0.00 211.12 260.12" xmlns="http://www.w3.org/2000/svg" xmlns:xlink="http://www.w3.org/1999/xlink">
<g id="graph0" class="graph" transform="scale(1 1) rotate(0) translate(4 256.1198)">
<title>%3</title>
<polygon fill="#ffffff" stroke="transparent" points="-4,4 -4,-256.1198 207.1163,-256.1198 207.1163,4 -4,4"/>
<!-- 0 -->
<g id="node1" class="node">
<title>0</title>
<ellipse fill="#add8e6" stroke="#000000" cx="101.1163" cy="-193.43" rx="54.3945" ry="58.8803"/>
<text text-anchor="middle" x="101.1163" y="-219.73" font-family="Times,serif" font-size="14.00" fill="#000000">(1/1)</text>
<text text-anchor="middle" x="101.1163" y="-204.73" font-family="Times,serif" font-size="14.00" fill="#000000">p : Prop</text>
<text text-anchor="middle" x="101.1163" y="-189.73" font-family="Times,serif" font-size="14.00" fill="#000000">h : False</text>
<text text-anchor="middle" x="101.1163" y="-174.73" font-family="Times,serif" font-size="14.00" fill="#000000">⊢ p</text>
<text text-anchor="middle" x="101.1163" y="-159.73" font-family="Times,serif" font-size="14.00" fill="#000000">$0.00$</text>
</g>
<!-- 1 -->
<g id="node2" class="node">
<title>1</title>
<ellipse fill="#add8e6" stroke="#000000" cx="101.1163" cy="-26.8701" rx="101.2327" ry="26.7407"/>
<text text-anchor="middle" x="101.1163" y="-30.6701" font-family="Times,serif" font-size="14.00" fill="#000000">not in proof mode</text>
<text text-anchor="middle" x="101.1163" y="-15.6701" font-family="Times,serif" font-size="14.00" fill="#000000">$&#45;100.00$</text>
</g>
<!-- 0&#45;&gt;1 -->
<g id="edge1" class="edge">
<title>0&#45;&gt;1</title>
<path fill="none" stroke="#ff0000" stroke-width="2" d="M67.201,-147.0509C61.8038,-137.4617 57.0412,-127.1103 54.1163,-116.7401 48.6871,-97.4911 46.249,-90.1278 54.1163,-71.7401 55.8865,-67.6028 58.2462,-63.6654 60.9687,-59.966"/>
<polygon fill="#ff0000" stroke="#ff0000" stroke-width="2" points="63.6829,-62.1763 67.4204,-52.2625 58.3164,-57.6818 63.6829,-62.1763"/>
<text text-anchor="middle" x="90.6163" y="-105.5401" font-family="Times,serif" font-size="14.00" fill="#000000">simp at h</text>
<text text-anchor="middle" x="90.6163" y="-90.5401" font-family="Times,serif" font-size="14.00" fill="#000000">done</text>
<text text-anchor="middle" x="90.6163" y="-75.5401" font-family="Times,serif" font-size="14.00" fill="#000000">$&#45;100.00$</text>
</g>
<!-- 0&#45;&gt;1 -->
<g id="edge2" class="edge">
<title>0&#45;&gt;1</title>
<path fill="none" stroke="#ff0000" stroke-width="2" d="M123.5573,-139.8305C129.6246,-118.5193 133.0606,-93.8549 127.1163,-71.7401 126.2749,-68.61 125.1561,-65.473 123.8543,-62.3928"/>
<polygon fill="#ff0000" stroke="#ff0000" stroke-width="2" points="127.0024,-60.8631 119.4954,-53.3867 120.7016,-63.9127 127.0024,-60.8631"/>
<text text-anchor="middle" x="166.6163" y="-105.5401" font-family="Times,serif" font-size="14.00" fill="#000000">cases h</text>
<text text-anchor="middle" x="166.6163" y="-90.5401" font-family="Times,serif" font-size="14.00" fill="#000000">done</text>
<text text-anchor="middle" x="166.6163" y="-75.5401" font-family="Times,serif" font-size="14.00" fill="#000000">$&#45;100.00$</text>
</g>
</g>
</svg>
