<?xml version="1.0" encoding="UTF-8" standalone="no"?>
<!DOCTYPE svg PUBLIC "-//W3C//DTD SVG 1.1//EN"
 "http://www.w3.org/Graphics/SVG/1.1/DTD/svg11.dtd">
<!-- Generated by graphviz version 2.40.1 (0)
 -->
<!-- Title: %3 Pages: 1 -->
<svg width="356pt" height="451pt"
 viewBox="0.00 0.00 356.44 451.04" xmlns="http://www.w3.org/2000/svg" xmlns:xlink="http://www.w3.org/1999/xlink">
<g id="graph0" class="graph" transform="scale(1 1) rotate(0) translate(4 447.0387)">
<title>%3</title>
<polygon fill="#ffffff" stroke="transparent" points="-4,4 -4,-447.0387 352.4422,-447.0387 352.4422,4 -4,4"/>
<!-- 0 -->
<g id="node1" class="node">
<title>0</title>
<ellipse fill="#add8e6" stroke="#000000" cx="173.1163" cy="-384.3488" rx="54.3945" ry="58.8803"/>
<text text-anchor="middle" x="173.1163" y="-410.6488" font-family="Times,serif" font-size="14.00" fill="#000000">(1/1)</text>
<text text-anchor="middle" x="173.1163" y="-395.6488" font-family="Times,serif" font-size="14.00" fill="#000000">p : Prop</text>
<text text-anchor="middle" x="173.1163" y="-380.6488" font-family="Times,serif" font-size="14.00" fill="#000000">h : p ∨ p</text>
<text text-anchor="middle" x="173.1163" y="-365.6488" font-family="Times,serif" font-size="14.00" fill="#000000">⊢ p</text>
<text text-anchor="middle" x="173.1163" y="-350.6488" font-family="Times,serif" font-size="14.00" fill="#000000">$0.00$</text>
</g>
<!-- 1 -->
<g id="node2" class="node">
<title>1</title>
<ellipse fill="#add8e6" stroke="#000000" cx="101.1163" cy="-122.3295" rx="101.2327" ry="26.7407"/>
<text text-anchor="middle" x="101.1163" y="-126.1295" font-family="Times,serif" font-size="14.00" fill="#000000">not in proof mode</text>
<text text-anchor="middle" x="101.1163" y="-111.1295" font-family="Times,serif" font-size="14.00" fill="#000000">$&#45;100.00$</text>
</g>
<!-- 0&#45;&gt;1 -->
<g id="edge1" class="edge">
<title>0&#45;&gt;1</title>
<path fill="none" stroke="#ff0000" stroke-width="2" d="M124.4716,-357.8C106.4377,-345.19 87.9874,-328.3135 78.1163,-307.6589 55.3367,-259.9942 70.8722,-197.9262 85.1773,-159.0993"/>
<polygon fill="#ff0000" stroke="#ff0000" stroke-width="2" points="88.6331,-159.8639 88.9546,-149.274 82.0993,-157.352 88.6331,-159.8639"/>
<text text-anchor="middle" x="114.6163" y="-296.4589" font-family="Times,serif" font-size="14.00" fill="#000000">cases p</text>
<text text-anchor="middle" x="114.6163" y="-281.4589" font-family="Times,serif" font-size="14.00" fill="#000000">done</text>
<text text-anchor="middle" x="114.6163" y="-266.4589" font-family="Times,serif" font-size="14.00" fill="#000000">$&#45;100.00$</text>
</g>
<!-- 0&#45;&gt;1 -->
<g id="edge2" class="edge">
<title>0&#45;&gt;1</title>
<path fill="none" stroke="#ff0000" stroke-width="2" d="M164.6205,-326.3527C161.1228,-306.0478 156.5921,-283.196 151.1163,-262.6589 141.4903,-226.5567 126.8056,-186.5117 115.8372,-158.4711"/>
<polygon fill="#ff0000" stroke="#ff0000" stroke-width="2" points="119.0565,-157.094 112.1269,-149.0795 112.5461,-159.6661 119.0565,-157.094"/>
<text text-anchor="middle" x="210.1163" y="-296.4589" font-family="Times,serif" font-size="14.00" fill="#000000">simpa using h</text>
<text text-anchor="middle" x="210.1163" y="-281.4589" font-family="Times,serif" font-size="14.00" fill="#000000">done</text>
<text text-anchor="middle" x="210.1163" y="-266.4589" font-family="Times,serif" font-size="14.00" fill="#000000">$&#45;100.00$</text>
</g>
<!-- 2 -->
<g id="node3" class="node">
<title>2</title>
<ellipse fill="none" stroke="#000000" cx="296.1163" cy="-122.3295" rx="52.1524" ry="122.1592"/>
<text text-anchor="middle" x="296.1163" y="-193.6295" font-family="Times,serif" font-size="14.00" fill="#000000">(1/2)</text>
<text text-anchor="middle" x="296.1163" y="-178.6295" font-family="Times,serif" font-size="14.00" fill="#000000">case inl</text>
<text text-anchor="middle" x="296.1163" y="-163.6295" font-family="Times,serif" font-size="14.00" fill="#000000">p : Prop</text>
<text text-anchor="middle" x="296.1163" y="-148.6295" font-family="Times,serif" font-size="14.00" fill="#000000">h✝ : p</text>
<text text-anchor="middle" x="296.1163" y="-133.6295" font-family="Times,serif" font-size="14.00" fill="#000000">⊢ p</text>
<text text-anchor="middle" x="296.1163" y="-118.6295" font-family="Times,serif" font-size="14.00" fill="#000000">(2/2)</text>
<text text-anchor="middle" x="296.1163" y="-103.6295" font-family="Times,serif" font-size="14.00" fill="#000000">case inr</text>
<text text-anchor="middle" x="296.1163" y="-88.6295" font-family="Times,serif" font-size="14.00" fill="#000000">p : Prop</text>
<text text-anchor="middle" x="296.1163" y="-73.6295" font-family="Times,serif" font-size="14.00" fill="#000000">h✝ : p</text>
<text text-anchor="middle" x="296.1163" y="-58.6295" font-family="Times,serif" font-size="14.00" fill="#000000">⊢ p</text>
<text text-anchor="middle" x="296.1163" y="-43.6295" font-family="Times,serif" font-size="14.00" fill="#000000">$0.67$</text>
</g>
<!-- 0&#45;&gt;2 -->
<g id="edge3" class="edge">
<title>0&#45;&gt;2</title>
<path fill="none" stroke="#000000" d="M220.4312,-354.6938C236.7294,-342.1386 253.5285,-326.1186 264.1163,-307.6589 273.6616,-291.0168 280.5109,-272.2509 285.3991,-253.2129"/>
<polygon fill="#000000" stroke="#000000" points="288.8616,-253.7817 287.7804,-243.2422 282.0531,-252.1556 288.8616,-253.7817"/>
<text text-anchor="middle" x="308.1163" y="-288.9589" font-family="Times,serif" font-size="14.00" fill="#000000">cases h</text>
<text text-anchor="middle" x="308.1163" y="-273.9589" font-family="Times,serif" font-size="14.00" fill="#000000">$0.67$</text>
</g>
</g>
</svg>
