<?xml version="1.0" encoding="UTF-8" standalone="no"?>
<!DOCTYPE svg PUBLIC "-//W3C//DTD SVG 1.1//EN"
 "http://www.w3.org/Graphics/SVG/1.1/DTD/svg11.dtd">
<!-- Generated by graphviz version 2.40.1 (0)
 -->
<!-- Title: %3 Pages: 1 -->
<svg width="1120pt" height="387pt"
 viewBox="0.00 0.00 1119.91 387.40" xmlns="http://www.w3.org/2000/svg" xmlns:xlink="http://www.w3.org/1999/xlink">
<g id="graph0" class="graph" transform="scale(1 1) rotate(0) translate(4 383.3991)">
<title>%3</title>
<polygon fill="#ffffff" stroke="transparent" points="-4,4 -4,-383.3991 1115.9118,-383.3991 1115.9118,4 -4,4"/>
<!-- 0 -->
<g id="node1" class="node">
<title>0</title>
<ellipse fill="none" stroke="#000000" cx="447.2356" cy="-331.3158" rx="186.8525" ry="48.1667"/>
<text text-anchor="middle" x="447.2356" y="-350.1158" font-family="Times,serif" font-size="14.00" fill="#000000">(1/1)</text>
<text text-anchor="middle" x="447.2356" y="-335.1158" font-family="Times,serif" font-size="14.00" fill="#000000">a b : Nat</text>
<text text-anchor="middle" x="447.2356" y="-320.1158" font-family="Times,serif" font-size="14.00" fill="#000000">⊢ (if true = true then a else b) = a</text>
<text text-anchor="middle" x="447.2356" y="-305.1158" font-family="Times,serif" font-size="14.00" fill="#000000">$0.00$</text>
</g>
<!-- 1 -->
<g id="node2" class="node">
<title>1</title>
<ellipse fill="none" stroke="#000000" cx="128.2356" cy="-101.1163" rx="101.2327" ry="26.7407"/>
<text text-anchor="middle" x="128.2356" y="-104.9163" font-family="Times,serif" font-size="14.00" fill="#000000">not in proof mode</text>
<text text-anchor="middle" x="128.2356" y="-89.9163" font-family="Times,serif" font-size="14.00" fill="#000000">$&#45;100.00$</text>
</g>
<!-- 0&#45;&gt;1 -->
<g id="edge1" class="edge">
<title>0&#45;&gt;1</title>
<path fill="none" stroke="#000000" d="M270.9667,-315.3957C158.1257,-303.3704 29.6631,-285.5075 12.2356,-265.2325 -25.3114,-221.5507 33.808,-165.9576 80.5327,-131.9814"/>
<polygon fill="#000000" stroke="#000000" points="82.6744,-134.7531 88.7914,-126.1025 78.6149,-129.0504 82.6744,-134.7531"/>
<text text-anchor="middle" x="59.2356" y="-254.0325" font-family="Times,serif" font-size="14.00" fill="#000000">simp [if_neg]</text>
<text text-anchor="middle" x="59.2356" y="-239.0325" font-family="Times,serif" font-size="14.00" fill="#000000">done</text>
<text text-anchor="middle" x="59.2356" y="-224.0325" font-family="Times,serif" font-size="14.00" fill="#000000">$&#45;100.00$</text>
</g>
<!-- 0&#45;&gt;1 -->
<g id="edge2" class="edge">
<title>0&#45;&gt;1</title>
<path fill="none" stroke="#000000" d="M272.3494,-314.4935C209.242,-304.5221 148.7023,-289.0121 129.2356,-265.2325 100.2822,-229.8644 107.2225,-174.3787 116.4412,-137.8759"/>
<polygon fill="#000000" stroke="#000000" points="119.8486,-138.6826 119.0738,-128.1162 113.0902,-136.8595 119.8486,-138.6826"/>
<text text-anchor="middle" x="253.2356" y="-254.0325" font-family="Times,serif" font-size="14.00" fill="#000000">split_ifs &lt;;&gt; simp [h, Nat.cast_eq]</text>
<text text-anchor="middle" x="253.2356" y="-239.0325" font-family="Times,serif" font-size="14.00" fill="#000000">done</text>
<text text-anchor="middle" x="253.2356" y="-224.0325" font-family="Times,serif" font-size="14.00" fill="#000000">$&#45;100.00$</text>
</g>
<!-- 0&#45;&gt;1 -->
<g id="edge3" class="edge">
<title>0&#45;&gt;1</title>
<path fill="none" stroke="#000000" d="M408.4085,-283.9667C404.0603,-277.8246 399.8887,-271.4903 396.2356,-265.2325 385.2907,-246.4837 392.8962,-235.2677 377.2356,-220.2325 360.8001,-204.4533 350.1092,-211.3653 329.2356,-202.2325 278.4381,-180.0072 222.1776,-151.3418 182.129,-130.2107"/>
<polygon fill="#000000" stroke="#000000" points="183.551,-127.0033 173.0757,-125.4165 180.2751,-133.1895 183.551,-127.0033"/>
<text text-anchor="middle" x="432.7356" y="-254.0325" font-family="Times,serif" font-size="14.00" fill="#000000">simp</text>
<text text-anchor="middle" x="432.7356" y="-239.0325" font-family="Times,serif" font-size="14.00" fill="#000000">done</text>
<text text-anchor="middle" x="432.7356" y="-224.0325" font-family="Times,serif" font-size="14.00" fill="#000000">$&#45;100.00$</text>
</g>
<!-- 2 -->
<g id="node3" class="node">
<title>2</title>
<ellipse fill="none" stroke="#000000" cx="431.2356" cy="-101.1163" rx="93.1765" ry="101.2327"/>
<text text-anchor="middle" x="431.2356" y="-157.4163" font-family="Times,serif" font-size="14.00" fill="#000000">(1/2)</text>
<text text-anchor="middle" x="431.2356" y="-142.4163" font-family="Times,serif" font-size="14.00" fill="#000000">case isTrue</text>
<text text-anchor="middle" x="431.2356" y="-127.4163" font-family="Times,serif" font-size="14.00" fill="#000000">a b : Nat</text>
<text text-anchor="middle" x="431.2356" y="-112.4163" font-family="Times,serif" font-size="14.00" fill="#000000">h✝ : true = true</text>
<text text-anchor="middle" x="431.2356" y="-97.4163" font-family="Times,serif" font-size="14.00" fill="#000000">⊢ a = a</text>
<text text-anchor="middle" x="431.2356" y="-82.4163" font-family="Times,serif" font-size="14.00" fill="#000000">(2/2)</text>
<text text-anchor="middle" x="431.2356" y="-67.4163" font-family="Times,serif" font-size="14.00" fill="#000000">case isFalse</text>
<text text-anchor="middle" x="431.2356" y="-52.4163" font-family="Times,serif" font-size="14.00" fill="#000000">a b...</text>
<text text-anchor="middle" x="431.2356" y="-37.4163" font-family="Times,serif" font-size="14.00" fill="#000000">$0.43$</text>
</g>
<!-- 0&#45;&gt;2 -->
<g id="edge4" class="edge">
<title>0&#45;&gt;2</title>
<path fill="none" stroke="#000000" d="M468.5348,-283.2109C470.4628,-277.2521 472.11,-271.1679 473.2356,-265.2325 477.0502,-245.1185 475.685,-223.8088 471.6749,-203.4409"/>
<polygon fill="#000000" stroke="#000000" points="475.0623,-202.5475 469.5049,-193.5272 468.2242,-204.0443 475.0623,-202.5475"/>
<text text-anchor="middle" x="501.2356" y="-246.5325" font-family="Times,serif" font-size="14.00" fill="#000000">split</text>
<text text-anchor="middle" x="501.2356" y="-231.5325" font-family="Times,serif" font-size="14.00" fill="#000000">$0.43$</text>
</g>
<!-- 3 -->
<g id="node4" class="node">
<title>3</title>
<ellipse fill="none" stroke="#000000" cx="631.2356" cy="-101.1163" rx="89.191" ry="90.5193"/>
<text text-anchor="middle" x="631.2356" y="-149.9163" font-family="Times,serif" font-size="14.00" fill="#000000">(1/2)</text>
<text text-anchor="middle" x="631.2356" y="-134.9163" font-family="Times,serif" font-size="14.00" fill="#000000">a b : Nat</text>
<text text-anchor="middle" x="631.2356" y="-119.9163" font-family="Times,serif" font-size="14.00" fill="#000000">⊢ b = a</text>
<text text-anchor="middle" x="631.2356" y="-104.9163" font-family="Times,serif" font-size="14.00" fill="#000000">(2/2)</text>
<text text-anchor="middle" x="631.2356" y="-89.9163" font-family="Times,serif" font-size="14.00" fill="#000000">case hnc</text>
<text text-anchor="middle" x="631.2356" y="-74.9163" font-family="Times,serif" font-size="14.00" fill="#000000">a b : Nat</text>
<text text-anchor="middle" x="631.2356" y="-59.9163" font-family="Times,serif" font-size="14.00" fill="#000000">⊢ ¬true = true</text>
<text text-anchor="middle" x="631.2356" y="-44.9163" font-family="Times,serif" font-size="14.00" fill="#000000">$0.47$</text>
</g>
<!-- 0&#45;&gt;3 -->
<g id="edge5" class="edge">
<title>0&#45;&gt;3</title>
<path fill="none" stroke="#000000" d="M509.253,-285.9615C516.688,-279.3845 523.8839,-272.4014 530.2356,-265.2325 550.2685,-242.6224 568.7345,-215.5454 584.2468,-189.9652"/>
<polygon fill="#000000" stroke="#000000" points="587.2662,-191.7355 589.3923,-181.3561 581.2576,-188.1442 587.2662,-191.7355"/>
<text text-anchor="middle" x="602.2356" y="-246.5325" font-family="Times,serif" font-size="14.00" fill="#000000">rw [if_neg]</text>
<text text-anchor="middle" x="602.2356" y="-231.5325" font-family="Times,serif" font-size="14.00" fill="#000000">$0.47$</text>
</g>
<!-- 4 -->
<g id="node5" class="node">
<title>4</title>
<ellipse fill="none" stroke="#000000" cx="925.2356" cy="-101.1163" rx="186.8525" ry="79.8063"/>
<text text-anchor="middle" x="925.2356" y="-142.4163" font-family="Times,serif" font-size="14.00" fill="#000000">(1/2)</text>
<text text-anchor="middle" x="925.2356" y="-127.4163" font-family="Times,serif" font-size="14.00" fill="#000000">case pos</text>
<text text-anchor="middle" x="925.2356" y="-112.4163" font-family="Times,serif" font-size="14.00" fill="#000000">a b : Nat</text>
<text text-anchor="middle" x="925.2356" y="-97.4163" font-family="Times,serif" font-size="14.00" fill="#000000">hab : a = b</text>
<text text-anchor="middle" x="925.2356" y="-82.4163" font-family="Times,serif" font-size="14.00" fill="#000000">⊢ (if true = true then a else b) = a</text>
<text text-anchor="middle" x="925.2356" y="-67.4163" font-family="Times,serif" font-size="14.00" fill="#000000">(...</text>
<text text-anchor="middle" x="925.2356" y="-52.4163" font-family="Times,serif" font-size="14.00" fill="#000000">$0.57$</text>
</g>
<!-- 0&#45;&gt;4 -->
<g id="edge6" class="edge">
<title>0&#45;&gt;4</title>
<path fill="none" stroke="#000000" d="M569.4514,-294.9617C594.8775,-286.1711 621.2296,-276.1304 645.2356,-265.2325 702.9516,-239.0317 764.01,-204.1678 814.3289,-173.3134"/>
<polygon fill="#000000" stroke="#000000" points="816.2733,-176.2265 822.9513,-168.0013 812.6015,-170.2667 816.2733,-176.2265"/>
<text text-anchor="middle" x="806.2356" y="-246.5325" font-family="Times,serif" font-size="14.00" fill="#000000">by_cases hab : a = b</text>
<text text-anchor="middle" x="806.2356" y="-231.5325" font-family="Times,serif" font-size="14.00" fill="#000000">$0.57$</text>
</g>
</g>
</svg>
