<?xml version="1.0" encoding="UTF-8" standalone="no"?>
<!DOCTYPE svg PUBLIC "-//W3C//DTD SVG 1.1//EN"
 "http://www.w3.org/Graphics/SVG/1.1/DTD/svg11.dtd">
<!-- Generated by graphviz version 2.40.1 (0)
 -->
<!-- Title: %3 Pages: 1 -->
<svg width="1084pt" height="409pt"
 viewBox="0.00 0.00 1084.09 408.61" xmlns="http://www.w3.org/2000/svg" xmlns:xlink="http://www.w3.org/1999/xlink">
<g id="graph0" class="graph" transform="scale(1 1) rotate(0) translate(4 404.6123)">
<title>%3</title>
<polygon fill="#ffffff" stroke="transparent" points="-4,4 -4,-404.6123 1080.092,-404.6123 1080.092,4 -4,4"/>
<!-- 0 -->
<g id="node1" class="node">
<title>0</title>
<ellipse fill="#add8e6" stroke="#000000" cx="446.092" cy="-352.529" rx="65.1077" ry="48.1667"/>
<text text-anchor="middle" x="446.092" y="-371.329" font-family="Times,serif" font-size="14.00" fill="#000000">(1/1)</text>
<text text-anchor="middle" x="446.092" y="-356.329" font-family="Times,serif" font-size="14.00" fill="#000000">n : Nat</text>
<text text-anchor="middle" x="446.092" y="-341.329" font-family="Times,serif" font-size="14.00" fill="#000000">⊢ HEq n n</text>
<text text-anchor="middle" x="446.092" y="-326.329" font-family="Times,serif" font-size="14.00" fill="#000000">$0.00$</text>
</g>
<!-- 1 -->
<g id="node2" class="node">
<title>1</title>
<ellipse fill="#add8e6" stroke="#000000" cx="398.092" cy="-111.7229" rx="101.2327" ry="26.7407"/>
<text text-anchor="middle" x="398.092" y="-115.5229" font-family="Times,serif" font-size="14.00" fill="#000000">not in proof mode</text>
<text text-anchor="middle" x="398.092" y="-100.5229" font-family="Times,serif" font-size="14.00" fill="#000000">$&#45;100.00$</text>
</g>
<!-- 0&#45;&gt;1 -->
<g id="edge1" class="edge">
<title>0&#45;&gt;1</title>
<path fill="none" stroke="#ff0000" stroke-width="2" d="M381.1029,-347.0916C267.4387,-336.9194 42.342,-313.5707 19.092,-286.4457 -65.3779,-187.8975 153.9615,-141.7133 293.2784,-122.8647"/>
<polygon fill="#ff0000" stroke="#ff0000" stroke-width="2" points="294.1272,-126.2829 303.5812,-121.5006 293.2083,-119.3435 294.1272,-126.2829"/>
<text text-anchor="middle" x="85.592" y="-275.2457" font-family="Times,serif" font-size="14.00" fill="#000000">simp [Nat.zero_le]</text>
<text text-anchor="middle" x="85.592" y="-260.2457" font-family="Times,serif" font-size="14.00" fill="#000000">done</text>
<text text-anchor="middle" x="85.592" y="-245.2457" font-family="Times,serif" font-size="14.00" fill="#000000">$&#45;100.00$</text>
</g>
<!-- 0&#45;&gt;1 -->
<g id="edge2" class="edge">
<title>0&#45;&gt;1</title>
<path fill="none" stroke="#ff0000" stroke-width="2" d="M381.5882,-345.8912C309.7256,-337.0088 200.2939,-318.5316 175.092,-286.4457 123.4606,-220.7111 238.6628,-165.2507 321.9426,-135.3937"/>
<polygon fill="#ff0000" stroke="#ff0000" stroke-width="2" points="323.1483,-138.6799 331.4177,-132.0566 320.8229,-132.0774 323.1483,-138.6799"/>
<text text-anchor="middle" x="251.592" y="-275.2457" font-family="Times,serif" font-size="14.00" fill="#000000">induction&#39; n with n ih</text>
<text text-anchor="middle" x="251.592" y="-260.2457" font-family="Times,serif" font-size="14.00" fill="#000000">done</text>
<text text-anchor="middle" x="251.592" y="-245.2457" font-family="Times,serif" font-size="14.00" fill="#000000">$&#45;100.00$</text>
</g>
<!-- 0&#45;&gt;1 -->
<g id="edge3" class="edge">
<title>0&#45;&gt;1</title>
<path fill="none" stroke="#ff0000" stroke-width="2" d="M390.6187,-326.7404C374.97,-316.5397 359.8382,-303.1839 351.092,-286.4457 327.5557,-241.4029 352.541,-183.5072 374.1183,-146.9949"/>
<polygon fill="#ff0000" stroke="#ff0000" stroke-width="2" points="377.2691,-148.5512 379.4991,-138.1937 371.2968,-144.8999 377.2691,-148.5512"/>
<text text-anchor="middle" x="387.592" y="-275.2457" font-family="Times,serif" font-size="14.00" fill="#000000">cases n</text>
<text text-anchor="middle" x="387.592" y="-260.2457" font-family="Times,serif" font-size="14.00" fill="#000000">done</text>
<text text-anchor="middle" x="387.592" y="-245.2457" font-family="Times,serif" font-size="14.00" fill="#000000">$&#45;100.00$</text>
</g>
<!-- 0&#45;&gt;1 -->
<g id="edge4" class="edge">
<title>0&#45;&gt;1</title>
<path fill="none" stroke="#ff0000" stroke-width="2" d="M436.6408,-304.6817C432.7624,-285.0801 428.2216,-262.1727 424.092,-241.4457 417.8989,-210.3618 410.8282,-175.0979 405.6253,-149.1912"/>
<polygon fill="#ff0000" stroke="#ff0000" stroke-width="2" points="408.9893,-148.1661 403.5883,-139.0513 402.1265,-149.5448 408.9893,-148.1661"/>
<text text-anchor="middle" x="529.592" y="-275.2457" font-family="Times,serif" font-size="14.00" fill="#000000">induction n &lt;;&gt; simp [*, *]</text>
<text text-anchor="middle" x="529.592" y="-260.2457" font-family="Times,serif" font-size="14.00" fill="#000000">done</text>
<text text-anchor="middle" x="529.592" y="-245.2457" font-family="Times,serif" font-size="14.00" fill="#000000">$&#45;100.00$</text>
</g>
<!-- 0&#45;&gt;1 -->
<g id="edge5" class="edge">
<title>0&#45;&gt;1</title>
<path fill="none" stroke="#ff0000" stroke-width="2" d="M508.5093,-338.2618C556.0006,-325.9942 615.5927,-307.0592 630.092,-286.4457 641.5985,-270.0872 640.2109,-258.6971 630.092,-241.4457 597.8919,-186.549 533.0519,-153.1517 480.0861,-134.0218"/>
<polygon fill="#ff0000" stroke="#ff0000" stroke-width="2" points="480.9398,-130.6125 470.345,-130.6139 478.6282,-137.2198 480.9398,-130.6125"/>
<text text-anchor="middle" x="727.092" y="-275.2457" font-family="Times,serif" font-size="14.00" fill="#000000">induction n &lt;;&gt; simp [*]</text>
<text text-anchor="middle" x="727.092" y="-260.2457" font-family="Times,serif" font-size="14.00" fill="#000000">done</text>
<text text-anchor="middle" x="727.092" y="-245.2457" font-family="Times,serif" font-size="14.00" fill="#000000">$&#45;100.00$</text>
</g>
<!-- 0&#45;&gt;1 -->
<g id="edge6" class="edge">
<title>0&#45;&gt;1</title>
<path fill="none" stroke="#ff0000" stroke-width="2" d="M511.1431,-350.6872C607.3892,-346.4366 780.5365,-332.4325 819.092,-286.4457 831.9415,-271.1196 830.9708,-257.5359 819.092,-241.4457 780.2888,-188.8857 605.7773,-148.7041 493.9713,-127.7878"/>
<polygon fill="#ff0000" stroke="#ff0000" stroke-width="2" points="494.4948,-124.3253 484.0248,-125.9468 493.2208,-131.2084 494.4948,-124.3253"/>
<text text-anchor="middle" x="864.592" y="-275.2457" font-family="Times,serif" font-size="14.00" fill="#000000">simp</text>
<text text-anchor="middle" x="864.592" y="-260.2457" font-family="Times,serif" font-size="14.00" fill="#000000">done</text>
<text text-anchor="middle" x="864.592" y="-245.2457" font-family="Times,serif" font-size="14.00" fill="#000000">$&#45;100.00$</text>
</g>
<!-- 2 -->
<g id="node3" class="node">
<title>2</title>
<ellipse fill="none" stroke="#000000" cx="957.092" cy="-111.7229" rx="65.1077" ry="111.9462"/>
<text text-anchor="middle" x="957.092" y="-175.5229" font-family="Times,serif" font-size="14.00" fill="#000000">(1/2)</text>
<text text-anchor="middle" x="957.092" y="-160.5229" font-family="Times,serif" font-size="14.00" fill="#000000">case pos</text>
<text text-anchor="middle" x="957.092" y="-145.5229" font-family="Times,serif" font-size="14.00" fill="#000000">n : Nat</text>
<text text-anchor="middle" x="957.092" y="-130.5229" font-family="Times,serif" font-size="14.00" fill="#000000">hn : n = 0</text>
<text text-anchor="middle" x="957.092" y="-115.5229" font-family="Times,serif" font-size="14.00" fill="#000000">⊢ HEq n n</text>
<text text-anchor="middle" x="957.092" y="-100.5229" font-family="Times,serif" font-size="14.00" fill="#000000">(2/2)</text>
<text text-anchor="middle" x="957.092" y="-85.5229" font-family="Times,serif" font-size="14.00" fill="#000000">case neg</text>
<text text-anchor="middle" x="957.092" y="-70.5229" font-family="Times,serif" font-size="14.00" fill="#000000">n : Nat</text>
<text text-anchor="middle" x="957.092" y="-55.5229" font-family="Times,serif" font-size="14.00" fill="#000000">hn : ¬n ...</text>
<text text-anchor="middle" x="957.092" y="-40.5229" font-family="Times,serif" font-size="14.00" fill="#000000">$0.36$</text>
</g>
<!-- 0&#45;&gt;2 -->
<g id="edge7" class="edge">
<title>0&#45;&gt;2</title>
<path fill="none" stroke="#000000" d="M510.9265,-347.0637C630.3737,-336.4373 875.7283,-311.8003 905.092,-286.4457 921.9182,-271.9169 933.4256,-252.2068 941.2662,-231.2525"/>
<polygon fill="#000000" stroke="#000000" points="944.6604,-232.1462 944.6166,-221.5515 938.0439,-229.8611 944.6604,-232.1462"/>
<text text-anchor="middle" x="1006.092" y="-267.7457" font-family="Times,serif" font-size="14.00" fill="#000000">by_cases hn : n = 0</text>
<text text-anchor="middle" x="1006.092" y="-252.7457" font-family="Times,serif" font-size="14.00" fill="#000000">$0.36$</text>
</g>
</g>
</svg>
