<?xml version="1.0" encoding="UTF-8" standalone="no"?>
<!DOCTYPE svg PUBLIC "-//W3C//DTD SVG 1.1//EN"
 "http://www.w3.org/Graphics/SVG/1.1/DTD/svg11.dtd">
<!-- Generated by graphviz version 2.40.1 (0)
 -->
<!-- Title: %3 Pages: 1 -->
<svg width="468pt" height="239pt"
 viewBox="0.00 0.00 467.58 238.91" xmlns="http://www.w3.org/2000/svg" xmlns:xlink="http://www.w3.org/1999/xlink">
<g id="graph0" class="graph" transform="scale(1 1) rotate(0) translate(4 234.9066)">
<title>%3</title>
<polygon fill="#ffffff" stroke="transparent" points="-4,4 -4,-234.9066 463.5777,-234.9066 463.5777,4 -4,4"/>
<!-- 0 -->
<g id="node1" class="node">
<title>0</title>
<ellipse fill="#add8e6" stroke="#000000" cx="102.5777" cy="-182.8234" rx="86.0347" ry="48.1667"/>
<text text-anchor="middle" x="102.5777" y="-201.6234" font-family="Times,serif" font-size="14.00" fill="#000000">(1/1)</text>
<text text-anchor="middle" x="102.5777" y="-186.6234" font-family="Times,serif" font-size="14.00" fill="#000000">a b : Nat</text>
<text text-anchor="middle" x="102.5777" y="-171.6234" font-family="Times,serif" font-size="14.00" fill="#000000">⊢ (a, b).fst = a</text>
<text text-anchor="middle" x="102.5777" y="-156.6234" font-family="Times,serif" font-size="14.00" fill="#000000">$0.00$</text>
</g>
<!-- 1 -->
<g id="node2" class="node">
<title>1</title>
<ellipse fill="#add8e6" stroke="#000000" cx="102.5777" cy="-26.8701" rx="101.2327" ry="26.7407"/>
<text text-anchor="middle" x="102.5777" y="-30.6701" font-family="Times,serif" font-size="14.00" fill="#000000">not in proof mode</text>
<text text-anchor="middle" x="102.5777" y="-15.6701" font-family="Times,serif" font-size="14.00" fill="#000000">$&#45;100.00$</text>
</g>
<!-- 0&#45;&gt;1 -->
<g id="edge1" class="edge">
<title>0&#45;&gt;1</title>
<path fill="none" stroke="#ff0000" stroke-width="2" d="M37.727,-150.4607C25.5994,-141.2967 14.556,-130.095 7.5777,-116.7401 -1.6847,-99.0142 -3.1268,-88.6344 7.5777,-71.7401 12.3491,-64.2096 18.7614,-57.919 26.014,-52.6694"/>
<polygon fill="#ff0000" stroke="#ff0000" stroke-width="2" points="28.3507,-55.3278 34.866,-46.973 24.5627,-49.4413 28.3507,-55.3278"/>
<text text-anchor="middle" x="44.0777" y="-105.5401" font-family="Times,serif" font-size="14.00" fill="#000000">rfl</text>
<text text-anchor="middle" x="44.0777" y="-90.5401" font-family="Times,serif" font-size="14.00" fill="#000000">done</text>
<text text-anchor="middle" x="44.0777" y="-75.5401" font-family="Times,serif" font-size="14.00" fill="#000000">$&#45;100.00$</text>
</g>
<!-- 0&#45;&gt;1 -->
<g id="edge2" class="edge">
<title>0&#45;&gt;1</title>
<path fill="none" stroke="#ff0000" stroke-width="2" d="M102.5777,-134.3336C102.5777,-111.6921 102.5777,-85.1608 102.5777,-64.1253"/>
<polygon fill="#ff0000" stroke="#ff0000" stroke-width="2" points="106.0778,-63.9793 102.5777,-53.9794 99.0778,-63.9794 106.0778,-63.9793"/>
<text text-anchor="middle" x="238.0777" y="-105.5401" font-family="Times,serif" font-size="14.00" fill="#000000">exact Nat.le_antisymm (by simp [hb])</text>
<text text-anchor="middle" x="238.0777" y="-90.5401" font-family="Times,serif" font-size="14.00" fill="#000000">done</text>
<text text-anchor="middle" x="238.0777" y="-75.5401" font-family="Times,serif" font-size="14.00" fill="#000000">$&#45;100.00$</text>
</g>
<!-- 0&#45;&gt;1 -->
<g id="edge3" class="edge">
<title>0&#45;&gt;1</title>
<path fill="none" stroke="#ff0000" stroke-width="2" d="M188.2506,-176.5376C287.7997,-166.0215 431.59,-138.928 374.5777,-71.7401 363.4501,-58.6265 279.0673,-46.0932 207.2002,-37.6227"/>
<polygon fill="#ff0000" stroke="#ff0000" stroke-width="2" points="207.4887,-34.1328 197.1514,-36.4548 206.6805,-41.086 207.4887,-34.1328"/>
<text text-anchor="middle" x="423.0777" y="-105.5401" font-family="Times,serif" font-size="14.00" fill="#000000">simp</text>
<text text-anchor="middle" x="423.0777" y="-90.5401" font-family="Times,serif" font-size="14.00" fill="#000000">done</text>
<text text-anchor="middle" x="423.0777" y="-75.5401" font-family="Times,serif" font-size="14.00" fill="#000000">$&#45;100.00$</text>
</g>
</g>
</svg>
